<?xml version="1.0" encoding="utf-8"?>
<!-- Generator: Adobe Illustrator 16.0.0, SVG Export Plug-In . SVG Version: 6.00 Build 0)  -->
<!DOCTYPE svg PUBLIC "-//W3C//DTD SVG 1.1//EN" "http://www.w3.org/Graphics/SVG/1.1/DTD/svg11.dtd">
<svg version="1.1" id="Layer_1" xmlns="http://www.w3.org/2000/svg" xmlns:xlink="http://www.w3.org/1999/xlink" x="0px" y="0px"
	 width="768px" height="1024px" viewBox="0 0 768 1024" enable-background="new 0 0 768 1024" xml:space="preserve">
<path id="lv" d="M429.59,880.505c0.85,0,1.701,0.212,2.34-0.425c0.85-1.277,0.637-3.191,1.488-4.468
	c1.701-2.128,8.508-6.382,11.061-7.02c1.488-0.426,8.297,0,9.785-0.426c0.852-0.212,1.49-1.915,2.34-1.915
	c1.49,0.215,2.34,3.83,3.191,2.766c0.639-0.425,0.426-1.488,1.064-2.127c1.914-1.915,2.764,0.213,5.104,0
	c1.277-0.213,1.916-1.488,3.191-1.488c0.213-0.215,6.594,1.488,6.807,1.275c1.064-0.211,1.49-1.702,2.553-1.914
	c1.914-0.426,1.914,2.766,3.617,0.212c1.275-1.489,1.275-5.104,3.828-5.53c2.127-0.425,2.979,6.383,5.742,6.383
	c2.766,0,5.531-1.703,8.297-0.853c4.041,1.065,10.424,8.935,15.316,9.785c5.318,0.852,5.529-7.231,8.721-7.019
	c1.064,0,1.703,1.275,2.553,1.275c0.639,0,0.213-1.488,0.639-1.701c1.275-0.426,2.977,0.851,4.041,0c0,0,1.064-6.383,1.49-7.02
	c0.424-1.276,4.467-4.467,4.467-4.68c1.701-6.169-4.467-11.913-8.084-14.891c-1.488-1.063,1.488-2.979-1.488-3.402
	c-1.064-0.214-1.914,1.488-2.979,1.275c-0.426,0,0-0.638,0-1.063c0-0.212,0.213-0.638,0.213-0.851c0-1.49,0.426-2.979,0.213-4.468
	c-0.213-0.638-1.703-0.425-1.703-1.063c0-2.766,5.105-4.469-1.914-7.02c-0.85-0.213-2.127-0.213-2.764-0.852
	c-0.639-0.85,0.424-2.339-0.426-2.764c-0.852-0.639-1.703,0.425-2.766,0.637c-0.213,1.063-6.594-1.275-7.445-1.063
	c0,0-4.043,4.466-4.256,4.466c-1.488,0.213-8.295-4.254-9.146-5.53c-0.426-0.425,0.426-1.701-0.213-1.915
	c-1.275-0.425-2.551,0.852-3.828,0.427c-0.637-0.213-0.426-1.49-1.063-1.703c-0.639,0-1.277,1.276-1.914,1.063
	c-1.277-0.425-3.617-3.616-5.531-3.616c-0.426,0,0,0.639,0,1.064c0,0.212,0.213,0.212,0.213,0.426
	c0.637,2.766-1.703-1.277-2.979-0.426c-1.914,1.488-8.508,7.658-10.211,8.084l-0.426-0.214c0.213,0.426,0.213,1.063,0.213,1.702
	c0.852,4.467,6.381,10.636,5.105,15.527c-0.639,2.979-5.742,9.148-8.934,9.573c-1.277,0.214-2.129-1.063-3.191-1.276
	c-2.127-0.638-2.553,0.852-3.828-1.276c-1.49-2.128-1.49-5.105-3.404-6.807c-1.914-1.915-6.381-2.765-8.51-4.681
	c-1.275-1.063,0-3.828-1.275-4.467c-1.914-0.85-3.402,2.128-5.105,3.191c-2.127,1.701-5.104,2.127-7.02,4.255
	c-5.105,5.317-0.637,11.486-2.553,16.804c-0.637,2.128-3.404,2.979-4.041,5.105c-0.426,1.276,0.637,2.552,0.637,4.041
	c0,1.49-0.637,2.979-0.211,4.255c0,0.214,0.211,0.426,0.424,0.426l0,0C424.908,871.146,428.313,877.526,429.59,880.505
	L429.59,880.505z"/>
<path id="Suedafrika" inkscape:connector-curvature="0" d="M100.615,849.908l12.351,24.854l0.162,5.682
	c-0.624,1.367-1.648,1.406-2.793,1.186c-0.464,0.652-0.898,1.496,0.118,2.131c1.53,2.717,2.638,6.021,4.588,8.35
	c1.602,1.913,3.978,2.914,5.862,4.564l4.903,0.393c1.01-0.709,0.092-1.677,3.75-2.032l7.184-0.047
	c2.268-0.891-0.284-3.134,7.112-2.584c1.216,0.153,1.741,1.487,3.647,0.457c3.434-0.554,6.713,0.755,10.058,1.259
	c0.991-0.793,0.623-2.14,6.192-1.063l0.57-2.167l6.528,0.104l38.7-35.965c6.138-2.547,7.494-9.979,9.214-17.041l-4.858-0.325
	c-0.051-0.589-4.665,2.713-5.25,2.777c-2.496,0.278-3.936-0.528-3.577-4.899c0.268-3.258,3.758-5.854,4.681-6.455
	c1.23-0.805,2.458,2.226,3.684,1.426c0,0-0.434-13.859-0.951-25.453c-2.606-1.586-4.475-4.311-9.117-2.748
	c-2.437-1.82-4.874-1.635-7.311-2.203l-26.773,21.232l-0.982,4.438c-3.042,1.608-6.083,1.39-9.125,1.713
	c-2.305-1.752-4.787-2.787-7.487-2.951l-4.466,3.909c-0.418,2.153-1.67,2.358-2.629,3.249c-1.52,0.881-2.313,2.004-2.643,3.281
	c-4.501,1.113-7.658,0.378-10.591-0.666c0.565-2.632,2.258-4.341,0.847-8.59l-6.227-6.963l-0.809,29.904
	c-1.884,0.815-3.767,2.054-5.649,3.861c-3.139-0.269-5.747-0.705-10.101,0.082C108.722,849.303,105.705,843.842,100.615,849.908z"/>
<path id="am" d="M160.907,686.949c4.233,0.648-1.628,4.557-0.976,1.626C159.931,687.924,160.582,687.598,160.907,686.949
	 M139.095,730.898c0,0,0,0,0.325,0h0.326l0,0l0,0c0.324,0,0.324,0,0.324,0s0,0,0.326,0l0,0l0,0l0,0h0.325l0,0l0,0l0,0l0,0
	c0.65,0,1.302,0.325,1.954,0.325l0,0l0,0c0.325,0,0.325,0,0.651,0l0,0c0,0,0.324,0,0.324,0.327l0,0l0,0c0.326,0,0.326,0,0.326,0
	c0.325,0,0.325,0,0.325,0l0,0h0.326l0,0l0,0c0,0.326,0.324,0.326,0.324,0.326h0.326l0,0c0.325,0,0.325,0,0.325,0l0,0l0,0l0,0
	c0.326,0.324,0.326,0.324,0.326,0.324l0,0l0,0h0.326l0,0l0,0l0,0c0,0,0,0,0.324,0c0,0,0,0,0.326,0.324l0,0l0,0c0,0,0,0,0.325,0l0,0
	l0,0l0,0c0.327,0,0.327,0,0.327,0v0.328l0,0c0.325,0,0.325,0,0.325,0l0,0h0.326l0,0c0,0,0.325,0,0.325,0.324l0,0c0,0,0,0,0.326,0
	l0,0l0,0l0,0c0.325,0,0.325,0,0.325,0c0,0.325,0.325,0.325,0.325,0.325l0,0h0.326l0,0l0,0c0.324,0.325,0.324,0.325,0.324,0.325l0,0
	h0.327l0,0l0,0c1.302,0.652,2.278,0.977,3.255,1.302l0,0c0.325,0.327,0.325,0.327,0.325,0.327l0,0c0.325,0,0.651,0,0.651,0.328
	c0,0,0,0,0.325,0c0.326,0.324,0.65,0.324,1.303,0.649c1.953-2.606,3.255-6.513,6.185-7.163c8.141-1.953,5.211,9.766,8.465,5.858
	c0.651-0.649,0-2.604,0.978-2.929c2.604-0.324,4.883,2.279,7.488,1.627l6.512-7.487c6.185-3.581,4.883,7.487,5.534,7.487
	c2.28,0.326,4.884-0.325,7.488,0c0.325,0,1.302,0.326,1.302,0.652c0.326,1.305-0.651,2.605,0,3.581c0,0,8.791,6.837,11.395,8.791
	c0.652-0.978,1.628-2.604,4.559-4.559c1.628-1.302,4.883,0.325,6.187-1.302c0,0,0.325-1.302,0.651-2.931
	c-0.326,1.304-0.326,2.278-0.651,2.931l-0.326-0.652c-2.604-2.278-2.28-6.837-5.21-8.463c-0.976-0.653-3.905,0.648-3.905-1.63
	c0-0.649,0.324-0.976,0.65-1.302c1.302-0.977,4.883-0.977,4.883-2.604c-0.324-6.512-10.742,0.325-10.742-4.883
	c-0.325-3.583,4.558-2.605,2.604-7.164c-1.627-2.929-8.79,3.581-10.744,3.581c-5.858,0.327-12.371-5.857-18.557-6.185
	c-1.953,0-3.907,1.302-6.187,0.977c-0.65,0,0-1.302,0.325-1.626c1.954-1.955,5.21-2.279,7.163-3.906
	c0.978-0.652,0.326-8.791-0.325-9.769c-0.65-1.629-20.186-0.325-25.395-7.164c-2.93-3.906,7.489-9.114,2.93-11.393
	c-2.279-0.978-4.883,0-7.162-0.978c-0.65-0.324,0.326-2.932-0.65-2.932c-2.279,0.326-10.094,4.559-11.722,3.258
	c-1.628-1.63,7.814-5.535,0-5.535c-1.302,0-1.952,1.626-2.93,1.301c-1.302-0.325-1.627-1.954-2.604-2.928
	c-0.325,0.649-0.651,1.627-1.304,1.951c-1.303,0.651-5.209,1.302-3.906,1.953c0.65,0.326,2.93,0.65,2.278,1.303
	c-5.534,3.908-14.651,5.21-19.208,9.441c-6.186,4.885-10.744,11.07-18.557,14.979l-0.326,0.324c0-0.324-0.324-0.652-0.324-0.978
	c0.65,0.978,0.324,2.604,1.302,3.581c2.604,2.279,12.696,1.627,14.649,10.094c0.977,4.558-1.953,12.047,1.628,15.953
	c1.954,1.953,4.883,2.604,6.185,4.883c0.652,0.652-1.952,2.931-0.976,2.931C126.723,737.086,131.606,731.224,139.095,730.898
	L139.095,730.898z M138.769,678.81c0.651,0.325,1.302,0.325,1.628,0.649C141.048,681.088,134.862,681.088,138.769,678.81z"/>
<path id="hr" d="M204.209,634.537l-0.429-1.501c-2.57-4.286-6.643-2.784-11.356-6.427c-1.285-1.073-1.714-3.001-3.215-3.43
	c-0.856-0.428-1.929,0.429-3,0.643c0.429,0.214,0.643,0.214,1.071,0.428c0.429,0.216,0.857,1.5,0.429,1.5
	c-3.429-0.214-5.999-3.428-9.429-3.857c-1.5-0.213-3.214,0.216-4.714,0c-0.429,0-0.856-1.07-1.07-0.856
	c-0.43,0.216-0.43,1.286,0,1.5c1.285,0.43,2.785-0.214,4.284,0c1.286,0.216,2.786,0.644,4.286,1.5
	c0.43,0.214,0.215,1.072,0.644,1.286c7.285,3.857,5.785-2.356,17.143,6.643C200.354,633.036,202.281,634.109,204.209,634.537
	L204.209,634.537z M207.853,565.751c-1.929-2.144,1.286-1.073,2.143-2.57c0.215-0.216,0.215-0.644,0-0.859
	c-2.786-2.786-0.856-3.856-0.642-6.643c0.214-1.071,5.57,3.216,4.928-1.071c-3.001,0-6.429-0.856-9-2.572
	c-1.072-0.857,0.856-1.285,0.856-1.5c0-0.641-2.143-1.07-0.856-2.356c0.214-0.214,1.714,1.072,1.928-0.214
	c0.215-2.357-4.285,0.429-4.285-1.715c0.429-4.928,1.285-3.643-2.356-8.785l-0.214-0.428c-0.644,0.213-1.287,0.213-2.358,0.428
	c-1.5,0-1.715,3-2.143,3.429c-2.785,2.357-12.214,2.571-15.215,1.284c-1.5-0.643-2.785-2.143-4.5-2.784
	c-0.428-0.216-4.714,0.429-5.356-0.429c-4.5-5.785-9.429-8.357-15.215-13.071c-1.5-0.214-5.144-1.071-6-0.856
	c-2.357,0.428,0.856,3.428-0.429,4.284c-1.071,0.43-2.357-0.214-3.429,0.216c-0.429,0.214,0.215,1.07-0.214,1.498
	c-2.143,1.715-5.572,1.93-7.715,3.858c-2.571,2.356,4.715,8.357,1.5,10.714c-7.499,5.357-2.785-3.643-7.714,3.428
	c-0.644,0.859,1.929,1.072,2.357,2.143c0.429,0.857-2.143,0.644-2.143,1.502c0,0.428,2.143,3.215,1.285,4.285
	c-2.357,2.356-5.786-1.286-7.929-1.286c-3.213,0,3,2.999-2.356,1.5c-1.5-0.429-3.43-2.785-4.072-4.071
	c-0.429-0.428-0.857-1.715-1.071-1.286c-0.857,1.286-0.643,2.786-1.5,3.857c-2.785,3.643-6.643,0-9.856,1.071
	c-0.43,0.215,0.429,1.071,0,1.501c-1.929,1.07-5.786,0.856-7.715,0c-0.644,0-1.929-0.644-1.929,0c0.214,1.714,1.714,3,2.357,4.5
	c0,0.214-0.429,0.214-0.429,0.43c0.214,1.714-0.215,3.427,0.643,4.714c0,0,0.214,0,0.214,0.213
	c-0.856,1.285,2.572,2.785,3.644,4.287c0.857,1.284,1.5,6.857,2.571,5.57c1.072-1.286,1.714-3,2.571-4.5
	c0.214-0.643,0.429-1.285,0.429-1.93c0-0.213-0.643,0-0.643-0.428c0-0.215,0-1.072,0.214-0.856c0.857,0.214,0.214,5.144,2.571,1.284
	c0.429-1.07,0.429-2.143,0.429-3.428c0-0.213-0.429-0.429-0.429-0.856c0-0.216,0.215,0.644,0.429,0.428
	c1.715-0.856,0.214-6.644,2.144-6.644c6.213-0.428,4.071,1.93,7.929,5.144c0.857,0.644,2.143,0,2.785,0.644
	c3.857,4.5-0.643,10.072,3.643,14.786c1.286,1.5,4.93,4.714,6.43,5.784c1.714,0.859,7.071,1.717,5.355,2.357
	c-2.999,0.858-8.571-5.355-7.713,2.787c0.214,2.571,10.071,8.143,11.571,10.071c0.428,0.214-1.714-0.644-1.285-0.429
	c1.285,0.857,6.855,2.572,7.07,3.213c0.429,1.5-0.856,3.857,0.215,5.144c0.643,0.429,7.285-1.928,7.5-2.144
	c4.286-0.856,1.285,0.857,6.643,2.787c1.715,0.429,3.643-0.215,5.356,0.429c2.358,0.856,3.858,4.714,6.43,6.001
	c2.999,1.284,4.929,2.141,5.785,2.999c0,0.214,0.215,0,0.215,0c0.429,0,0.856-0.429,1.071,0c0.857,1.5-0.428,1.5,1.5,2.357
	c0.643-0.644,2.143-0.644,2.357-1.501c1.07-2.785-8.144-6.429-9-7.929c-0.857-1.284-0.215-3.214-1.072-4.5
	c-0.643-0.856-2.143-0.644-3.213-1.071c-4.502-2.785-7.287-7.929-11.144-11.143c-1.286-0.857-6.215-5.786-7.714-6.43
	c-0.644-0.213-1.5,0.644-2.144,0.216c-1.071-1.072,1.5-3.43,1.5-3.856c-0.215-0.857-1.285-1.073-1.929-1.716
	c-1.714-2.571-2.357-6.001-4.715-8.142c-0.856-1.072-2.571-1.072-3.642-1.93c-0.857-0.643-2.357-13.072,2.356-12.857
	c2.143,0,5.786,4.715,7.714,5.787l1.715-0.216l-1.715,0.216c2.572-0.216,2.144-4.287,3.429-6.002c2.357-2.785,3.429,0.645,6.429,0
	c0.857-0.215,0.857-1.928,1.715-2.571c0,0,1.285,1.286,4.929,2.356c0.429,0.215,1.071,0.43,1.714,0.215
	c0.429,0,0.643-0.857,1.286-1.07c2.571-0.215,8.356,3,11.143,2.572c0.643,0,1.286-0.43,1.5-1.073
	c0.643-0.429,0.428-1.927,1.285-1.927c1.286-0.216,2.143,1.07,3.429,1.498c2.357,0.645-0.428-1.07,0.858-1.498
	c1.285-0.43,2.785-0.43,4.07,0c0.857,0.213,1.5,1.498,2.357,1.498c0.643,0,0-1.498,0.643-1.498c4.929,0.213,3.644,5.57,6,6
	C205.496,566.607,206.782,566.179,207.853,565.751L207.853,565.751z"/>
<path id="bg" d="M185.539,185.528c-0.881-0.177-1.762-0.177-2.29-0.177c-6.87,1.41,4.228,6.342,0.353,9.335
	c0,0-5.461,1.763-5.638,1.763c-2.465,0.88-6.517,4.051-9.158,3.875c-0.529,0-0.177-0.881-0.529-1.057
	c-1.761-0.88-4.05-1.938-5.988-1.409c-0.704,0.176-0.704,1.585-1.409,1.762c-0.528,0.175-0.881-1.057-1.409-1.233
	c-0.352-0.178-0.881,0.528-1.057,0.176c-1.232-0.705-1.585-2.644-2.995-2.819c-1.057-0.352-1.585,1.41-2.642,1.585
	c-0.704,0.353-1.585-1.057-2.113-0.705c-3.171,1.938-4.404,4.051-9.335,5.812c-2.115,0.705-4.757,0-6.694,1.233
	c-0.704,0.352-0.704,1.762-1.409,2.115c-0.528,0.527-1.409,0-2.114,0c-0.704,0-1.585,0-2.289,0c-0.177,0.175,0,0.527,0,0.527
	c0.352-1.056,0-10.215-0.177-10.215c-1.232-1.233-3.17-4.756-4.756-5.812c-0.88-0.529-2.113,0-3.17-0.529
	c-0.353-0.176-5.108-3.876-5.108-4.228c0.881-1.586,3.347-1.938,2.466-4.228c-0.176-0.704-0.704-1.057-1.232-1.409
	c-0.353-0.177-0.881,0.176-1.058-0.177c-0.176-0.88,0-1.761,0-2.642c-0.176-1.057-1.409-2.113-0.881-2.995
	c5.109-8.454-0.704,1.938,4.933-2.466c0.528-0.529,4.227-7.045,3.171-8.102c-1.41-1.058-8.104-4.228-8.455-4.579
	c-2.114-1.762-5.46-9.16-4.228-11.802c0.528-1.233,2.466-1.057,3.17-2.115c0.529-1.233-0.176-2.817,0.353-4.05
	c2.29,1.057,5.108,1.762,6.342,2.466c1.585,0.705-5.108,4.579-2.114,5.813c4.227,1.761,5.46-1.409,9.336-1.762
	c4.932-0.528,10.744,2.291,15.677,0.529c1.057-0.353,1.408-1.761,2.466-2.113c2.642-0.882,5.637-0.705,8.455-0.529
	c3.522,0.176,6.165,1.585,9.688-0.528c3.875-2.466,4.403-6.165,7.397-9.16c2.643-2.642,8.808-5.46,12.154-6.869
	c7.927-2.995,5.461,1.233,8.455,0.881c1.409-0.177,2.466-1.761,3.874-1.761c4.58-0.176-1.057,3.346,3.172,1.056
	c0.528-0.176,0.881-0.88,1.408-1.056c1.058-0.529,1.233,1.937,2.114,2.642c2.643,2.29,7.222,0.704,10.04,0.176h0.353
	c0.704,4.404,1.057,8.455-0.176,9.16c-0.705,0.351-1.586-0.88-2.467-0.705c-6.517,1.762-2.289,1.586-4.227,5.461
	c-0.177,0.704-1.41,0.704-1.763,1.233c0,0.352,1.058,0.176,1.058,0.528c0.353,2.818,0.177,4.579,0.88,7.396
	c0.177,1.058,1.233,2.466,0.705,3.348c-0.528,0.882-2.113,0.353-2.995,0.882c-0.175,0,0.53,0.351,0.53,0.527
	c-0.354,0.704-1.234,0.881-1.411,1.585c-0.175,0.529,0.881,1.056,0.529,1.409c-0.704,1.057-2.29,1.408-2.994,2.466
	c-3.171,4.228,4.58-2.113,6.518,2.642c0.176,0.353-0.353,0.882-0.353,1.233c0.176,0.177,4.051,2.466,4.932,3.17
	c0.528,0.705,1.058,1.233,1.233,1.763h-0.353c-1.057,0.176-2.113,0-3.171,0.352c-1.408,0.528-2.466,1.762-3.698,2.642
	c-0.353,0.176,0,0.88-0.176,0.705c-4.052-0.88-5.285-4.051-9.337-1.938l-2.994,3.346c-1.232,0.528-2.817-0.352-3.699,0.528
	c-1.057,0.881,0,2.644-0.704,3.701C187.476,183.414,183.953,182.886,185.539,185.528L185.539,185.528z"/>
<text transform="matrix(1 0 0 1 133.4253 167.0205)" fill="#FFFFFF" font-family="'OpenSans-Extrabold'" font-size="10.7427">BULGARIA</text>
<rect x="255.536" y="136.471" width="419.273" height="20.983"/>
<text transform="matrix(1 0 0 1 586.3008 149.416)" font-family="'OpenSans-Bold'" font-size="7.6734">€ 1,705,000 INVESTED</text>
<circle stroke="#000000" stroke-miterlimit="10" cx="258.624" cy="170.569" r="3.548"/>
<circle stroke="#000000" stroke-miterlimit="10" cx="269.366" cy="170.569" r="3.548"/>
<circle stroke="#000000" stroke-miterlimit="10" cx="280.109" cy="170.569" r="3.549"/>
<circle stroke="#000000" stroke-miterlimit="10" cx="290.852" cy="170.569" r="3.548"/>
<circle stroke="#000000" stroke-miterlimit="10" cx="301.595" cy="170.569" r="3.548"/>
<circle stroke="#000000" stroke-miterlimit="10" cx="258.624" cy="179.778" r="3.548"/>
<circle stroke="#000000" stroke-miterlimit="10" cx="269.366" cy="179.778" r="3.548"/>
<circle stroke="#000000" stroke-miterlimit="10" cx="280.109" cy="179.778" r="3.549"/>
<circle stroke="#000000" stroke-miterlimit="10" cx="290.852" cy="179.778" r="3.548"/>
<circle stroke="#000000" stroke-miterlimit="10" cx="301.595" cy="179.778" r="3.548"/>
<circle stroke="#000000" stroke-miterlimit="10" cx="312.337" cy="170.569" r="3.548"/>
<circle stroke="#000000" stroke-miterlimit="10" cx="323.08" cy="170.569" r="3.548"/>
<circle stroke="#000000" stroke-miterlimit="10" cx="333.822" cy="170.569" r="3.548"/>
<circle stroke="#000000" stroke-miterlimit="10" cx="344.565" cy="170.569" r="3.548"/>
<circle stroke="#000000" stroke-miterlimit="10" cx="355.308" cy="170.569" r="3.549"/>
<circle stroke="#000000" stroke-miterlimit="10" cx="312.337" cy="179.778" r="3.548"/>
<circle stroke="#000000" stroke-miterlimit="10" cx="323.08" cy="179.778" r="3.548"/>
<circle stroke="#000000" stroke-miterlimit="10" cx="333.822" cy="179.778" r="3.548"/>
<circle stroke="#000000" stroke-miterlimit="10" cx="344.565" cy="179.778" r="3.548"/>
<circle stroke="#000000" stroke-miterlimit="10" cx="355.308" cy="179.778" r="3.549"/>
<circle stroke="#000000" stroke-miterlimit="10" cx="366.051" cy="170.569" r="3.548"/>
<circle stroke="#000000" stroke-miterlimit="10" cx="376.793" cy="170.569" r="3.548"/>
<circle stroke="#000000" stroke-miterlimit="10" cx="387.536" cy="170.569" r="3.548"/>
<circle stroke="#000000" stroke-miterlimit="10" cx="398.279" cy="170.569" r="3.549"/>
<circle stroke="#000000" stroke-miterlimit="10" cx="409.021" cy="170.569" r="3.549"/>
<circle stroke="#000000" stroke-miterlimit="10" cx="366.051" cy="179.778" r="3.548"/>
<circle stroke="#000000" stroke-miterlimit="10" cx="376.793" cy="179.778" r="3.548"/>
<circle stroke="#000000" stroke-miterlimit="10" cx="387.536" cy="179.778" r="3.548"/>
<circle stroke="#000000" stroke-miterlimit="10" cx="398.279" cy="179.778" r="3.549"/>
<circle stroke="#000000" stroke-miterlimit="10" cx="409.021" cy="179.778" r="3.549"/>
<circle stroke="#000000" stroke-miterlimit="10" cx="419.765" cy="170.569" r="3.548"/>
<circle stroke="#000000" stroke-miterlimit="10" cx="430.508" cy="170.569" r="3.549"/>
<circle stroke="#000000" stroke-miterlimit="10" cx="441.25" cy="170.569" r="3.549"/>
<circle stroke="#000000" stroke-miterlimit="10" cx="451.992" cy="170.569" r="3.549"/>
<circle stroke="#000000" stroke-miterlimit="10" cx="462.734" cy="170.569" r="3.549"/>
<circle stroke="#000000" stroke-miterlimit="10" cx="419.765" cy="179.778" r="3.548"/>
<circle stroke="#000000" stroke-miterlimit="10" cx="430.508" cy="179.778" r="3.549"/>
<circle stroke="#000000" stroke-miterlimit="10" cx="441.25" cy="179.778" r="3.549"/>
<circle stroke="#000000" stroke-miterlimit="10" cx="451.992" cy="179.778" r="3.549"/>
<circle stroke="#000000" stroke-miterlimit="10" cx="462.734" cy="179.778" r="3.549"/>
<circle stroke="#000000" stroke-miterlimit="10" cx="473.478" cy="170.569" r="3.548"/>
<circle stroke="#000000" stroke-miterlimit="10" cx="484.221" cy="170.569" r="3.549"/>
<circle stroke="#000000" stroke-miterlimit="10" cx="494.963" cy="170.569" r="3.549"/>
<circle stroke="#000000" stroke-miterlimit="10" cx="505.706" cy="170.569" r="3.548"/>
<circle stroke="#000000" stroke-miterlimit="10" cx="516.448" cy="170.569" r="3.548"/>
<circle stroke="#000000" stroke-miterlimit="10" cx="473.478" cy="179.778" r="3.548"/>
<circle stroke="#000000" stroke-miterlimit="10" cx="484.221" cy="179.778" r="3.549"/>
<circle stroke="#000000" stroke-miterlimit="10" cx="494.963" cy="179.778" r="3.549"/>
<circle stroke="#000000" stroke-miterlimit="10" cx="505.706" cy="179.778" r="3.548"/>
<circle stroke="#000000" stroke-miterlimit="10" cx="516.448" cy="179.778" r="3.548"/>
<circle stroke="#000000" stroke-miterlimit="10" cx="527.191" cy="170.569" r="3.549"/>
<circle stroke="#000000" stroke-miterlimit="10" cx="537.934" cy="170.569" r="3.549"/>
<circle stroke="#000000" stroke-miterlimit="10" cx="548.677" cy="170.569" r="3.548"/>
<circle stroke="#000000" stroke-miterlimit="10" cx="559.42" cy="170.569" r="3.549"/>
<circle stroke="#000000" stroke-miterlimit="10" cx="570.162" cy="170.569" r="3.549"/>
<circle stroke="#000000" stroke-miterlimit="10" cx="527.191" cy="179.778" r="3.549"/>
<circle stroke="#000000" stroke-miterlimit="10" cx="537.934" cy="179.778" r="3.549"/>
<circle stroke="#000000" stroke-miterlimit="10" cx="548.677" cy="179.778" r="3.548"/>
<circle stroke="#000000" stroke-miterlimit="10" cx="559.42" cy="179.778" r="3.549"/>
<circle stroke="#000000" stroke-miterlimit="10" cx="570.162" cy="179.778" r="3.549"/>
<circle stroke="#000000" stroke-miterlimit="10" cx="258.777" cy="189.6" r="3.548"/>
<circle stroke="#000000" stroke-miterlimit="10" cx="269.52" cy="189.6" r="3.549"/>
<circle stroke="#000000" stroke-miterlimit="10" cx="280.263" cy="189.6" r="3.548"/>
<circle fill="none" stroke="#000000" stroke-miterlimit="10" cx="291.005" cy="189.6" r="3.549"/>
<circle fill="none" stroke="#000000" stroke-miterlimit="10" cx="301.748" cy="189.6" r="3.548"/>
<circle fill="none" stroke="#000000" stroke-miterlimit="10" cx="258.777" cy="198.808" r="3.548"/>
<circle fill="none" stroke="#000000" stroke-miterlimit="10" cx="269.52" cy="198.808" r="3.549"/>
<circle fill="none" stroke="#000000" stroke-miterlimit="10" cx="280.263" cy="198.808" r="3.548"/>
<circle fill="none" stroke="#000000" stroke-miterlimit="10" cx="291.005" cy="198.808" r="3.549"/>
<circle fill="none" stroke="#000000" stroke-miterlimit="10" cx="301.748" cy="198.808" r="3.548"/>
<circle fill="none" stroke="#000000" stroke-miterlimit="10" cx="312.49" cy="189.6" r="3.548"/>
<circle fill="none" stroke="#000000" stroke-miterlimit="10" cx="323.233" cy="189.6" r="3.548"/>
<circle fill="none" stroke="#000000" stroke-miterlimit="10" cx="333.976" cy="189.6" r="3.549"/>
<circle fill="none" stroke="#000000" stroke-miterlimit="10" cx="344.719" cy="189.6" r="3.548"/>
<circle fill="none" stroke="#000000" stroke-miterlimit="10" cx="355.461" cy="189.6" r="3.549"/>
<circle fill="none" stroke="#000000" stroke-miterlimit="10" cx="312.49" cy="198.808" r="3.548"/>
<circle fill="none" stroke="#000000" stroke-miterlimit="10" cx="323.233" cy="198.808" r="3.548"/>
<circle fill="none" stroke="#000000" stroke-miterlimit="10" cx="333.976" cy="198.808" r="3.549"/>
<circle fill="none" stroke="#000000" stroke-miterlimit="10" cx="344.719" cy="198.808" r="3.548"/>
<circle fill="none" stroke="#000000" stroke-miterlimit="10" cx="355.461" cy="198.808" r="3.549"/>
<circle fill="none" stroke="#000000" stroke-miterlimit="10" cx="366.204" cy="189.6" r="3.548"/>
<circle fill="none" stroke="#000000" stroke-miterlimit="10" cx="376.947" cy="189.6" r="3.549"/>
<circle fill="none" stroke="#000000" stroke-miterlimit="10" cx="387.69" cy="189.6" r="3.549"/>
<circle fill="none" stroke="#000000" stroke-miterlimit="10" cx="398.433" cy="189.6" r="3.548"/>
<circle fill="none" stroke="#000000" stroke-miterlimit="10" cx="409.175" cy="189.6" r="3.548"/>
<circle fill="none" stroke="#000000" stroke-miterlimit="10" cx="366.204" cy="198.808" r="3.548"/>
<circle fill="none" stroke="#000000" stroke-miterlimit="10" cx="376.947" cy="198.808" r="3.549"/>
<circle fill="none" stroke="#000000" stroke-miterlimit="10" cx="387.69" cy="198.808" r="3.549"/>
<circle fill="none" stroke="#000000" stroke-miterlimit="10" cx="398.433" cy="198.808" r="3.548"/>
<circle fill="none" stroke="#000000" stroke-miterlimit="10" cx="409.175" cy="198.808" r="3.548"/>
<circle fill="none" stroke="#000000" stroke-miterlimit="10" cx="419.918" cy="189.6" r="3.549"/>
<circle fill="none" stroke="#000000" stroke-miterlimit="10" cx="430.66" cy="189.6" r="3.549"/>
<circle fill="none" stroke="#000000" stroke-miterlimit="10" cx="441.402" cy="189.6" r="3.549"/>
<circle fill="none" stroke="#000000" stroke-miterlimit="10" cx="452.146" cy="189.6" r="3.548"/>
<circle fill="none" stroke="#000000" stroke-miterlimit="10" cx="462.889" cy="189.6" r="3.549"/>
<circle fill="none" stroke="#000000" stroke-miterlimit="10" cx="419.918" cy="198.808" r="3.549"/>
<circle fill="none" stroke="#000000" stroke-miterlimit="10" cx="430.66" cy="198.808" r="3.549"/>
<circle fill="none" stroke="#000000" stroke-miterlimit="10" cx="441.402" cy="198.808" r="3.549"/>
<circle fill="none" stroke="#000000" stroke-miterlimit="10" cx="452.146" cy="198.808" r="3.548"/>
<circle fill="none" stroke="#000000" stroke-miterlimit="10" cx="462.889" cy="198.808" r="3.549"/>
<circle fill="none" stroke="#000000" stroke-miterlimit="10" cx="473.631" cy="189.6" r="3.549"/>
<circle fill="none" stroke="#000000" stroke-miterlimit="10" cx="484.373" cy="189.6" r="3.549"/>
<circle fill="none" stroke="#000000" stroke-miterlimit="10" cx="495.116" cy="189.6" r="3.548"/>
<circle fill="none" stroke="#000000" stroke-miterlimit="10" cx="505.859" cy="189.6" r="3.549"/>
<circle fill="none" stroke="#000000" stroke-miterlimit="10" cx="516.602" cy="189.6" r="3.549"/>
<circle fill="none" stroke="#000000" stroke-miterlimit="10" cx="473.631" cy="198.808" r="3.549"/>
<circle fill="none" stroke="#000000" stroke-miterlimit="10" cx="484.373" cy="198.808" r="3.549"/>
<circle fill="none" stroke="#000000" stroke-miterlimit="10" cx="495.116" cy="198.808" r="3.548"/>
<circle fill="none" stroke="#000000" stroke-miterlimit="10" cx="505.859" cy="198.808" r="3.549"/>
<circle fill="none" stroke="#000000" stroke-miterlimit="10" cx="516.602" cy="198.808" r="3.549"/>
<circle fill="none" stroke="#000000" stroke-miterlimit="10" cx="527.345" cy="189.6" r="3.548"/>
<circle fill="none" stroke="#000000" stroke-miterlimit="10" cx="538.087" cy="189.6" r="3.548"/>
<circle fill="none" stroke="#000000" stroke-miterlimit="10" cx="548.83" cy="189.6" r="3.549"/>
<circle fill="none" stroke="#000000" stroke-miterlimit="10" cx="559.572" cy="189.6" r="3.549"/>
<circle fill="none" stroke="#000000" stroke-miterlimit="10" cx="570.315" cy="189.6" r="3.548"/>
<circle fill="none" stroke="#000000" stroke-miterlimit="10" cx="527.345" cy="198.808" r="3.548"/>
<circle fill="none" stroke="#000000" stroke-miterlimit="10" cx="538.087" cy="198.808" r="3.548"/>
<circle fill="none" stroke="#000000" stroke-miterlimit="10" cx="548.83" cy="198.808" r="3.549"/>
<circle fill="none" stroke="#000000" stroke-miterlimit="10" cx="559.572" cy="198.808" r="3.549"/>
<circle fill="none" stroke="#000000" stroke-miterlimit="10" cx="570.315" cy="198.808" r="3.548"/>
<text transform="matrix(1 0 0 1 584.5605 183.0186)"><tspan x="0" y="0" font-family="'OpenSans-Bold'" font-size="7.6734">63</tspan><tspan x="8.76" y="0" font-family="'OpenSans-Bold'" font-size="7.6734">	</tspan><tspan x="11.049" y="0" font-family="'OpenSans-Bold'" font-size="7.6734"> FOUNDERS</tspan><tspan x="0" y="9.208" font-family="'OpenSans-Bold'" font-size="7.6734">120</tspan><tspan x="13.139" y="9.208" font-family="'OpenSans-Bold'" font-size="7.6734" letter-spacing="1">	</tspan><tspan x="16.574" y="9.208" font-family="'OpenSans-Bold'" font-size="7.6734"> JOBS CREATED</tspan></text>
<text transform="matrix(1 0 0 1 256.2349 126.9346)" font-family="'OpenSans-Light'" font-size="21.239">30 TEAMS</text>
<g id="g3320">
	<path id="cs" d="M147.529,345.017c3.667,0,2.979,5.729,5.041,6.874c0.688,0.459,1.374-0.457,2.29-0.229
		c1.604,0.457,3.207,1.145,4.354,2.291c2.978,3.206,2.52,6.643,1.832,9.851l0,0h0.688c5.726,3.893,2.52-5.727,3.894-6.645
		c2.52-1.603,5.27-3.664,8.247-3.893c1.146,0,3.206,2.748,3.665,1.603c0.229-0.916-0.688-1.832-0.459-2.519
		c2.063-5.042,3.896-2.063,8.248-2.75c3.665-0.686,10.995-7.787,13.974-5.039c1.145-2.063,4.353-2.52,3.207-5.498
		c-0.229-0.916-0.916-1.375-1.604-1.833c-0.459-0.229-1.146,0.229-1.375-0.229c-0.229-1.145,0-2.29,0-3.436
		c-0.229-1.374-1.832-2.748-1.146-3.893c6.644-10.997-0.916,2.52,6.415-3.208c0.687-0.688,5.498-9.163,4.122-10.538
		c-1.832-1.374-10.537-5.497-10.995-5.956c-2.748-2.291-7.101-11.913-5.497-15.348c0.688-1.604,3.207-1.375,4.123-2.75
		c0.688-1.602-0.229-3.665,0.458-5.268c-3.207-1.375-6.185-3.436-5.727-6.643c0.229-2.062,7.788-2.291,5.498-3.436
		c-24.282-12.143-2.52-1.146-12.37,4.581c-1.604,1.144-2.521-2.977-4.124-3.665c-1.146-0.688-2.749,0-3.895,0
		c-1.374,0-2.749,0.688-4.123,0.229c-0.688-0.459-0.229-1.604-0.688-2.521c-1.145-2.289-10.995,1.377-5.498-2.519
		c1.374-0.916,4.812-1.833,3.666-2.749c-1.146-0.688-3.437,0-3.895-1.373c-0.229-1.375,4.582-3.896,1.374-5.729
		c-4.352-2.519-13.057-1.373-16.034-6.643c-0.688-1.146-0.688-6.643-0.688-8.018c0-0.228,0-0.457,0-0.457
		c-0.688,0.229-1.146,1.604-1.604,1.145c-1.604-0.916-1.832-3.436-3.207-4.583c-1.374-0.916-3.437-0.688-4.811-1.832
		c-1.374-0.688-2.062-2.291-2.979-3.436c-1.146,0-2.291-1.146-3.436-1.146c-0.229,0-6.185,1.834-6.414,1.834
		c-3.895-0.23,0.458-3.666-4.811-0.23c-2.52,1.375-3.895,4.123-5.957,5.729c-2.061,1.604-2.978-0.689-3.665,0
		c-2.978,3.436-3.207,3.665-5.039,3.665l0.229,0.458c3.895,5.497,2.979,4.123,2.521,9.391c0,2.291,4.811-0.686,4.581,1.834
		c-0.229,1.373-1.833,0-2.062,0.229c-1.374,1.374,0.917,1.833,0.917,2.52c0,0.229-2.063,0.688-0.917,1.604
		c2.749,1.832,6.414,2.75,9.621,2.75c0.688,4.581-5.039,0-5.268,1.145c-0.229,2.977-2.292,4.123,0.687,7.1
		c0.229,0.23,0.229,0.689,0,0.918c-0.916,1.604-4.354,0.459-2.291,2.748c2.291-0.687,4.124-2.061,6.644-1.832
		c0,7.102-4.123,11.912-3.437,16.265c0.917,5.039,2.29,1.375,5.498,2.749c2.062,0.917,2.52,3.894,4.582,5.04
		c0.687,0.229,2.978-0.459,2.29,1.604c-1.374,4.582-7.102-0.459-8.247,1.145c0,0,10.309,9.622,7.56,12.6
		c-0.916,0.687-2.062-1.604-3.206-1.146c-1.375,0.458-1.604,2.291-2.521,3.438l1.339,1.167c0.656,0.208,1.229-0.964,1.873-1.025
		c0.823,0.313,1.646,1.179,2.417,2.401c0.849,0.743,2.018,2.232,2.821,3.195c0.381,0.826,0.482,1.792,0.662,2.628
		c0.173,0.854,0.415,1.597,1.045,2.023c0.468,0.372,0.988,0.467,1.531,0.582c0.67,0.116,1.345,0.282,1.933,1.06l2.345-1.626
		c0.761,1.025,2.239,1.19,2.568,2.549c0.073,0.328,2.395,0.646,2.401,0.966c0.005,0.177,2.295-0.417,2.275-0.252
		c-0.082,1.421-0.613-0.743,0.361,0.248c0.295,0.878,1.712-0.281,1.441,0.622c-0.094,0.353,0.904,0.147,0.885,0.554
		c0.869,0.768,0.896-0.575,0.818,2.625c-0.961,0.194-1.134,0.438-1.618,0.734c-0.484,0.307-0.427,0.63-0.947,0.713
		c-0.511,0.095-0.679,0.345-1.099,0.416c-0.415,0.069-1.035,0.172-1.371,0.675c-0.342,0.495-0.03,0.443-0.739,0.674
		c-0.698,0.232-1.058,0.067-1.195,0.53c-0.13,0.47-0.138,0.568-0.138,0.568s-0.124,0.463,0.027,0.771
		c0.167,0.308,1.037,0.424,1.205,0.732c0.15,0.309,0.169,0.416,0.46,0.804c0.278,0.408,0.441,0.715,0.441,0.715L147.529,345.017
		L147.529,345.017z"/>
	<path id="path2759" d="M168.212,329.428c-0.604-0.008-1.018,0.188-1.108,0.638c-0.466,2.327-13.783,5.486-14.602,5.68
		c0,0.331-0.012,0.679-0.027,1.33c-0.961,0.194-1.122,0.45-1.606,0.748c-0.484,0.307-0.423,0.61-0.942,0.693
		c-0.512,0.095-0.687,0.344-1.108,0.416c-0.415,0.068-1.021,0.187-1.357,0.693c-0.342,0.496-0.039,0.433-0.749,0.665
		c-0.697,0.23-1.055,0.064-1.19,0.526c-0.131,0.468-0.139,0.582-0.139,0.582s-0.123,0.468,0.027,0.776
		c0.166,0.309,1.024,0.411,1.191,0.721c0.151,0.308,0.18,0.414,0.471,0.803c0.278,0.409,0.443,0.721,0.443,0.721v0.609
		c3.666,0,2.981,5.725,5.043,6.872c0.688,0.457,1.384-0.48,2.3-0.25c1.604,0.457,3.204,1.153,4.351,2.3
		c2.978,3.207,2.516,6.657,1.828,9.863h0.692c5.728,3.893,2.533-5.733,3.907-6.649c2.52-1.604,5.251-3.678,8.229-3.907
		c1.145,0,3.227,2.751,3.685,1.607c0.229-0.916-0.701-1.834-0.471-2.521c1.583-3.873,3.036-3.012,5.597-2.715l-0.222-0.859
		c0,0-6.243-6.728-5.764-11.526C177.082,333.342,170.833,329.466,168.212,329.428z"/>
</g>
<text transform="matrix(1 0 0 1 142.4946 305.042)" fill="#FFFFFF" font-family="'OpenSans-Extrabold'" font-size="10.7427">SERBIA</text>
<rect x="255.929" y="284.642" width="61.387" height="20.983"/>
<text transform="matrix(1 0 0 1 329.4761 297.7129)" font-family="'OpenSans-Bold'" font-size="7.6734">€ 250,000 INVESTED</text>
<circle stroke="#000000" stroke-miterlimit="10" cx="259.477" cy="318.741" r="3.548"/>
<circle stroke="#000000" stroke-miterlimit="10" cx="270.22" cy="318.741" r="3.548"/>
<circle stroke="#000000" stroke-miterlimit="10" cx="280.962" cy="318.741" r="3.549"/>
<circle stroke="#000000" stroke-miterlimit="10" cx="291.705" cy="318.741" r="3.548"/>
<circle stroke="#000000" stroke-miterlimit="10" cx="302.448" cy="318.741" r="3.548"/>
<circle fill="none" stroke="#000000" stroke-miterlimit="10" cx="259.477" cy="327.949" r="3.548"/>
<circle fill="none" stroke="#000000" stroke-miterlimit="10" cx="270.22" cy="327.949" r="3.548"/>
<circle fill="none" stroke="#000000" stroke-miterlimit="10" cx="280.962" cy="327.949" r="3.549"/>
<circle fill="none" stroke="#000000" stroke-miterlimit="10" cx="291.705" cy="327.949" r="3.548"/>
<circle fill="none" stroke="#000000" stroke-miterlimit="10" cx="302.448" cy="327.949" r="3.548"/>
<circle stroke="#000000" stroke-miterlimit="10" cx="313.19" cy="318.741" r="3.548"/>
<circle stroke="#000000" stroke-miterlimit="10" cx="323.933" cy="318.741" r="3.549"/>
<circle stroke="#000000" stroke-miterlimit="10" cx="334.676" cy="318.741" r="3.548"/>
<circle stroke="#000000" stroke-miterlimit="10" cx="345.418" cy="318.741" r="3.549"/>
<circle stroke="#000000" stroke-miterlimit="10" cx="356.161" cy="318.741" r="3.548"/>
<circle fill="none" stroke="#000000" stroke-miterlimit="10" cx="313.19" cy="327.949" r="3.548"/>
<circle fill="none" stroke="#000000" stroke-miterlimit="10" cx="323.933" cy="327.949" r="3.549"/>
<circle fill="none" stroke="#000000" stroke-miterlimit="10" cx="334.676" cy="327.949" r="3.548"/>
<circle fill="none" stroke="#000000" stroke-miterlimit="10" cx="345.418" cy="327.949" r="3.549"/>
<circle fill="none" stroke="#000000" stroke-miterlimit="10" cx="356.161" cy="327.949" r="3.548"/>
<circle fill="none" stroke="#000000" stroke-miterlimit="10" cx="366.904" cy="327.949" r="3.549"/>
<circle fill="none" stroke="#000000" stroke-miterlimit="10" cx="377.646" cy="327.949" r="3.548"/>
<text transform="matrix(1 0 0 1 393.2734 321.2144)"><tspan x="0" y="0" font-family="'OpenSans-Bold'" font-size="7.6734">10 FOUNDERS</tspan><tspan x="0" y="9.208" font-family="'OpenSans-Bold'" font-size="7.6734">22</tspan><tspan x="8.76" y="9.208" font-family="'OpenSans-Bold'" font-size="7.6734">	</tspan><tspan x="11.051" y="9.208" font-family="'OpenSans-Bold'" font-size="7.6734"> JOBS CREATED</tspan></text>
<text transform="matrix(1 0 0 1 256.0815 275.1055)" font-family="'OpenSans-Light'" font-size="21.239">3 TEAMS</text>
<path id="ro" d="M207.415,462.772c-1.908,0.358-5.008,1.432-6.796-0.119c-0.597-0.477-0.716-2.146-1.431-1.789
	c-0.358,0.119-0.597,0.596-0.954,0.715c-2.861,1.55,0.954-0.834-2.146-0.715c-0.953,0-1.669,1.073-2.623,1.192
	c-2.026,0.239-0.357-2.623-5.723-0.596c-2.266,0.954-6.438,2.862-8.227,4.65c-2.026,2.027-2.385,4.531-5.008,6.2
	c-2.384,1.43-4.172,0.477-6.557,0.357c-1.908-0.12-3.935-0.238-5.723,0.357c-0.716,0.239-0.954,1.192-1.67,1.431
	c-3.338,1.192-7.272-0.715-10.61-0.357c-2.623,0.238-3.458,2.385-6.319,1.192c-2.027-0.835,2.504-3.457,1.431-3.934
	c-1.907-0.834-7.631-2.028-7.272-5.127c0.119-1.073,4.053-1.192,2.861-1.788c-12.638-6.319-1.312-0.597-6.438,2.385
	c-0.835,0.596-1.312-1.55-2.146-1.908c-0.597-0.357-1.432,0-2.027,0c-0.716,0-1.431,0.358-2.146,0.12
	c-0.357-0.239-0.119-0.834-0.357-1.312c-0.596-1.192-5.723,0.716-2.861-1.312c0.715-0.477,2.504-0.954,1.907-1.43
	c-0.596-0.358-1.788,0-2.026-0.716c-0.119-0.714,2.385-2.027,0.715-2.98c-2.265-1.311-6.796-0.715-8.346-3.457
	c-0.357-0.597-0.357-3.458-0.357-4.173c0-0.119,0-0.238,0-0.238c-0.357,0.119-0.596,0.834-0.834,0.596
	c-0.835-0.477-0.955-1.788-1.67-2.385c-0.715-0.477-1.788-0.358-2.504-0.954c-0.715-0.358-1.072-1.192-1.55-1.789
	c0.239-0.119,0.358-0.596,0.597-0.715c0.716-0.239,4.292-0.596,4.53-1.431c0.238-0.477-1.55-1.072,0.597-1.43
	c0.834-0.12,1.669,0.715,2.384,0.477c2.265-0.835,1.55-5.126,2.146-6.438c0.238-0.358,0.836-0.358,1.074-0.715l1.311-4.174
	c0.239-0.596,0.597-1.073,0.597-1.668c0-0.239-0.597-0.239-0.597-0.477c0.12-1.074,1.432-4.412,2.027-5.365
	c0.238-0.238,0.834,0,0.834-0.358c0.596-2.265-0.238-3.934,2.385-6.438c0.835-0.955,1.789-0.358,3.101-0.834
	c1.312-0.597,1.431-2.385,2.384-3.338c0.358,0.238,1.073-0.239,1.908-2.504c0.119-0.239,0.119-0.597,0.357-0.597
	c0.357,0,3.338,1.431,3.696,1.431c0.238,0,0.357-0.596,0.596-0.715c1.55-0.596,5.484,0.955,7.392,0.478
	c1.073-0.358,1.789-1.312,2.862-1.431c1.907-0.12,3.219,2.385,4.53,2.743c1.789,0.596,2.385-2.743,2.861-3.219
	c2.146-2.265,7.631-2.027,9.3-3.696c3.219-3.1-1.431-0.477,0.834-3.458c0.597-0.715,1.55-1.312,2.505-1.55l0.119-0.357l0.477-1.074
	l0,0c-0.119,0.239-0.119,0.716-0.119,0.955c1.669-0.834,2.742-0.12,4.053,0.954c2.505,1.788,2.981,4.77,5.008,6.796
	c3.339,3.219,12.399,8.942,13.473,13.592c0.835,2.981-0.238,6.319,0.477,9.299c0.238,1.312,2.385,4.292,2.266,5.604
	c0,0.477-0.954,0.596-0.834,1.073c0.119,0.477,0.834,0.238,1.191,0.477c0.358,0.238,0.358,1.073,0.835,1.073
	c0.238,0.119,0.597-0.12,0.835,0.119c0.357,0.358,0.238,1.073,0.715,1.43c0.478,0.477,5.604,0.716,5.485,0.12
	c0-0.12-1.67-0.478-0.478-1.192c0.716-0.358,1.55-0.239,2.266-0.597c1.191-0.596,1.669-2.265,2.98-2.742
	c2.623-0.954,3.935,0,4.53,2.265c-0.119,0.12-0.477,0-0.477,0.12c0,0.357,0.238,0.596,0.477,0.715
	c0.238,0.12,0.477-0.357,0.597-0.119c0.238,0.477,0.357,4.531,0.357,5.008c-0.119,1.55-3.696,1.669-4.65,2.384
	c-0.596,0.478-0.596,2.146-1.311,2.027c-0.119-0.119,0.834-4.053-0.835-5.007c-0.597-0.239-1.312,0.715-1.669,1.312
	c-0.478,0.835,1.669,1.549,1.55,2.503c0,0.955-1.788,1.55-1.312,2.266c0.477,0.716,1.431-1.073,2.266-1.073
	c0.238-0.119-0.119,0.597-0.357,0.835c-0.12,0.119-0.239,0.238-0.478,0.357c0.119-0.119,0.238-0.119,0.357,0
	c0.716,0.597-2.146,5.247-2.146,5.365c0.12,0.834,1.192,5.008,1.789,8.823H207.415L207.415,462.772z"/>
<text transform="matrix(1 0 0 1 133.9575 443.7422)" fill="#FFFFFF" font-family="'OpenSans-Extrabold'" font-size="10.7427">ROMANIA</text>
<rect x="255.577" y="423.342" width="42.971" height="20.983"/>
<text transform="matrix(1 0 0 1 310.7085 436.4131)" font-family="'OpenSans-Bold'" font-size="7.6734">€ 175,000 INVESTED</text>
<circle stroke="#000000" stroke-miterlimit="10" cx="259.125" cy="457.441" r="3.548"/>
<circle stroke="#000000" stroke-miterlimit="10" cx="269.868" cy="457.441" r="3.548"/>
<circle stroke="#000000" stroke-miterlimit="10" cx="280.611" cy="457.441" r="3.549"/>
<circle stroke="#000000" stroke-miterlimit="10" cx="291.354" cy="457.441" r="3.548"/>
<circle stroke="#000000" stroke-miterlimit="10" cx="302.096" cy="457.441" r="3.548"/>
<circle fill="none" stroke="#000000" stroke-miterlimit="10" cx="259.125" cy="466.649" r="3.548"/>
<circle fill="none" stroke="#000000" stroke-miterlimit="10" cx="269.868" cy="466.649" r="3.548"/>
<circle fill="none" stroke="#000000" stroke-miterlimit="10" cx="280.611" cy="466.649" r="3.549"/>
<circle fill="none" stroke="#000000" stroke-miterlimit="10" cx="291.354" cy="466.649" r="3.548"/>
<circle fill="none" stroke="#000000" stroke-miterlimit="10" cx="302.096" cy="466.649" r="3.548"/>
<circle stroke="#000000" stroke-miterlimit="10" cx="312.839" cy="457.441" r="3.548"/>
<circle stroke="#000000" stroke-miterlimit="10" cx="323.582" cy="457.441" r="3.549"/>
<circle stroke="#000000" stroke-miterlimit="10" cx="334.324" cy="457.441" r="3.548"/>
<circle stroke="#000000" stroke-miterlimit="10" cx="345.067" cy="457.441" r="3.549"/>
<circle stroke="#000000" stroke-miterlimit="10" cx="355.81" cy="457.441" r="3.548"/>
<circle fill="none" stroke="#000000" stroke-miterlimit="10" cx="312.839" cy="466.649" r="3.548"/>
<circle fill="none" stroke="#000000" stroke-miterlimit="10" cx="323.582" cy="466.649" r="3.549"/>
<circle fill="none" stroke="#000000" stroke-miterlimit="10" cx="334.324" cy="466.649" r="3.548"/>
<circle fill="none" stroke="#000000" stroke-miterlimit="10" cx="345.067" cy="466.649" r="3.549"/>
<circle fill="none" stroke="#000000" stroke-miterlimit="10" cx="355.81" cy="466.649" r="3.548"/>
<circle fill="none" stroke="#000000" stroke-miterlimit="10" cx="366.552" cy="466.649" r="3.549"/>
<circle fill="none" stroke="#000000" stroke-miterlimit="10" cx="377.295" cy="466.649" r="3.548"/>
<text transform="matrix(1 0 0 1 416.0957 459.915)"><tspan x="0" y="0" font-family="'OpenSans-Bold'" font-size="7.6734">12 FOUNDERS</tspan><tspan x="0" y="9.208" font-family="'OpenSans-Bold'" font-size="7.6734">26</tspan><tspan x="8.76" y="9.208" font-family="'OpenSans-Bold'" font-size="7.6734">	</tspan><tspan x="11.049" y="9.208" font-family="'OpenSans-Bold'" font-size="7.6734"> JOBS CREATED</tspan></text>
<text transform="matrix(1 0 0 1 255.73 413.8062)" font-family="'OpenSans-Light'" font-size="21.239">5 TEAMS</text>
<circle stroke="#000000" stroke-miterlimit="10" cx="366.552" cy="457.441" r="3.549"/>
<circle stroke="#000000" stroke-miterlimit="10" cx="377.295" cy="457.441" r="3.548"/>
<circle fill="none" stroke="#000000" stroke-miterlimit="10" cx="387.551" cy="466.649" r="3.549"/>
<circle fill="none" stroke="#000000" stroke-miterlimit="10" cx="398.294" cy="466.649" r="3.548"/>
<text transform="matrix(1 0 0 1 160.8726 580.6641)" font-family="'OpenSans-Extrabold'" font-size="10.7427">CROATIA</text>
<rect x="254.88" y="550.115" width="30.679" height="20.982"/>
<text transform="matrix(1 0 0 1 300.1636 563.0605)" font-family="'OpenSans-Bold'" font-size="7.6734">€ 125,000 INVESTED</text>
<circle stroke="#000000" stroke-miterlimit="10" cx="258.624" cy="584.214" r="3.548"/>
<circle stroke="#000000" stroke-miterlimit="10" cx="269.366" cy="584.214" r="3.548"/>
<circle stroke="#000000" stroke-miterlimit="10" cx="280.109" cy="584.214" r="3.549"/>
<circle stroke="#000000" stroke-miterlimit="10" cx="290.852" cy="584.214" r="3.548"/>
<circle stroke="#000000" stroke-miterlimit="10" cx="301.595" cy="584.214" r="3.548"/>
<circle stroke="#000000" stroke-miterlimit="10" cx="312.337" cy="584.214" r="3.548"/>
<circle stroke="#000000" stroke-miterlimit="10" cx="323.08" cy="584.214" r="3.548"/>
<circle stroke="#000000" stroke-miterlimit="10" cx="333.822" cy="584.214" r="3.548"/>
<circle stroke="#000000" stroke-miterlimit="10" cx="344.565" cy="584.214" r="3.548"/>
<circle stroke="#000000" stroke-miterlimit="10" cx="355.308" cy="584.214" r="3.549"/>
<text transform="matrix(1 0 0 1 370.4517 586.3457)" font-family="'OpenSans-Bold'" font-size="7.6734">10 FOUNDERS</text>
<text transform="matrix(1 0 0 1 255.5757 540.5781)" font-family="'OpenSans-Light'" font-size="21.239">3 TEAMS</text>
<text transform="matrix(1 0 0 1 118.2319 711.3574)" fill="#FFFFFF" font-family="'OpenSans-Extrabold'" font-size="10.7427">ARMENIA</text>
<rect x="256.037" y="698.286" width="12.271" height="20.983"/>
<text transform="matrix(1 0 0 1 281.7739 711.3574)" font-family="'OpenSans-Bold'" font-size="7.6734">€ 50,000 INVESTED</text>
<circle stroke="#000000" stroke-miterlimit="10" cx="259.477" cy="732.385" r="3.548"/>
<circle stroke="#000000" stroke-miterlimit="10" cx="270.22" cy="732.385" r="3.548"/>
<circle stroke="#000000" stroke-miterlimit="10" cx="280.962" cy="732.385" r="3.549"/>
<circle stroke="#000000" stroke-miterlimit="10" cx="291.705" cy="732.385" r="3.548"/>
<circle stroke="#000000" stroke-miterlimit="10" cx="302.448" cy="732.385" r="3.548"/>
<circle stroke="#000000" stroke-miterlimit="10" cx="313.19" cy="732.385" r="3.548"/>
<text transform="matrix(1 0 0 1 330.2524 734.8584)" font-family="'OpenSans-Bold'" font-size="7.6734">6 FOUNDERS</text>
<text transform="matrix(1 0 0 1 256.0815 688.75)" font-family="'OpenSans-Light'" font-size="21.239">1 TEAM</text>
<text transform="matrix(1 0 0 1 117.4712 862.6895)" fill="#FFFFFF" font-family="'OpenSans-Extrabold'" font-size="10.7427">SOUTH AFRICA</text>
<rect x="256.037" y="836.986" width="12.271" height="20.983"/>
<text transform="matrix(1 0 0 1 281.7739 850.0566)" font-family="'OpenSans-Bold'" font-size="7.6734">€ 50,000 INVESTED</text>
<circle stroke="#000000" stroke-miterlimit="10" cx="259.125" cy="871.086" r="3.548"/>
<circle fill="none" stroke="#000000" stroke-miterlimit="10" cx="259.125" cy="880.293" r="3.548"/>
<circle fill="none" stroke="#000000" stroke-miterlimit="10" cx="269.868" cy="880.293" r="3.548"/>
<circle fill="none" stroke="#000000" stroke-miterlimit="10" cx="280.611" cy="880.293" r="3.549"/>
<text transform="matrix(1 0 0 1 296.9976 873.5586)"><tspan x="0" y="0" font-family="'OpenSans-Bold'" font-size="7.6734">1 FOUNDER</tspan><tspan x="0" y="9.208" font-family="'OpenSans-Bold'" font-size="7.6734">4 JOBS CREATED</tspan></text>
<text transform="matrix(1 0 0 1 255.73 827.4502)" font-family="'OpenSans-Light'" font-size="21.239">1 TEAM</text>
<text transform="matrix(1 0 0 1 433.918 720.5391)" font-family="'OpenSans-Extrabold'" font-size="10.7427">ITALY</text>
<rect x="576.291" y="700.049" width="6.135" height="20.983"/>
<text transform="matrix(1 0 0 1 593.3203 712.9941)" font-family="'OpenSans-Bold'" font-size="7.6734">€ 25,000 INVESTED</text>
<circle stroke="#000000" stroke-miterlimit="10" cx="579.01" cy="734.147" r="3.549"/>
<circle stroke="#000000" stroke-miterlimit="10" cx="589.752" cy="734.147" r="3.549"/>
<text transform="matrix(1 0 0 1 603.707 737.6963)" font-family="'OpenSans-Bold'" font-size="7.6734">2 FOUNDERS</text>
<text transform="matrix(1 0 0 1 574.6211 690.5127)" font-family="'OpenSans-Light'" font-size="21.239">1 TEAM</text>
<text transform="matrix(1 0 0 1 481.0586 849.4922)" fill="#FFFFFF" font-family="'OpenSans-Extrabold'" font-size="10.7427">LATVIA</text>
<rect x="575.941" y="836.42" width="6.137" height="20.984"/>
<text transform="matrix(1 0 0 1 593.793 849.4912)" font-family="'OpenSans-Bold'" font-size="7.6734">€ 25,000 INVESTED</text>
<circle stroke="#000000" stroke-miterlimit="10" cx="579.863" cy="870.52" r="3.549"/>
<circle stroke="#000000" stroke-miterlimit="10" cx="590.605" cy="870.52" r="3.549"/>
<circle stroke="#000000" stroke-miterlimit="10" cx="601.349" cy="870.52" r="3.548"/>
<circle fill="none" stroke="#000000" stroke-miterlimit="10" cx="579.863" cy="879.728" r="3.549"/>
<text transform="matrix(1 0 0 1 617.2305 872.9932)"><tspan x="0" y="0" font-family="'OpenSans-Bold'" font-size="7.6734">3 FOUNDERS</tspan><tspan x="0" y="9.208" font-family="'OpenSans-Bold'" font-size="7.6734">4 JOBS CREATED</tspan></text>
<text transform="matrix(1 0 0 1 576.4668 826.8848)" font-family="'OpenSans-Light'" font-size="21.239">1 TEAM</text>
<path id="it_6" d="M508.861,754.521c-0.957,0.516-4.119,8.168-3.385,9.199c0.295,0.441,1.766,0.441,1.324,0.735
	c-0.367,0.222-0.293-0.515-0.516,0c0,0.147-0.146,0.294-0.072,0.516c0.146,0.589,1.029,0.883,1.25,1.472
	c0.074,0.146-0.221,0.073-0.367,0.221c-0.367,0.221-0.736,0.441-0.957,0.81s-0.293,0.81-0.367,1.177
	c-0.074,0.441,0.221,1.031,0,1.398c-0.148,0.221-0.369-0.735-1.766-0.662c-1.547,0.147-0.883,0.662-2.945-0.295
	c-0.883-0.367-1.104-1.986-2.059-2.575c-1.326-0.81-2.504,0-3.975-0.588c-0.221-0.074-0.441-0.147-0.664-0.294
	c-0.293-0.223-0.441-0.736-0.809-0.885c-0.295-0.221-0.662,0-1.029-0.146c-1.473-0.515-2.502-1.914-4.121-2.355
	c-0.662-0.146-1.398,0.516-2.061,0.221c-0.148-0.073-1.914-1.986-1.84-2.281c0-0.294,0.441-0.441,0.441-0.662
	c0.072-0.221-0.221-0.294-0.221-0.516c0-0.293,0.146-0.662,0.367-0.956s0.662-0.368,0.957-0.663
	c0.367-0.294,0.736-1.398,1.029-1.029c0.148,0.221,0.369,1.692,1.031,1.619c2.502-0.368,0-2.208,3.164-2.061
	c0.811,0,0.146,0.883,0.59,1.104c0.293,0.147,0.734-0.221,1.104-0.074c0.221,0.074,0.146,0.516,0.293,0.59
	c0.443,0.295,1.031,0.589,1.547,0.589c0.072,0,1.912-0.884,1.912-0.884c0.59-0.073,1.84,0.368,2.723,0.146
	c1.84-0.367,1.768-1.104,2.725-1.618c2.207-1.177,0.588,0.441,2.723,0.294c1.471-0.074,0.441-0.883,1.029-1.471
	c0.221-0.221,0.221,0.662,0.441,0.588C507.686,754.889,507.686,753.712,508.861,754.521 M460.291,727.365
	c0.221,1.031,3.459,0.811,3.018,2.43c-0.074,0.441-1.324,0.294-1.178,0.81c0.148,0.515,1.178,0.368,1.547,0.81
	c0.146,0.146-0.369,0.221-0.369,0.441c0.441,2.648,1.104-1.104,1.252,2.428c0.072,1.252-1.252,1.693-1.619,2.724
	c-0.367,0.956,0.736,0.956,0.883,1.767c0,0.294-0.367,0.588-0.367,0.956c-0.223,2.429,0.072,5.813-1.326,8.242
	c-0.072,0.147,0-0.22-0.146-0.294c-1.031-0.369-2.355-1.398-3.605-1.325c-0.221,0,0.516,0.294,0.516,0.515
	c-0.074,0.295-0.441,0.441-0.516,0.811c-0.441,1.692,0.736,1.397-1.326,2.354c-2.869,1.324-1.104-1.397-2.502-1.987
	c-0.367-0.146-0.734,0.441-1.176,0.441c-0.295,0,0.883-0.073,0.955-0.441c0-0.515-0.734-0.81-0.883-1.251
	c-0.441-1.472,0.59-2.428,0.811-3.679c0.072-0.516-0.221-0.957-0.074-1.473c0.074-0.441,0.883-0.662,0.736-1.104
	c-0.074-0.368-0.883,0-1.104-0.295c-0.221-0.367,0.146-0.809,0.146-1.177c0-0.073-0.295-0.073-0.221-0.147
	c0.146-0.221,0.588-0.146,0.736-0.441c0.293-0.736-0.811-4.342-1.252-4.857c-0.883-0.957-1.471,2.208-1.25-1.471
	c0.072-0.516,0.588-0.884,0.662-1.399c0.072-0.294-0.295-0.589-0.074-0.81c0.074-0.073,0.588,1.473,1.914,1.473
	C455.582,731.488,459.629,728.176,460.291,727.365 M490.611,675.852c-0.146,1.473-1.986,1.178-2.135,2.355
	c-0.146,0.883,1.547,0.736,1.914,1.03c0.516,0.441-0.883,1.03-1.104,1.692c-0.295,0.957,0.883-0.073,1.029,0.295
	c0.148,0.367-0.662,1.324-0.146,1.619c0.736,0.441,3.68,2.207,1.104,2.061c0.146-0.368,0.146-0.662-0.146-1.031
	c-1.398-1.324-1.324-0.736-2.135,0.295c0.074-0.074,0.074-0.147,0.074-0.147c0-0.735-1.398-0.884-2.061-0.589
	c-0.369,0.221,0,1.031-0.295,1.325s-0.809,0.073-1.25,0.221c-1.031,0.441-1.988,1.619-3.166,1.839
	c-0.367,0.074-0.734-0.294-1.029-0.072c-0.295,0.072,0,0.515-0.148,0.81c-0.072,0.22-0.293,0.515-0.441,0.735
	c0.074-0.073,0.074-0.146,0.148-0.146c0.367,0,0.072,0.809,0.367,0.955c0.146,0.074,0.221-0.44,0.369-0.293
	c0.146,0.293,0.441,0.883,0.146,1.104c-0.146,0.074-0.221,0.221-0.146,0.368c0.072,0.073,0.221-0.075,0.367-0.075
	c0.441,0.369,1.178,0.59,1.25,1.105c0.443,2.061-1.324,1.251-1.84,2.502c-0.146,0.367,0.811,4.342,1.031,4.783
	c0.441,0.736,5.594,4.416,6.623,5.004c1.031,0.589,1.324,0.221,2.281,1.031c1.031,0.883,2.43,6.695,3.238,8.168
	c0.811,1.545,2.502,2.943,3.826,3.974c0.441,0.294,1.104,0.368,1.473,0.736c0.221,0.147,0,0.589,0.146,0.735
	c1.988,2.061,5.74,1.398,8.096,1.031c0.516-0.074,1.619-0.883,2.281-0.148c1.84,2.062-3.68,2.797-0.883,4.711
	c2.648,1.767,6.328,1.619,9.051,3.017c0.957,0.515,1.326,1.325,2.43,1.692c0.883,0.368,3.311,0.736,4.047,1.325
	c0.295,0.221,0,0.736,0.221,0.956c0.883,1.252,3.238,1.031,3.975,3.606c0.293,0.956-0.369,0.662-0.59,1.325
	c-0.146,0.367,0.074,1.84-0.221,1.986c-0.295,0.221-0.809,0-1.25-0.221c-2.281-0.883-1.326-2.207-2.504-3.754
	c-0.66-0.882-2.795,0-3.898-0.367c-1.473-0.515-2.281-2.207-3.68-0.736c-0.148,0.222-1.988,3.9-1.988,4.048
	c0,0.221,0.369,0.441,0.295,0.737c-0.295,1.397-1.766,1.323-0.514,2.943c0.734,0.883,0.955,0.072,1.766,0.293
	c0.883,0.295,1.471,1.178,2.281,1.547c0.293,0.146,0.734,0,0.883,0.293c0.146,0.222-0.295,0.516-0.295,0.811
	c0.074,2.06,1.031,0.146,0.883,2.796c-0.074,1.546-3.018,0.956-4.342,2.503c-0.957,1.104,0.295,2.207,0,3.531
	c-0.221,1.104-0.957,0.81-1.691,1.398c-1.768,1.545-0.516,5.078-4.195,4.048c-0.736-0.222-1.545-2.134-1.104-2.943
	c0.295-0.442,1.029-0.368,1.398-0.736c0.221-0.294,0.221-0.736,0.293-1.104c0.074-0.368,0.369-0.663,0.295-1.03
	c-0.074-0.442-0.809-0.662-0.736-1.105c0.295-1.324,2.061-0.588,2.576-1.324c1.252-1.471-0.221-1.691-0.809-2.502
	c-0.59-0.883-0.295-2.133-0.736-3.09c-0.221-0.59-0.516-1.104-0.883-1.545c-0.074-0.148-0.369-0.148-0.516-0.295
	c-1.324-1.987,0.074-0.81-0.811-3.018c-1.104-2.797-1.766-1.398-3.973-1.251c-0.074,0,0.072-0.22,0-0.368
	c-0.295-0.295-0.664-0.662-1.104-0.883c-0.441-0.221-1.326,0-1.619-0.516c-0.295-0.516,0.588-1.029,0.514-1.619
	c-0.072-0.588-0.514-1.104-0.809-1.545c-1.766-2.429-2.061,0.957-4.121,0.221c-0.221-0.073,1.398-1.251,0.662-1.766
	c-2.648-1.914-0.074,0.073-2.943-0.295c-0.221-0.074,0-0.441-0.074-0.662c-0.293-0.883-1.84-3.238-2.576-3.533
	c-1.986-0.735-0.441,0.662-1.104,0.516s-1.25-0.957-1.986-0.883c-0.662,0.146-1.178,1.029-1.766,0.883
	c-0.664-0.146-0.59-1.104-1.031-1.545c-0.516-0.441-1.84-0.295-2.281-0.589l-1.104-1.546c-0.516-0.441-1.324-0.516-1.766-1.029
	c-0.885-1.325,0.146-1.105-0.885-1.914c-0.441-0.367-0.955-0.662-1.471-0.957c-0.146-0.073-0.441,0.147-0.59,0.074
	c-0.809-0.662-0.809-1.914-1.619-2.576c-1.396-1.178-2.279-0.295-3.752-0.883c-0.221-0.074,0.367-0.295,0.516-0.441
	c0.441-0.588-0.441-1.545-0.662-1.766c-0.148-0.148-0.443,0-0.59-0.148c-0.221-0.294-0.221-0.736-0.516-0.957
	c-0.367-0.294-1.104-0.073-1.398-0.514c-0.221-0.295,0.441-0.884,0.074-1.105c-0.441-0.367-1.178,0.074-1.766-0.146
	c-0.367-0.146,0.221-0.81,0.221-1.25c0.221-1.473,0-1.988-0.811-3.239c-1.545-2.208-0.439-4.194-2.281-5.887
	c-0.146-0.221-0.441-0.295-0.662-0.368c-0.072,0-0.146,0.221-0.221,0.147c-0.367-0.147-0.588-0.589-0.957-0.589
	c-0.221,0,0.223,0.662,0,0.589c-0.588-0.147-1.029-0.589-1.545-0.957c-0.221-0.147-2.061-2.061-2.648-2.061
	c-0.148,0,0.072,0.368-0.074,0.442c-0.146,0.072-0.367,0-0.441-0.148c-0.367-0.441-1.914-1.177-2.65-1.177
	c-0.293,0-2.207,1.104-2.354,1.397c-0.148,0.295,0.072,0.736-0.148,0.957c-0.221,0.295-0.809,0.221-1.029,0.441
	c-0.516,0.516-0.883,1.693-1.471,2.208c-0.957,0.956-2.65,0.883-3.754,1.03c-0.369-1.324,2.133-3.018,1.029-3.826
	c-0.367-0.221-0.883,0.073-1.324,0.146c-0.441,0-0.957,0.221-1.398,0.074c-0.809-0.221-2.723-1.619-2.648-2.649
	c0-0.147,0.367-0.147,0.367-0.294c-0.074-0.222-0.809-0.442-0.588-0.884c0.293-0.294,0.662-0.515,0.883-0.884
	c0.074-0.072-0.148-0.221-0.074-0.367c0.074-0.221,0.736,0.146,0.811-0.074c0-0.588-0.074-1.177-0.295-1.619
	c-0.367-0.588-2.797-1.545-2.648-2.723c0-0.367,0.662-0.367,1.029-0.441c0.221,0,0.367,0.441,0.588,0.368
	c0.369-0.073,2.723-1.986,2.355-2.649c-0.221-0.441-0.957-0.515-1.178-1.03c-0.221-0.294,0.074-0.81-0.072-1.104
	c-1.031-1.767-2.945-0.884,0.441-2.87c0.736,1.324,2.723-0.147,3.68-0.368c0.662-0.147,1.176,0.736,1.84,0.736
	c0.072,0,2.133-2.134,2.133-2.503c0.074-0.367-0.588-0.515-0.516-0.809c0.148-0.442,0.736-0.589,1.105-0.883
	c0.367-0.295,0.662-0.589,1.029-0.884c0.148-0.073,0.295-0.221,0.369-0.147c0.146,0.442,0.072,0.883,0.072,1.325
	c0,0.221-0.221,0.515-0.146,0.81c0.516,0.957,1.691,1.177,2.502,1.471c0.074,0,0.221,0.148,0.221,0.295
	c-0.074,0.295-0.588,0.516-0.516,0.81c0.074,0.294,0.59,0.147,0.811,0.368c0.293,0.368,0.441,1.619,0.883,1.251
	c1.25-0.957-0.221-0.662-0.221-1.398c0-1.619,1.766-2.06,2.061-3.385c0-0.147-0.811-2.135,0.441-1.913
	c0.957,0.146-0.221,1.619,1.691,2.061c1.178,0.367,0.223-1.104,2.209-0.736c0.588,0.074,0.295,1.251,0.809,1.545
	c0.295,0.147,0.883-0.146,0.811-0.441c-0.148-0.221-0.441-0.367-0.516-0.662c0-0.294,0.441-0.516,0.367-0.81
	c-0.146-0.368-1.471-1.178-0.441-1.913c1.326-0.957,0.811,1.178,2.355,0.81c0.883-0.295-0.514-1.325-0.514-1.472
	c0.146-0.295,0.367-0.516,0.439-0.81c0.148-0.294,0.074-0.663,0.148-0.957l0,0c1.178,0.589,0.146-0.147,1.324,0
	c0.588,0.073,1.178,1.619,2.355,0.957l0.957-1.987c0.588-0.441,3.164-0.146,3.826-0.221c1.104-0.074,1.986-1.029,3.09-1.029
	c0.295,0-0.514,0.367-0.588,0.661c-0.367,1.546,0.588,0.515,1.178,1.398c0.146,0.221-0.221,0.515-0.074,0.81
	c0.074,0.146,0.295-0.147,0.441,0c1.398,1.03,1.766,1.178,3.68,1.472C486.932,675.558,488.771,675.705,490.611,675.852
	L490.611,675.852z"/>
</svg>
