<?xml version="1.0" encoding="utf-8"?>
<!DOCTYPE svg PUBLIC "-//W3C//DTD SVG 1.1//EN" "http://www.w3.org/Graphics/SVG/1.1/DTD/svg11.dtd">
<svg version="1.1" id="Layer_1" xmlns="http://www.w3.org/2000/svg" xmlns:xlink="http://www.w3.org/1999/xlink" x="0px" y="0px"
	 viewBox="0 0 616 858" enable-background="new 0 0 616 858" xml:space="preserve" width="616px" height="858px">
<g id="Layer_1_1_">
	<g>
		<path id="bg" fill="#FF9400" d="M120.7,67.6c-0.7-0.2-1.4-0.2-1.8-0.2c-5.3,1.1,3.2,4.8,0.3,7.2c0,0-4.2,1.4-4.3,1.4
			c-1.9,0.7-5,3.1-7,3c-0.4,0-0.2-0.7-0.4-0.8c-1.4-0.7-3.1-1.4-4.7-1.1c-0.5,0.2-0.5,1.2-1.1,1.4c-0.4,0.2-0.7-0.8-1.1-0.9
			c-0.3-0.2-0.7,0.4-0.8,0.2c-0.9-0.5-1.2-2-2.3-2.1c-0.8-0.3-1.2,1.1-2,1.2c-0.5,0.3-1.2-0.8-1.6-0.5c-2.4,1.4-3.4,3.1-7.2,4.4
			c-1.6,0.5-3.8,0-5.2,0.9C81,82,81,83.1,80.4,83.2c-0.4,0.4-1.1,0-1.6,0c-0.5,0-1.2,0-1.8,0c-0.2,0.2,0,0.4,0,0.4
			c0.3-0.8,0-7.8-0.2-7.8c-0.9-0.9-2.4-3.8-3.8-4.4c-0.7-0.4-1.6,0-2.4-0.4c-0.3-0.2-3.9-3-3.9-3.2c0.7-1.2,2.5-1.4,1.9-3.2
			c-0.2-0.5-0.5-0.8-0.9-1.1c-0.3-0.2-0.7,0.2-0.8-0.2c-0.2-0.7,0-1.4,0-2c-0.2-0.8-1.1-1.6-0.7-2.3c3.9-6.5-0.5,1.4,3.8-1.9
			c0.4-0.4,3.2-5.3,2.4-6.2c-1.1-0.8-6.2-3.2-6.5-3.5c-1.6-1.4-4.2-7-3.2-9.1c0.4-0.9,1.9-0.8,2.4-1.6c0.4-0.9-0.2-2.1,0.3-3.1
			c1.8,0.8,3.9,1.4,4.8,1.9c1.2,0.5-3.9,3.5-1.6,4.4c3.2,1.4,4.2-1.1,7.2-1.4c3.8-0.4,8.3,1.8,12.1,0.4c0.8-0.3,1.1-1.4,1.9-1.6
			c2-0.7,4.3-0.5,6.5-0.4c2.8,0.2,4.8,1.2,7.4-0.4c3-1.9,3.4-4.8,5.7-7c2-2,6.8-4.2,9.3-5.3c6-2.3,4.2,0.9,6.5,0.7
			c1.1-0.2,1.9-1.4,3-1.4c3.5-0.2-0.8,2.5,2.4,0.8c0.4-0.2,0.7-0.7,1.1-0.8c0.8-0.4,0.9,1.4,1.6,2c2,1.8,5.5,0.5,7.7,0.2h0.3
			c0.5,3.4,0.8,6.5-0.2,7c-0.5,0.3-1.2-0.7-1.9-0.5c-5,1.4-1.8,1.2-3.2,4.2c-0.2,0.5-1.1,0.5-1.4,0.9c0,0.3,0.8,0.2,0.8,0.4
			c0.3,2.1,0.2,3.5,0.7,5.7c0.2,0.8,0.9,1.9,0.5,2.5c-0.4,0.6-1.6,0.3-2.3,0.7c-0.2,0,0.4,0.3,0.4,0.4c-0.3,0.5-0.9,0.7-1.1,1.2
			c-0.2,0.4,0.7,0.8,0.4,1.1c-0.5,0.8-1.8,1.1-2.3,1.9c-2.4,3.3,3.5-1.6,5,2c0.2,0.3-0.3,0.7-0.3,0.9c0.2,0.2,3.1,1.9,3.8,2.4
			c0.4,0.5,0.8,0.9,0.9,1.4h-0.3c-0.8,0.2-1.6,0-2.4,0.3c-1.1,0.4-1.9,1.4-2.8,2c-0.3,0.2,0,0.7-0.2,0.5c-3.1-0.7-4-3.1-7.2-1.4
			l-2.3,2.5c-0.9,0.4-2.1-0.3-2.8,0.4c-0.8,0.7,0,2-0.5,2.8C122.2,66,119.6,65.6,120.7,67.6L120.7,67.6z"/>
		<text transform="matrix(1 0 0 1 80.7515 53.4204)" fill="#FFFFFF" font-family="'OpenSans-Extrabold'" font-size="8.2373">BULGARIA</text>
		<rect x="174.3" y="30" fill="#FF9400" width="322.1" height="16.1"/>
		<text transform="matrix(1 0 0 1 432.9894 39.9219)" fill="#FFFFFF" font-family="'OpenSans-Bold'" font-size="5.8838">€4,397,482 INVESTED</text>
		<circle fill="#FF9400" stroke="#FF9400" stroke-miterlimit="10" cx="176.7" cy="56.2" r="2.8"/>
		<circle fill="#FF9400" stroke="#FF9400" stroke-miterlimit="10" cx="185" cy="56.2" r="2.8"/>
		<circle fill="#FF9400" stroke="#FF9400" stroke-miterlimit="10" cx="193.2" cy="56.2" r="2.8"/>
		<circle fill="#FF9400" stroke="#FF9400" stroke-miterlimit="10" cx="201.5" cy="56.2" r="2.8"/>
		<circle fill="#FF9400" stroke="#FF9400" stroke-miterlimit="10" cx="209.7" cy="56.2" r="2.8"/>
		<circle fill="#FF9400" stroke="#FF9400" stroke-miterlimit="10" cx="176.7" cy="63.2" r="2.8"/>
		<circle fill="#FF9400" stroke="#FF9400" stroke-miterlimit="10" cx="185" cy="63.2" r="2.8"/>
		<circle fill="#FF9400" stroke="#FF9400" stroke-miterlimit="10" cx="193.2" cy="63.2" r="2.8"/>
		<circle fill="#FF9400" stroke="#FF9400" stroke-miterlimit="10" cx="201.5" cy="63.2" r="2.8"/>
		<circle fill="#FF9400" stroke="#FF9400" stroke-miterlimit="10" cx="209.7" cy="63.2" r="2.8"/>
		<circle fill="#FF9400" stroke="#FF9400" stroke-miterlimit="10" cx="217.9" cy="56.2" r="2.8"/>
		<circle fill="#FF9400" stroke="#FF9400" stroke-miterlimit="10" cx="226.2" cy="56.2" r="2.8"/>
		<circle fill="#FF9400" stroke="#FF9400" stroke-miterlimit="10" cx="234.4" cy="56.2" r="2.8"/>
		<circle fill="#FF9400" stroke="#FF9400" stroke-miterlimit="10" cx="242.7" cy="56.2" r="2.8"/>
		<circle fill="#FF9400" stroke="#FF9400" stroke-miterlimit="10" cx="250.9" cy="56.2" r="2.8"/>
		<circle fill="#FF9400" stroke="#FF9400" stroke-miterlimit="10" cx="217.9" cy="63.2" r="2.8"/>
		<circle fill="#FF9400" stroke="#FF9400" stroke-miterlimit="10" cx="226.2" cy="63.2" r="2.8"/>
		<circle fill="#FF9400" stroke="#FF9400" stroke-miterlimit="10" cx="234.4" cy="63.2" r="2.8"/>
		<circle fill="#FF9400" stroke="#FF9400" stroke-miterlimit="10" cx="242.7" cy="63.2" r="2.8"/>
		<circle fill="#FF9400" stroke="#FF9400" stroke-miterlimit="10" cx="250.9" cy="63.2" r="2.8"/>
		<circle fill="#FF9400" stroke="#FF9400" stroke-miterlimit="10" cx="259.2" cy="56.2" r="2.8"/>
		<circle fill="#FF9400" stroke="#FF9400" stroke-miterlimit="10" cx="267.3" cy="56.2" r="2.8"/>
		<circle fill="#FF9400" stroke="#FF9400" stroke-miterlimit="10" cx="275.6" cy="56.2" r="2.8"/>
		<circle fill="#FF9400" stroke="#FF9400" stroke-miterlimit="10" cx="283.8" cy="56.2" r="2.8"/>
		<circle fill="#FF9400" stroke="#FF9400" stroke-miterlimit="10" cx="292" cy="56.2" r="2.8"/>
		<circle fill="#FF9400" stroke="#FF9400" stroke-miterlimit="10" cx="259.2" cy="63.2" r="2.8"/>
		<circle fill="#FF9400" stroke="#FF9400" stroke-miterlimit="10" cx="267.3" cy="63.2" r="2.8"/>
		<circle fill="#FF9400" stroke="#FF9400" stroke-miterlimit="10" cx="275.6" cy="63.2" r="2.8"/>
		<circle fill="#FF9400" stroke="#FF9400" stroke-miterlimit="10" cx="283.8" cy="63.2" r="2.8"/>
		<circle fill="#FF9400" stroke="#FF9400" stroke-miterlimit="10" cx="292" cy="63.2" r="2.8"/>
		<circle fill="#FF9400" stroke="#FF9400" stroke-miterlimit="10" cx="300.3" cy="56.2" r="2.8"/>
		<circle fill="#FF9400" stroke="#FF9400" stroke-miterlimit="10" cx="308.5" cy="56.2" r="2.8"/>
		<circle fill="#FF9400" stroke="#FF9400" stroke-miterlimit="10" cx="316.8" cy="56.2" r="2.8"/>
		<circle fill="#FF9400" stroke="#FF9400" stroke-miterlimit="10" cx="325" cy="56.2" r="2.8"/>
		<circle fill="#FF9400" stroke="#FF9400" stroke-miterlimit="10" cx="333.2" cy="56.2" r="2.8"/>
		<circle fill="#FF9400" stroke="#FF9400" stroke-miterlimit="10" cx="300.3" cy="63.2" r="2.8"/>
		<circle fill="#FF9400" stroke="#FF9400" stroke-miterlimit="10" cx="308.5" cy="63.2" r="2.8"/>
		<circle fill="#FF9400" stroke="#FF9400" stroke-miterlimit="10" cx="316.8" cy="63.2" r="2.8"/>
		<circle fill="#FF9400" stroke="#FF9400" stroke-miterlimit="10" cx="325" cy="63.2" r="2.8"/>
		<circle fill="#FF9400" stroke="#FF9400" stroke-miterlimit="10" cx="333.2" cy="63.2" r="2.8"/>
		<circle fill="#FF9400" stroke="#FF9400" stroke-miterlimit="10" cx="341.5" cy="56.2" r="2.8"/>
		<circle fill="#FF9400" stroke="#FF9400" stroke-miterlimit="10" cx="349.7" cy="56.2" r="2.8"/>
		<circle fill="#FF9400" stroke="#FF9400" stroke-miterlimit="10" cx="358" cy="56.2" r="2.8"/>
		<circle fill="#FF9400" stroke="#FF9400" stroke-miterlimit="10" cx="366.2" cy="56.2" r="2.8"/>
		<circle fill="#FF9400" stroke="#FF9400" stroke-miterlimit="10" cx="374.4" cy="56.2" r="2.8"/>
		<circle fill="#FF9400" stroke="#FF9400" stroke-miterlimit="10" cx="341.5" cy="63.2" r="2.8"/>
		<circle fill="#FF9400" stroke="#FF9400" stroke-miterlimit="10" cx="349.7" cy="63.2" r="2.8"/>
		<circle fill="#FF9400" stroke="#FF9400" stroke-miterlimit="10" cx="358" cy="63.2" r="2.8"/>
		<circle fill="#FF9400" stroke="#FF9400" stroke-miterlimit="10" cx="366.2" cy="63.2" r="2.8"/>
		<circle fill="#FF9400" stroke="#FF9400" stroke-miterlimit="10" cx="374.4" cy="63.2" r="2.8"/>
		<circle fill="#FF9400" stroke="#FF9400" stroke-miterlimit="10" cx="382.7" cy="56.2" r="2.8"/>
		<circle fill="#FF9400" stroke="#FF9400" stroke-miterlimit="10" cx="390.8" cy="56.2" r="2.8"/>
		<circle fill="#FF9400" stroke="#FF9400" stroke-miterlimit="10" cx="399.2" cy="56.2" r="2.8"/>
		<circle fill="#FF9400" stroke="#FF9400" stroke-miterlimit="10" cx="407.3" cy="56.2" r="2.8"/>
		<circle fill="#FF9400" stroke="#FF9400" stroke-miterlimit="10" cx="415.7" cy="56.2" r="2.8"/>
		<circle fill="#FF9400" stroke="#FF9400" stroke-miterlimit="10" cx="382.7" cy="63.2" r="2.8"/>
		<circle fill="#FF9400" stroke="#FF9400" stroke-miterlimit="10" cx="390.8" cy="63.2" r="2.8"/>
		<circle fill="#FF9400" stroke="#FF9400" stroke-miterlimit="10" cx="399.2" cy="63.2" r="2.8"/>
		<circle fill="#FF9400" stroke="#FF9400" stroke-miterlimit="10" cx="407.3" cy="63.2" r="2.8"/>
		<circle fill="#FF9400" stroke="#FF9400" stroke-miterlimit="10" cx="415.7" cy="63.2" r="2.8"/>
		<circle fill="#FF9400" stroke="#FF9400" stroke-miterlimit="10" cx="176.9" cy="70.7" r="2.8"/>
		<circle fill="#FF9400" stroke="#FF9400" stroke-miterlimit="10" cx="185.2" cy="70.7" r="2.8"/>
		<circle fill="#FF9400" stroke="#FF9400" stroke-miterlimit="10" cx="193.3" cy="70.7" r="2.8"/>
		<circle fill="#FF9400" stroke="#FF9400" stroke-miterlimit="10" cx="201.6" cy="70.7" r="2.8"/>
		<circle fill="#FF9400" stroke="#FF9400" stroke-miterlimit="10" cx="209.7" cy="70.7" r="2.8"/>
		<circle fill="none" stroke="#FF9400" stroke-miterlimit="10" cx="176.9" cy="77.8" r="2.8"/>
		<circle fill="none" stroke="#FF9400" stroke-miterlimit="10" cx="185.2" cy="77.8" r="2.8"/>
		<circle fill="none" stroke="#FF9400" stroke-miterlimit="10" cx="193.3" cy="77.8" r="2.8"/>
		<circle fill="none" stroke="#FF9400" stroke-miterlimit="10" cx="201.6" cy="77.8" r="2.8"/>
		<circle fill="none" stroke="#FF9400" stroke-miterlimit="10" cx="209.7" cy="77.8" r="2.8"/>
		<circle fill="#FF9400" stroke="#FF9400" stroke-miterlimit="10" cx="218.1" cy="70.7" r="2.8"/>
		<circle fill="#FF9400" stroke="#FF9400" stroke-miterlimit="10" cx="226.2" cy="70.7" r="2.8"/>
		<circle fill="none" stroke="#FF9400" stroke-miterlimit="10" cx="234.6" cy="70.7" r="2.8"/>
		<circle fill="none" stroke="#FF9400" stroke-miterlimit="10" cx="242.7" cy="70.7" r="2.8"/>
		<circle fill="none" stroke="#FF9400" stroke-miterlimit="10" cx="251" cy="70.7" r="2.8"/>
		<circle fill="none" stroke="#FF9400" stroke-miterlimit="10" cx="218.1" cy="77.8" r="2.8"/>
		<circle fill="none" stroke="#FF9400" stroke-miterlimit="10" cx="226.2" cy="77.8" r="2.8"/>
		<circle fill="none" stroke="#FF9400" stroke-miterlimit="10" cx="234.6" cy="77.8" r="2.8"/>
		<circle fill="none" stroke="#FF9400" stroke-miterlimit="10" cx="242.7" cy="77.8" r="2.8"/>
		<circle fill="none" stroke="#FF9400" stroke-miterlimit="10" cx="251" cy="77.8" r="2.8"/>
		<circle fill="none" stroke="#FF9400" stroke-miterlimit="10" cx="259.2" cy="70.7" r="2.8"/>
		<circle fill="none" stroke="#FF9400" stroke-miterlimit="10" cx="267.5" cy="70.7" r="2.8"/>
		<circle fill="none" stroke="#FF9400" stroke-miterlimit="10" cx="275.7" cy="70.7" r="2.8"/>
		<circle fill="none" stroke="#FF9400" stroke-miterlimit="10" cx="284" cy="70.7" r="2.8"/>
		<circle fill="none" stroke="#FF9400" stroke-miterlimit="10" cx="292.2" cy="70.7" r="2.8"/>
		<circle fill="none" stroke="#FF9400" stroke-miterlimit="10" cx="259.2" cy="77.8" r="2.8"/>
		<circle fill="none" stroke="#FF9400" stroke-miterlimit="10" cx="267.5" cy="77.8" r="2.8"/>
		<circle fill="none" stroke="#FF9400" stroke-miterlimit="10" cx="275.7" cy="77.8" r="2.8"/>
		<circle fill="none" stroke="#FF9400" stroke-miterlimit="10" cx="284" cy="77.8" r="2.8"/>
		<circle fill="none" stroke="#FF9400" stroke-miterlimit="10" cx="292.2" cy="77.8" r="2.8"/>
		<circle fill="none" stroke="#FF9400" stroke-miterlimit="10" cx="300.4" cy="70.7" r="2.8"/>
		<circle fill="none" stroke="#FF9400" stroke-miterlimit="10" cx="308.7" cy="70.7" r="2.8"/>
		<circle fill="none" stroke="#FF9400" stroke-miterlimit="10" cx="316.9" cy="70.7" r="2.8"/>
		<circle fill="none" stroke="#FF9400" stroke-miterlimit="10" cx="325.1" cy="70.7" r="2.8"/>
		<circle fill="none" stroke="#FF9400" stroke-miterlimit="10" cx="333.4" cy="70.7" r="2.8"/>
		<circle fill="none" stroke="#FF9400" stroke-miterlimit="10" cx="300.4" cy="77.8" r="2.8"/>
		<circle fill="none" stroke="#FF9400" stroke-miterlimit="10" cx="308.7" cy="77.8" r="2.8"/>
		<circle fill="none" stroke="#FF9400" stroke-miterlimit="10" cx="316.9" cy="77.8" r="2.8"/>
		<circle fill="none" stroke="#FF9400" stroke-miterlimit="10" cx="325.1" cy="77.8" r="2.8"/>
		<circle fill="none" stroke="#FF9400" stroke-miterlimit="10" cx="333.4" cy="77.8" r="2.8"/>
		<circle fill="none" stroke="#FF9400" stroke-miterlimit="10" cx="341.6" cy="70.7" r="2.8"/>
		<circle fill="none" stroke="#FF9400" stroke-miterlimit="10" cx="349.8" cy="70.7" r="2.8"/>
		<circle fill="none" stroke="#FF9400" stroke-miterlimit="10" cx="358.1" cy="70.7" r="2.8"/>
		<circle fill="none" stroke="#FF9400" stroke-miterlimit="10" cx="366.3" cy="70.7" r="2.8"/>
		<circle fill="none" stroke="#FF9400" stroke-miterlimit="10" cx="374.6" cy="70.7" r="2.8"/>
		<circle fill="none" stroke="#FF9400" stroke-miterlimit="10" cx="341.6" cy="77.8" r="2.8"/>
		<circle fill="none" stroke="#FF9400" stroke-miterlimit="10" cx="349.8" cy="77.8" r="2.8"/>
		<circle fill="none" stroke="#FF9400" stroke-miterlimit="10" cx="358.1" cy="77.8" r="2.8"/>
		<circle fill="none" stroke="#FF9400" stroke-miterlimit="10" cx="366.3" cy="77.8" r="2.8"/>
		<circle fill="none" stroke="#FF9400" stroke-miterlimit="10" cx="374.6" cy="77.8" r="2.8"/>
		<circle fill="none" stroke="#FF9400" stroke-miterlimit="10" cx="382.8" cy="70.7" r="2.8"/>
		<circle fill="none" stroke="#FF9400" stroke-miterlimit="10" cx="391.1" cy="70.7" r="2.8"/>
		<circle fill="none" stroke="#FF9400" stroke-miterlimit="10" cx="399.3" cy="70.7" r="2.8"/>
		<circle fill="none" stroke="#FF9400" stroke-miterlimit="10" cx="407.5" cy="70.7" r="2.8"/>
		<circle fill="none" stroke="#FF9400" stroke-miterlimit="10" cx="415.8" cy="70.7" r="2.8"/>
		<circle fill="none" stroke="#FF9400" stroke-miterlimit="10" cx="382.8" cy="77.8" r="2.8"/>
		<circle fill="none" stroke="#FF9400" stroke-miterlimit="10" cx="391.1" cy="77.8" r="2.8"/>
		<circle fill="none" stroke="#FF9400" stroke-miterlimit="10" cx="399.3" cy="77.8" r="2.8"/>
		<circle fill="none" stroke="#FF9400" stroke-miterlimit="10" cx="407.5" cy="77.8" r="2.8"/>
		<circle fill="none" stroke="#FF9400" stroke-miterlimit="10" cx="415.8" cy="77.8" r="2.8"/>
		<text transform="matrix(1 0 0 1 426.0207 65.6875)" fill="#FF9400" font-family="'OpenSans-Bold'" font-size="5.8838">154</text>
		<text transform="matrix(1 0 0 1 432.7374 65.6875)" fill="#FF9400" font-family="'OpenSans-Bold'" font-size="5.8838"> </text>
		<text transform="matrix(1 0 0 1 434.4923 65.6875)" fill="#FF9400" font-family="'OpenSans-Bold'" font-size="5.8838">   FOUNDERS</text>
		<text transform="matrix(1 0 0 1 426.0207 72.7476)" fill="#FF9400" font-family="'OpenSans-Bold'" font-size="5.8838">273</text>
		<text transform="matrix(1 0 0 1 436.0947 72.7476)" fill="#FF9400" font-family="'OpenSans-Bold'" font-size="5.8838"> </text>
		<text transform="matrix(1 0 0 1 438.7285 72.7476)" fill="#FF9400" font-family="'OpenSans-Bold'" font-size="5.8838">JOBS CREATED</text>
		<text transform="matrix(1 0 0 1 174.919 22.6831)" fill="#FF9400" font-family="'OpenSans-Light'" font-size="16.2855">57 TEAMS</text>
		<g>
			<circle fill="none" stroke="#FF9400" stroke-miterlimit="10" cx="176.7" cy="85.1" r="2.8"/>
			<circle fill="none" stroke="#FF9400" stroke-miterlimit="10" cx="185" cy="85.1" r="2.8"/>
			<circle fill="none" stroke="#FF9400" stroke-miterlimit="10" cx="193.2" cy="85.1" r="2.8"/>
			<circle fill="none" stroke="#FF9400" stroke-miterlimit="10" cx="201.5" cy="85.1" r="2.8"/>
			<circle fill="none" stroke="#FF9400" stroke-miterlimit="10" cx="209.7" cy="85.1" r="2.8"/>
			<circle fill="none" stroke="#FF9400" stroke-miterlimit="10" cx="217.9" cy="85.1" r="2.8"/>
			<circle fill="none" stroke="#FF9400" stroke-miterlimit="10" cx="226.2" cy="85.1" r="2.8"/>
			<circle fill="none" stroke="#FF9400" stroke-miterlimit="10" cx="234.4" cy="85.1" r="2.8"/>
			<circle fill="none" stroke="#FF9400" stroke-miterlimit="10" cx="242.7" cy="85.1" r="2.8"/>
			<circle fill="none" stroke="#FF9400" stroke-miterlimit="10" cx="250.9" cy="85.1" r="2.8"/>
			<circle fill="none" stroke="#FF9400" stroke-miterlimit="10" cx="259.2" cy="85.1" r="2.8"/>
			<circle fill="none" stroke="#FF9400" stroke-miterlimit="10" cx="267.5" cy="85.1" r="2.8"/>
			<circle fill="none" stroke="#FF9400" stroke-miterlimit="10" cx="275.7" cy="85.1" r="2.8"/>
			<circle fill="none" stroke="#FF9400" stroke-miterlimit="10" cx="284" cy="85.1" r="2.8"/>
			<circle fill="none" stroke="#FF9400" stroke-miterlimit="10" cx="292.2" cy="85.1" r="2.8"/>
			<circle fill="none" stroke="#FF9400" stroke-miterlimit="10" cx="300.4" cy="85.1" r="2.8"/>
			<circle fill="none" stroke="#FF9400" stroke-miterlimit="10" cx="308.7" cy="85.1" r="2.8"/>
		</g>
	</g>
	<g>
		<g id="g3320">
			<path id="cs" fill="#FF9400" d="M91.5,189.8c2.8,0,2.3,4.3,3.8,5.3c0.5,0.4,1.1-0.4,1.8-0.2c1.2,0.4,2.4,0.8,3.4,1.8
				c2.3,2.4,1.9,5,1.4,7.5l0,0h0.5c4.3,3,1.9-4.3,3-5c1.9-1.2,4-2.8,6.3-3c0.8,0,2.4,2.1,2.8,1.2c0.2-0.7-0.5-1.4-0.4-1.9
				c1.6-3.8,3-1.6,6.3-2.1c2.8-0.5,8.4-5.9,10.7-3.8c0.8-1.6,3.4-1.9,2.4-4.2c-0.2-0.7-0.7-1.1-1.2-1.4c-0.4-0.2-0.8,0.2-1.1-0.2
				c-0.2-0.8,0-1.8,0-2.6c-0.2-1.1-1.4-2.1-0.8-3c5-8.4-0.7,1.9,4.9-2.4c0.5-0.5,4.2-7,3.1-8.1c-1.4-1.1-8.1-4.2-8.4-4.7
				c-2.1-1.8-5.4-9.2-4.2-11.8c0.5-1.2,2.4-1.1,3.1-2.1c0.5-1.2-0.2-2.8,0.4-4c-2.4-1.1-4.8-2.6-4.3-5c0.2-1.6,5.9-1.8,4.3-2.6
				c-18.6-9.2-1.9-0.8-9.6,3.5c-1.2,0.8-1.9-2.3-3.1-2.8c-0.8-0.5-2.1,0-3,0c-1.1,0-2.1,0.5-3.1,0.2c-0.5-0.4-0.2-1.2-0.5-1.9
				c-0.8-1.8-8.4,1.1-4.2-1.9c1.1-0.7,3.8-1.4,2.8-2.1c-0.8-0.5-2.6,0-3-1.1c-0.2-1.1,3.5-3,1.1-4.3c-3.4-1.9-10.1-1.1-12.2-5
				c-0.5-0.8-0.5-5-0.5-6.2c0-0.2,0-0.4,0-0.4c-0.5,0.2-0.8,1.2-1.2,0.8c-1.2-0.7-1.4-2.6-2.4-3.5c-1.1-0.7-2.6-0.5-3.8-1.4
				c-1.1-0.5-1.6-1.8-2.3-2.6c-0.8,0-1.8-0.8-2.6-0.8c-0.2,0-4.8,1.4-4.9,1.4c-3-0.2,0.4-2.8-3.8-0.2c-1.9,1.1-3,3.1-4.7,4.3
				c-1.6,1.2-2.3-0.5-2.8,0c-2.3,2.6-2.4,2.8-3.8,2.8l0.2,0.4c3,4.2,2.3,3.1,1.9,7.2c0,1.8,3.8-0.5,3.5,1.4c-0.2,1.1-1.4,0-1.6,0.2
				c-1.1,1.1,0.7,1.4,0.7,1.9c0,0.2-1.6,0.5-0.7,1.2c2.1,1.4,4.9,2.1,7.3,2.1c0.5,3.5-3.8,0-4,0.8c-0.2,2.3-1.8,3.1,0.5,5.4
				c0.2,0.2,0.2,0.5,0,0.7c-0.7,1.2-3.4,0.4-1.8,2.1c1.8-0.5,3.1-1.6,5-1.4c0,5.4-3.1,9.2-2.6,12.5c0.7,3.8,1.8,1.1,4.2,2.1
				c1.6,0.7,1.9,3,3.5,3.8c0.5,0.2,2.3-0.4,1.8,1.2c-1.1,3.5-5.4-0.4-6.3,0.8c0,0,7.9,7.3,5.8,9.7c-0.7,0.5-1.6-1.2-2.4-0.8
				c-1.1,0.4-1.2,1.8-1.9,2.6l1,0.9c0.5,0.2,0.9-0.8,1.4-0.8c0.6,0.2,1.2,0.9,1.8,1.8c0.6,0.5,1.5,1.8,2.1,2.4
				c0.3,0.6,0.4,1.4,0.5,2c0.2,0.7,0.3,1.2,0.8,1.5c0.4,0.3,0.8,0.4,1.1,0.5c0.5,0.1,1,0.2,1.4,0.8l1.8-1.2c0.6,0.8,1.8,0.9,2,1.9
				c0.1,0.2,1.8,0.5,1.8,0.8c0,0.2,1.8-0.3,1.8-0.2c-0.1,1.1-0.5-0.5,0.3,0.2c0.2,0.7,1.3-0.2,1.1,0.5c-0.1,0.3,0.7,0.1,0.7,0.5
				c0.7,0.6,0.7-0.5,0.6,2c-0.8,0.2-0.8,0.3-1.2,0.5c-0.4,0.2-0.3,0.5-0.7,0.5c-0.4,0.1-0.5,0.2-0.8,0.3c-0.3,0.2-0.8,0.2-1.1,0.5
				c-0.2,0.4,0,0.3-0.5,0.5s-0.8,0.1-0.9,0.4c-0.1,0.4-0.1,0.5-0.1,0.5s-0.1,0.4,0,0.6c0.2,0.2,0.8,0.3,0.9,0.5
				c0.2,0.2,0.2,0.3,0.4,0.6c0.2,0.3,0.3,0.5,0.3,0.5L91.5,189.8L91.5,189.8z"/>
			<path id="path2759" fill="#FF9400" d="M107.4,178c-0.5,0-0.8,0.2-0.8,0.5c-0.4,1.8-10.6,4.3-11.2,4.3c0,0.2,0,0.5,0,1
				c-0.8,0.2-0.8,0.3-1.2,0.5c-0.4,0.2-0.3,0.5-0.7,0.5c-0.4,0.1-0.5,0.2-0.8,0.3c-0.3,0.1-0.8,0.2-1.1,0.5c-0.2,0.4,0,0.3-0.5,0.5
				c-0.5,0.2-0.8,0.1-0.9,0.4c-0.1,0.4-0.1,0.5-0.1,0.5s-0.1,0.4,0,0.6c0.2,0.2,0.8,0.3,0.9,0.5c0.2,0.2,0.2,0.3,0.4,0.6
				c0.2,0.3,0.3,0.5,0.3,0.5v0.5c2.8,0,2.3,4.3,3.8,5.3c0.5,0.4,1.1-0.4,1.8-0.2c1.2,0.4,2.4,0.9,3.4,1.8c2.3,2.4,1.9,5.2,1.4,7.5
				h0.5c4.3,3,1.9-4.3,3-5c1.9-1.2,4-2.8,6.3-3c0.8,0,2.4,2.1,2.8,1.2c0.2-0.7-0.5-1.4-0.4-1.9c1.2-3,2.3-2.3,4.3-2.1l-0.2-0.7
				c0,0-4.7-5.2-4.4-8.8C114.2,180.9,109.4,178,107.4,178z"/>
		</g>
		<text transform="matrix(1 0 0 1 87.7056 159.252)" fill="#FFFFFF" font-family="'OpenSans-Extrabold'" font-size="8.2373">SERBIA</text>
		<rect x="174.7" y="143.6" fill="#FF9400" width="74" height="16.1"/>
		<text transform="matrix(1 0 0 1 252.5118 153.6319)" fill="#FF9400" font-family="'OpenSans-Bold'" font-size="5.8838">€1,059,808 INVESTED</text>
		<circle fill="#FF9400" stroke="#FF9400" stroke-miterlimit="10" cx="177.4" cy="169.8" r="2.8"/>
		<circle fill="#FF9400" stroke="#FF9400" stroke-miterlimit="10" cx="185.7" cy="169.8" r="2.8"/>
		<circle fill="#FF9400" stroke="#FF9400" stroke-miterlimit="10" cx="193.8" cy="169.8" r="2.8"/>
		<circle fill="#FF9400" stroke="#FF9400" stroke-miterlimit="10" cx="202.1" cy="169.8" r="2.8"/>
		<circle fill="#FF9400" stroke="#FF9400" stroke-miterlimit="10" cx="210.3" cy="169.8" r="2.8"/>
		<circle fill="#FF9400" stroke="#FF9400" stroke-miterlimit="10" cx="177.4" cy="176.8" r="2.8"/>
		<circle fill="#FF9400" stroke="#FF9400" stroke-miterlimit="10" cx="185.7" cy="176.8" r="2.8"/>
		<circle fill="#FF9400" stroke="#FF9400" stroke-miterlimit="10" cx="193.8" cy="176.8" r="2.8"/>
		<circle fill="none" stroke="#FF9400" stroke-miterlimit="10" cx="202.1" cy="176.8" r="2.8"/>
		<circle fill="none" stroke="#FF9400" stroke-miterlimit="10" cx="210.3" cy="176.8" r="2.8"/>
		<circle fill="#FF9400" stroke="#FF9400" stroke-miterlimit="10" cx="218.6" cy="169.8" r="2.8"/>
		<circle fill="#FF9400" stroke="#FF9400" stroke-miterlimit="10" cx="226.8" cy="169.8" r="2.8"/>
		<circle fill="#FF9400" stroke="#FF9400" stroke-miterlimit="10" cx="235.1" cy="169.8" r="2.8"/>
		<circle fill="#FF9400" stroke="#FF9400" stroke-miterlimit="10" cx="243.2" cy="169.8" r="2.8"/>
		<circle fill="#FF9400" stroke="#FF9400" stroke-miterlimit="10" cx="251.6" cy="169.8" r="2.8"/>
		<circle fill="none" stroke="#FF9400" stroke-miterlimit="10" cx="218.6" cy="176.8" r="2.8"/>
		<circle fill="none" stroke="#FF9400" stroke-miterlimit="10" cx="226.8" cy="176.8" r="2.8"/>
		<circle fill="none" stroke="#FF9400" stroke-miterlimit="10" cx="235.1" cy="176.8" r="2.8"/>
		<circle fill="none" stroke="#FF9400" stroke-miterlimit="10" cx="243.2" cy="176.8" r="2.8"/>
		<circle fill="none" stroke="#FF9400" stroke-miterlimit="10" cx="251.6" cy="176.8" r="2.8"/>
		<circle fill="none" stroke="#FF9400" stroke-miterlimit="10" cx="259.7" cy="176.8" r="2.8"/>
		<circle fill="none" stroke="#FF9400" stroke-miterlimit="10" cx="268" cy="176.8" r="2.8"/>
		<text transform="matrix(1 0 0 1 279.0284 171.6524)" fill="#FF9400" font-family="'OpenSans-Bold'" font-size="5.8838">29 FOUNDERS</text>
		<text transform="matrix(1 0 0 1 279.0284 178.7129)" fill="#FF9400" font-family="'OpenSans-Bold'" font-size="5.8838">47</text>
		<text transform="matrix(1 0 0 1 285.7462 178.7129)" fill="#FF9400" font-family="'OpenSans-Bold'" font-size="5.8838"> </text>
		<text transform="matrix(1 0 0 1 287.503 178.7129)" fill="#FF9400" font-family="'OpenSans-Bold'" font-size="5.8838">JOBS CREATED</text>
		<text transform="matrix(1 0 0 1 174.8018 136.2974)" fill="#FF9400" font-family="'OpenSans-Light'" font-size="16.2855">12 TEAMS</text>
		<circle fill="#FF9400" stroke="#FF9400" stroke-miterlimit="10" cx="259.7" cy="169.8" r="2.8"/>
		<circle fill="#FF9400" stroke="#FF9400" stroke-miterlimit="10" cx="268" cy="169.8" r="2.8"/>
	</g>
	<g>
		<rect x="174.2" y="246.8" fill="#FF9400" width="23.4" height="16.1"/>
		<path id="hr" fill="#FF9400" d="M134.4,311.4l-0.3-1.1c-2-3.3-5-2.1-8.8-4.9c-1-0.8-1.3-2.3-2.4-2.6c-0.7-0.3-1.4,0.3-2.3,0.5
			c0.3,0.2,0.5,0.2,0.8,0.3c0.3,0.2,0.7,1.1,0.3,1.1c-2.6-0.2-4.7-2.6-7.2-3c-1.1-0.2-2.4,0.2-3.6,0c-0.3,0-0.7-0.8-0.8-0.7
			c-0.3,0.2-0.3,1,0,1.1c1,0.3,2.1-0.2,3.3,0c1,0.2,2.1,0.5,3.3,1.1c0.3,0.2,0.2,0.8,0.5,1c5.7,3,4.4-1.8,13.1,5
			C131.5,310.3,133,311.1,134.4,311.4L134.4,311.4z M137.3,258.8c-1.4-1.6,1-0.8,1.6-2c0.2-0.2,0.2-0.5,0-0.7c-2.1-2.1-0.7-3-0.5-5
			c0.2-0.8,4.3,2.4,3.8-0.8c-2.3,0-4.9-0.7-6.9-2c-0.8-0.7,0.7-1,0.7-1.1c0-0.5-1.6-0.8-0.7-1.8c0.2-0.2,1.3,0.8,1.4-0.2
			c0.2-1.8-3.3,0.3-3.3-1.3c0.3-3.8,1-2.7-1.8-6.8l-0.2-0.3c-0.5,0.2-1,0.2-1.8,0.3c-1.1,0-1.3,2.3-1.6,2.6c-2.1,1.8-9.3,2-11.7,1
			c-1.1-0.5-2.1-1.6-3.4-2.1c-0.3-0.2-3.6,0.3-4.1-0.3c-3.4-4.4-7.2-6.4-11.7-10.1c-1.1-0.2-3.9-0.8-4.7-0.7
			c-1.8,0.3,0.7,2.6-0.3,3.3c-0.8,0.3-1.8-0.2-2.6,0.2c-0.3,0.2,0.2,0.8-0.2,1.1c-1.6,1.3-4.3,1.4-5.9,3c-2,1.8,3.6,6.4,1.1,8.2
			c-5.8,4.1-2.1-2.8-5.9,2.6c-0.5,0.7,1.4,0.8,1.8,1.6c0.3,0.7-1.6,0.5-1.6,1.1c0,0.3,1.6,2.4,1,3.3c-1.8,1.8-4.4-1-6-1
			c-2.4,0,2.3,2.3-1.8,1.1c-1.1-0.3-2.6-2.1-3.1-3.1c-0.3-0.3-0.7-1.3-0.8-1c-0.7,1-0.5,2.1-1.1,3c-2.1,2.7-5,0-7.5,0.8
			c-0.3,0.2,0.3,0.8,0,1.1c-1.4,0.8-4.4,0.7-5.9,0c-0.5,0-1.4-0.5-1.4,0c0.2,1.3,1.3,2.3,1.8,3.4c0,0.2-0.3,0.2-0.3,0.3
			c0.2,1.3-0.2,2.6,0.5,3.6c0,0,0.2,0,0.2,0.2c-0.7,1,2,2.1,2.8,3.3c0.7,1,1.1,5.3,2,4.3c0.9-1,1.3-2.3,2-3.4c0.2-0.5,0.3-1,0.3-1.4
			c0-0.2-0.5,0-0.5-0.3c0-0.2,0-0.8,0.2-0.7c0.7,0.2,0.2,3.9,2,1c0.3-0.8,0.3-1.6,0.3-2.6c0-0.2-0.3-0.3-0.3-0.7
			c0-0.2,0.2,0.5,0.3,0.3c1.3-0.7,0.2-5,1.6-5c4.8-0.3,3.1,1.4,6,3.9c0.7,0.5,1.6,0,2.1,0.5c3,3.4-0.5,7.8,2.8,11.3
			c1,1.1,3.8,3.6,4.9,4.4c1.3,0.7,5.4,1.3,4.1,1.8c-2.3,0.7-6.7-4.1-5.9,2.1c0.2,2,7.8,6.2,8.8,7.8c0.3,0.2-1.3-0.5-1-0.3
			c1,0.7,5.3,2,5.4,2.4c0.3,1.1-0.7,3,0.2,3.9c0.5,0.3,5.7-1.4,5.8-1.6c3.3-0.7,1,0.7,5,2.1c1.3,0.3,2.8-0.2,4.1,0.3
			c1.8,0.7,3,3.6,4.9,4.7c2.3,1,3.8,1.6,4.4,2.3c0,0.2,0.2,0,0.2,0c0.3,0,0.7-0.3,0.8,0c0.7,1.1-0.3,1.1,1.1,1.8
			c0.5-0.5,1.6-0.5,1.8-1.1c0.8-2.1-6.2-4.9-6.9-6c-0.7-1-0.2-2.4-0.8-3.4c-0.5-0.7-1.6-0.5-2.4-0.8c-3.4-2.1-5.7-6-8.6-8.6
			c-1-0.7-4.8-4.4-5.9-4.9c-0.5-0.2-1.1,0.5-1.6,0.2c-0.8-0.8,1.1-2.6,1.1-3c-0.2-0.7-1-0.8-1.4-1.3c-1.3-2-1.8-4.7-3.6-6.2
			c-0.7-0.8-2-0.8-2.8-1.4c-0.7-0.5-1.8-10.1,1.8-9.8c1.6,0,4.4,3.6,5.9,4.4l1.3-0.2l-1.3,0.2c2-0.2,1.6-3.3,2.6-4.7
			c1.8-2.1,2.6,0.5,4.9,0c0.7-0.2,0.7-1.4,1.3-2c0,0,1,1,3.8,1.8c0.3,0.2,0.8,0.3,1.3,0.2c0.3,0,0.5-0.7,1-0.8c2-0.2,6.4,2.3,8.6,2
			c0.5,0,1-0.3,1.1-0.8c0.5-0.3,0.3-1.4,1-1.4c1-0.2,1.6,0.8,2.6,1.1c1.8,0.5-0.3-0.8,0.7-1.1c1-0.2,2.1-0.3,3.1,0
			c0.7,0.2,1.1,1.1,1.8,1.1c0.5,0,0-1.1,0.5-1.1c3.8,0.2,2.8,4.3,4.7,4.7C135.4,259.3,136.5,259,137.3,258.8L137.3,258.8z"/>
		<text transform="matrix(1 0 0 1 101.2627 270.1162)" fill="#FF9400" font-family="'OpenSans-Extrabold'" font-size="8.2373">CROATIA</text>
		<text transform="matrix(1 0 0 1 201.5772 256.6187)" fill="#FF9400" font-family="'OpenSans-Bold'" font-size="5.8838">€330,000 INVESTED</text>
		<circle fill="#FF9400" stroke="#FF9400" stroke-miterlimit="10" cx="176.6" cy="272.9" r="2.7"/>
		<circle fill="#FF9400" stroke="#FF9400" stroke-miterlimit="10" cx="184.8" cy="272.9" r="2.7"/>
		<circle fill="#FF9400" stroke="#FF9400" stroke-miterlimit="10" cx="193.1" cy="272.9" r="2.7"/>
		<circle fill="#FF9400" stroke="#FF9400" stroke-miterlimit="10" cx="201.3" cy="272.9" r="2.7"/>
		<circle fill="#FF9400" stroke="#FF9400" stroke-miterlimit="10" cx="209.6" cy="272.9" r="2.7"/>
		<circle fill="#FF9400" stroke="#FF9400" stroke-miterlimit="10" cx="217.8" cy="272.9" r="2.7"/>
		<circle fill="#FF9400" stroke="#FF9400" stroke-miterlimit="10" cx="226.1" cy="272.9" r="2.7"/>
		<circle fill="#FF9400" stroke="#FF9400" stroke-miterlimit="10" cx="233.9" cy="272.9" r="2.7"/>
		<circle fill="#FF9400" stroke="#FF9400" stroke-miterlimit="10" cx="242.2" cy="272.9" r="2.7"/>
		<circle fill="#FF9400" stroke="#FF9400" stroke-miterlimit="10" cx="250.4" cy="272.9" r="2.7"/>
		<text transform="matrix(1 0 0 1 268.5675 274.4732)" fill="#FF9400" font-family="'OpenSans-Bold'" font-size="5.8838">22 FOUNDERS</text>
		<text transform="matrix(1 0 0 1 268.5675 281.5274)" fill="#FF9400" font-family="'OpenSans-Bold'" font-size="5.8838">25 JOBS CREATED</text>
		<text transform="matrix(1 0 0 1 174.2793 239.3794)" fill="#FF9400" font-family="'OpenSans-Light'" font-size="16.2855">7 TEAMS</text>
		<circle fill="#FF9400" stroke="#FF9400" stroke-miterlimit="10" cx="258.1" cy="272.9" r="2.7"/>
		<circle fill="none" stroke="#FF9400" stroke-miterlimit="10" cx="176.6" cy="279.9" r="2.7"/>
		<circle fill="none" stroke="#FF9400" stroke-miterlimit="10" cx="184.8" cy="279.9" r="2.7"/>
	</g>
	<g>
		<path id="ro" fill="#FF9400" d="M137.3,379.8c-1.4,0.3-3.8,1.1-5.2-0.1c-0.5-0.4-0.5-1.6-1.1-1.4c-0.3,0.1-0.5,0.5-0.8,0.5
			c-2.2,1.1,0.8-0.6-1.6-0.5c-0.8,0-1.3,0.8-2,0.9c-1.5,0.2-0.3-2-4.3-0.5c-1.8,0.8-4.9,2.2-6.3,3.5c-1.5,1.5-1.8,3.4-3.8,4.8
			c-1.8,1.1-3.2,0.4-5,0.3c-1.4-0.1-3-0.2-4.3,0.3c-0.5,0.2-0.8,0.9-1.3,1.1c-2.5,0.9-5.7-0.5-8.2-0.3c-2,0.2-2.8,1.8-4.8,0.9
			c-1.5-0.6,1.9-2.8,1.1-3c-1.4-0.6-5.8-1.5-5.7-3.9c0.1-0.8,3.1-0.9,2.2-1.4c-9.7-4.8-1-0.5-4.9,1.8c-0.6,0.5-1-1.1-1.6-1.4
			c-0.5-0.3-1.1,0-1.5,0c-0.5,0-1.1,0.3-1.6,0.1c-0.3-0.2-0.1-0.6-0.3-1c-0.5-0.9-4.3,0.5-2.2-1c0.5-0.4,1.9-0.8,1.4-1.1
			c-0.5-0.3-1.4,0-1.5-0.5c-0.1-0.5,1.8-1.5,0.5-2.3c-1.8-1-5.2-0.5-6.3-2.8c-0.3-0.5-0.3-2.7-0.3-3.2c0-0.1,0-0.2,0-0.2
			c-0.3,0.1-0.5,0.6-0.6,0.5c-0.6-0.4-0.8-1.4-1.3-1.8s-1.4-0.3-1.9-0.8c-0.5-0.3-0.8-0.9-1.1-1.4c0.2-0.1,0.3-0.5,0.5-0.5
			c0.5-0.2,3.3-0.5,3.4-1.1c0.2-0.4-1.1-0.8,0.5-1.1c0.6-0.1,1.3,0.5,1.8,0.4c1.8-0.6,1.1-3.9,1.6-4.9c0.2-0.3,0.6-0.3,0.8-0.5
			l1-3.2c0.2-0.5,0.5-0.8,0.5-1.3c0-0.2-0.5-0.2-0.5-0.4c0.1-0.8,1.1-3.4,1.5-4.1c0.2-0.2,0.6,0,0.6-0.3c0.5-1.8-0.2-3,1.8-4.9
			c0.6-0.8,1.4-0.3,2.4-0.6c1-0.5,1.1-1.8,1.8-2.5c0.3,0.2,0.8-0.2,1.4-1.9c0.1-0.2,0.1-0.5,0.3-0.5c0.3,0,2.5,1.1,2.8,1.1
			c0.2,0,0.3-0.5,0.5-0.5c1.1-0.5,4.2,0.8,5.7,0.4c0.8-0.3,1.4-1,2.3-1.1c1.4-0.1,2.4,1.8,3.4,2.1c1.4,0.5,1.8-2.1,2.2-2.4
			c1.6-1.8,5.8-1.5,7.2-2.8c2.4-2.4-1.1-0.4,0.6-2.8c0.5-0.5,1.2-1,1.9-1.1l0.1-0.3l0.4-0.8l0,0c-0.1,0.2-0.1,0.5-0.1,0.8
			c1.3-0.6,2.1-0.1,3.1,0.8c1.9,1.4,2.3,3.8,3.8,5.2c2.5,2.4,9.6,6.8,10.3,10.4c0.6,2.3-0.2,4.8,0.4,7.2c0.2,1,1.8,3.3,1.8,4.3
			c0,0.4-0.8,0.5-0.6,0.8c0.1,0.4,0.6,0.2,0.9,0.4c0.3,0.2,0.3,0.8,0.6,0.8c0.2,0.1,0.5-0.1,0.6,0.1c0.3,0.3,0.2,0.8,0.5,1.1
			c0.4,0.4,4.3,0.5,4.2,0.1c0-0.1-1.3-0.4-0.4-0.9c0.5-0.3,1.2-0.2,1.8-0.5c0.9-0.5,1.3-1.8,2.3-2.1c2-0.8,3,0,3.4,1.8
			c-0.1,0.1-0.4,0-0.4,0.1c0,0.3,0.2,0.5,0.4,0.5c0.2,0.1,0.4-0.3,0.5-0.1c0.2,0.4,0.3,3.4,0.3,3.8c-0.1,1.1-2.8,1.3-3.5,1.8
			c-0.5,0.4-0.5,1.6-1,1.5c-0.1-0.1,0.6-3.1-0.6-3.8c-0.5-0.2-1,0.5-1.3,1c-0.4,0.6,1.3,1.1,1.2,1.9c0,0.8-1.4,1.1-1,1.8
			c0.4,0.5,1.1-0.8,1.8-0.8c0.2-0.1-0.1,0.5-0.3,0.6c-0.1,0.1-0.2,0.2-0.4,0.3c0.1-0.1,0.2-0.1,0.3,0c0.5,0.5-1.6,4-1.6,4.1
			c0.1,0.6,0.9,3.8,1.4,6.8L137.3,379.8L137.3,379.8z"/>
		<text transform="matrix(1 0 0 1 80.981 365.2041)" fill="#FFFFFF" font-family="'OpenSans-Extrabold'" font-size="8.2373">ROMANIA</text>
		<rect x="174.2" y="349.5" fill="#FF9400" width="14.7" height="16.1"/>
		<text transform="matrix(1 0 0 1 193.0186 359.585)" fill="#FF9400" font-family="'OpenSans-Bold'" font-size="5.8838">€200,000 INVESTED</text>
		<circle fill="#FF9400" stroke="#FF9400" stroke-miterlimit="10" cx="177" cy="375.7" r="2.7"/>
		<circle fill="#FF9400" stroke="#FF9400" stroke-miterlimit="10" cx="185.2" cy="375.7" r="2.7"/>
		<circle fill="#FF9400" stroke="#FF9400" stroke-miterlimit="10" cx="193.5" cy="375.7" r="2.7"/>
		<circle fill="#FF9400" stroke="#FF9400" stroke-miterlimit="10" cx="201.6" cy="375.7" r="2.7"/>
		<circle fill="#FF9400" stroke="#FF9400" stroke-miterlimit="10" cx="210" cy="375.7" r="2.7"/>
		<circle fill="#FF9400" stroke="#FF9400" stroke-miterlimit="10" cx="218.1" cy="375.7" r="2.7"/>
		<circle fill="#FF9400" stroke="#FF9400" stroke-miterlimit="10" cx="226.3" cy="375.7" r="2.7"/>
		<text transform="matrix(1 0 0 1 236.7706 377.6621)" fill="#FF9400" font-family="'OpenSans-Bold'" font-size="5.8838">14 FOUNDERS</text>
		<text transform="matrix(1 0 0 1 236.7706 384.7227)" fill="#FF9400" font-family="'OpenSans-Bold'" font-size="5.8838">14</text>
		<text transform="matrix(1 0 0 1 243.4874 384.7227)" fill="#FF9400" font-family="'OpenSans-Bold'" font-size="5.8838"> </text>
		<text transform="matrix(1 0 0 1 245.2422 384.7227)" fill="#FF9400" font-family="'OpenSans-Bold'" font-size="5.8838">JOBS CREATED</text>
		<text transform="matrix(1 0 0 1 174.3535 342.25)" fill="#FF9400" font-family="'OpenSans-Light'" font-size="16.2855">5 TEAMS</text>
	</g>
	<g>
		<polygon fill="#FF9400" points="419.4,344.3 418.4,342.7 417.5,342.1 417,341.7 416.8,341.2 417.1,340.8 417.5,340.7 417.9,340.2 
			417.7,339.4 417.4,339.3 416.8,339.2 416.4,339.1 416.4,338.4 416.1,338.4 415.8,338.2 415.6,337.8 415.2,337.3 415,336.3 
			414.9,336.2 415,335.7 415.2,335 415.5,334.7 415.7,334.2 415.8,333.8 415.6,333.6 415.2,333.6 415,333.4 414.5,332.8 
			414.2,332.6 410.4,332.9 409.3,332.6 407.7,333.6 406.4,333.9 406.3,334 406,334.3 406,334.4 406.2,334.5 406.2,334.8 406,335.9 
			406,336.7 406,337.3 406.4,338.2 406.9,338.7 407.2,339.3 407.3,340.2 406.8,339.4 406.4,339.3 405.4,339.2 403.6,338.2 
			402.8,338.1 402.1,338.2 400.3,338.8 399.6,338.8 397.5,338.6 397.1,338.3 397,338.9 397,339.4 396.9,339.8 396.6,340 
			396.2,340.1 395.8,340 395.2,340 394.7,340.1 394.2,340.3 394.1,341 393.8,341.3 393.8,341.8 393.2,342.2 392.4,342.3 391.8,342 
			391.2,341.3 390.4,341.1 385.5,341.3 381.7,341 380.2,341.5 379.2,342.9 378.6,342.1 378.2,342 377.2,342.7 376.7,342.7 
			376.3,342.7 376.1,342.9 375.6,343.5 375.2,344.1 374.8,345.2 374.3,346.5 374.2,346.6 373.6,346.9 372.8,347 372.7,346.9 
			372.2,347 372.1,347.2 371.9,347.5 371.7,347.8 371.4,348.4 371,348.3 370.8,348.3 370.3,348.9 370.2,349.1 369.8,349.1 
			369.2,349.1 368.9,349.3 368.7,349.8 368.3,350.6 368.1,351.3 367.6,351.4 367.3,351 367,350.4 366.6,349.8 365.7,350.1 
			365.3,350 364.4,349.6 364.3,349.4 364.2,349.3 364.1,349.1 363.8,349 362.9,349.3 357.2,349.1 356.8,349 355.3,347.6 
			354.9,347.5 354.4,347.3 354.1,347.3 353.2,347.5 352.7,347.4 350.2,346.2 349.4,346.2 347.6,346.5 347.3,346.5 345.5,346 
			345.1,345.9 345.1,346.2 345,346.5 345,346.8 344.8,347 344.7,347.9 344.5,348.5 344,348.8 343.2,348.8 342.4,348.9 341.8,349.5 
			341.2,350.3 340.5,351 339.2,351.8 338.6,352.2 338.2,352.3 337.9,352.3 337.6,352.7 337.2,353.5 336.7,354.3 335.9,354.8 
			336.2,355.2 336.3,355.6 336.6,356.6 336.9,357.1 336.9,357.6 337.2,357.9 337.9,357.8 337.6,357.2 338.1,357.3 338.8,357.3 
			339.2,357.6 340,357.8 340.5,358.2 341.2,359 342,359.1 342.7,359 343.4,359.2 343.6,359.8 342.7,361.2 339.7,363.5 339.2,364.3 
			339.3,364.5 339.5,364.8 339.3,365 339.2,365.3 339.1,365.4 338.7,365.8 339,366.2 339.2,366.2 339.2,366.3 339.2,366.3 
			339.2,366.4 339.8,367.2 340.7,367.2 341.6,366.8 342.5,366.6 343,367.3 342.6,368.8 341.5,371.3 341.5,372.5 341.8,373.3 
			342.6,373.8 343.5,373.8 344,373.9 345.3,374.9 347.1,375.8 349.2,379.5 349.5,379.8 349.9,380 350.2,380 350.2,380.1 350,380.6 
			348.9,381.9 347.7,382.1 346.6,381.4 345.3,381.6 345.7,382.1 346.2,382.5 346.4,382.9 346.4,383.1 342.1,383.8 341.5,383.7 
			341.6,384 341.8,384.2 342,384.4 342.2,384.4 342.2,384.6 342.1,385 342.1,385.4 342.1,385.6 343.1,386.8 346.6,386.6 
			347.9,387.3 348.2,387.8 348.6,387.9 350.1,388.1 350.4,387.9 350.7,387.5 351,387.1 352.2,386.6 352.7,386.1 352,385.4 352,385 
			352.2,384.7 352.3,384.6 353.4,384.9 353.8,385 354.2,385.4 354.9,385.9 355.7,386.3 356.3,386.3 357,386 358.2,385.4 359,385.3 
			359.6,385.3 360.7,385.9 361.9,386.3 363.1,386.1 364.2,385.5 364.7,385 365.7,384.2 366.1,383.6 366.2,383 366.3,382.1 
			366.5,381.5 366.8,381.1 367.4,380.4 367.7,380 368,379.2 368.3,379 368.7,378.8 368.9,378.8 369,379.5 369,380.2 369,380.8 
			369.2,381.2 369.7,381.6 370.5,382.3 370.7,382.4 370.8,382.5 371.2,382.7 371.2,383 371,383.7 371,383.9 371.5,384.3 
			374.1,385.4 374.4,386.4 375.6,386.8 376.7,386.3 377.2,385.4 377.2,384.6 377.7,384.6 378.4,385 378.9,385.4 379.5,385.5 
			379.7,385.6 380.1,385.9 381.4,385.9 383.6,387.8 384.8,387.9 387.4,386.9 388.3,386.9 388.7,386.9 388.8,386.8 389.2,386 
			389.7,385.8 388.2,384.9 387.8,384.3 387.7,383.4 387.5,382.4 387.3,382 387.2,381.6 387,381.3 387.4,381.1 387.7,380.9 
			387.7,380.6 387.8,380.4 388.7,380.2 388.9,380 389.3,379.8 389.9,379.8 389.7,379.5 389.2,378.8 388.8,378.2 388.8,378.2 
			388.7,378.2 388.3,378.2 388.2,378.3 388.2,378.5 388,378.6 387.7,378.5 387.5,378.2 387.3,378.1 387,377.6 386.8,377.3 
			386.6,377.3 386.5,377 386.8,376.6 387,376.3 388,375.7 391.4,374.7 391.8,374.3 391.7,373.9 391.6,373.6 391.8,373.2 392.1,373 
			392.3,373 392.7,373.2 392.9,373.2 393.2,373.2 393.8,372.8 394,372.7 395.8,372.9 396.7,373 397.2,372.8 397.7,372.5 398,372.2 
			398,371.7 397.7,370.8 397.6,370.3 397.7,369.8 397.9,369.4 398,368.9 398,368.3 398,366.3 398.2,365.6 398.5,365 398.6,364.6 
			398.2,364.1 397.9,363.9 397.2,363.6 396.8,363.2 396.1,362.6 395.8,361.7 395.8,360.8 396.1,359.6 396.6,358.7 397,358.1 
			397.6,357.8 400,357.8 400.5,357.6 401,356.7 401.4,356.3 401.8,356.3 402.2,356.1 403.5,356.1 405.3,355 406.2,354.9 
			406.8,354.8 407.2,354.5 407.7,354.2 408.2,353.8 408.3,353.2 408.3,352.7 408.3,352.2 408.3,351.4 409.2,351.8 409.6,351.6 
			409.8,351.4 409.9,351 410.2,350.8 410.6,350.8 410.8,350.9 411.6,351.5 411.8,351.8 412.2,351.8 412.6,351.8 413.5,351.6 
			414.2,351.6 414.2,351.4 414.2,351 414.2,350.9 413.7,350.6 413.5,350.4 413.5,350.1 413.5,349.4 413.5,349.1 413.2,348 
			413.1,347.5 413.1,346.9 413.8,346 414.7,345.7 415.1,345.5 415.6,345.2 416,344.9 416.2,345.2 416.4,344.9 416.7,345.1 
			417,345.1 417.4,345.1 417.7,345.1 417.9,345.2 418.3,345.8 418.6,345.9 418.8,345.9 419.4,345.9 419.6,345.9 419.9,346.1 
			420.6,346.6 420.3,345 		"/>
		<text transform="matrix(1 0 0 1 347.9395 367.6914)" fill="#FFFFFF" font-family="'OpenSans-Extrabold'" font-size="8.2373">SLOVENIA</text>
		<rect x="441.4" y="349.5" fill="#FF9400" width="12.7" height="16.1"/>
		<text transform="matrix(1 0 0 1 458.0782 359.5884)" fill="#FF9400" font-family="'OpenSans-Bold'" font-size="5.8838">€175,000 INVESTED</text>
		<circle fill="#FF9400" stroke="#FF9400" stroke-miterlimit="10" cx="444" cy="375.7" r="2.7"/>
		<circle fill="#FF9400" stroke="#FF9400" stroke-miterlimit="10" cx="452.2" cy="375.7" r="2.7"/>
		<circle fill="#FF9400" stroke="#FF9400" stroke-miterlimit="10" cx="460.5" cy="375.7" r="2.7"/>
		<circle fill="#FF9400" stroke="#FF9400" stroke-miterlimit="10" cx="468.8" cy="375.7" r="2.7"/>
		<circle fill="#FF9400" stroke="#FF9400" stroke-miterlimit="10" cx="477" cy="375.7" r="2.7"/>
		<text transform="matrix(1 0 0 1 495.63 377.6084)" fill="#FF9400" font-family="'OpenSans-Bold'" font-size="5.8838">10 FOUNDERS</text>
		<text transform="matrix(1 0 0 1 495.63 384.6631)" fill="#FF9400" font-family="'OpenSans-Bold'" font-size="5.8838">12 JOBS CREATED</text>
		<text transform="matrix(1 0 0 1 441.4727 342.2534)" fill="#FF9400" font-family="'OpenSans-Light'" font-size="16.2855">3 TEAMS</text>
		<circle fill="none" stroke="#FF9400" stroke-miterlimit="10" cx="485.2" cy="375.7" r="2.7"/>
	</g>
	<g>
		<text transform="matrix(1 0 0 1 65.1817 462.4717)" fill="#FF9400" font-family="'OpenSans-Extrabold'" font-size="8.2373">ITALY</text>
		<rect x="174.3" y="446.8" fill="#FF9400" width="9.2" height="16.1"/>
		<text transform="matrix(1 0 0 1 187.3086 456.6866)" fill="#FF9400" font-family="'OpenSans-Bold'" font-size="5.8838">€125,000 INVESTED</text>
		<circle fill="#FF9400" stroke="#FF9400" stroke-miterlimit="10" cx="177.1" cy="472.9" r="2.7"/>
		<circle fill="#FF9400" stroke="#FF9400" stroke-miterlimit="10" cx="185.3" cy="472.9" r="2.7"/>
		<text transform="matrix(1 0 0 1 173.0694 439.4473)" fill="#FF9400" font-family="'OpenSans-Light'" font-size="16.2855">2 TEAMS</text>
		<path id="it_6" fill="#FF9400" d="M122.7,488.6c-0.8,0.4-3.1,6.3-2.6,7c0.2,0.3,1.4,0.3,1,0.5c-0.3,0.2-0.2-0.4-0.4,0
			c0,0.1-0.1,0.2-0.1,0.4c0.1,0.5,0.8,0.7,0.9,1.1c0.1,0.1-0.2,0.1-0.3,0.2c-0.3,0.2-0.5,0.3-0.8,0.6c-0.2,0.3-0.2,0.6-0.3,0.9
			c-0.1,0.3,0.2,0.8,0,1.1c-0.1,0.2-0.3-0.5-1.4-0.5c-1.1,0.1-0.7,0.5-2.2-0.2c-0.7-0.3-0.8-1.5-1.6-2c-1-0.6-1.9,0-3.1-0.5
			c-0.2-0.1-0.3-0.1-0.5-0.2c-0.2-0.2-0.3-0.5-0.6-0.7c-0.2-0.2-0.5,0-0.8-0.1c-1.1-0.4-1.9-1.4-3.1-1.8c-0.5-0.1-1.1,0.4-1.6,0.2
			c-0.1-0.1-1.4-1.5-1.4-1.8c0-0.2,0.3-0.3,0.3-0.5c0.1-0.2-0.2-0.2-0.2-0.4c0-0.2,0.1-0.5,0.3-0.8s0.5-0.3,0.8-0.5s0.5-1.1,0.8-0.8
			c0.1,0.2,0.3,1.3,0.8,1.2c1.9-0.3,0-1.7,2.4-1.6c0.6,0,0.1,0.7,0.5,0.8c0.2,0.1,0.5-0.2,0.8-0.1c0.2,0.1,0.1,0.4,0.2,0.5
			c0.3,0.2,0.8,0.5,1.1,0.5c0.1,0,1.4-0.7,1.4-0.7c0.5-0.1,1.4,0.3,2.1,0.1c1.4-0.3,1.4-0.8,2.1-1.2c1.7-0.9,0.5,0.3,2.1,0.2
			c1.1-0.1,0.3-0.7,0.8-1.1c0.2-0.2,0.2,0.5,0.3,0.5C121.7,488.8,121.7,488,122.7,488.6 M85.4,467.7c0.2,0.8,2.8,0.6,2.3,1.8
			c-0.1,0.3-1,0.2-0.9,0.6c0.1,0.4,0.9,0.3,1.1,0.6c0.1,0.1-0.3,0.2-0.3,0.3c0.3,2,0.8-0.8,1,1.8c0.1,1-1,1.3-1.2,2.1
			c-0.3,0.8,0.5,0.8,0.7,1.4c0,0.2-0.3,0.5-0.3,0.8c-0.2,1.8,0.1,4.4-1,6.3c-0.1,0.1,0-0.2-0.1-0.2c-0.8-0.3-1.8-1.1-2.8-1
			c-0.2,0,0.4,0.2,0.4,0.4c-0.1,0.2-0.3,0.3-0.4,0.6c-0.3,1.3,0.5,1.1-1,1.8c-2.2,1-0.8-1.1-1.9-1.5c-0.3-0.1-0.5,0.3-0.9,0.3
			c-0.2,0,0.7-0.1,0.8-0.3c0-0.4-0.5-0.6-0.7-1c-0.3-1.1,0.5-1.8,0.6-2.8c0.1-0.4-0.2-0.8-0.1-1.1c0.1-0.3,0.7-0.5,0.5-0.8
			c-0.1-0.3-0.7,0-0.8-0.2c-0.2-0.3,0.1-0.6,0.1-0.9c0-0.1-0.2-0.1-0.2-0.1c0.1-0.2,0.5-0.1,0.5-0.3c0.2-0.5-0.6-3.3-1-3.8
			c-0.7-0.8-1.1,1.7-0.9-1.1c0.1-0.4,0.5-0.7,0.5-1.1c0.1-0.2-0.2-0.5-0.1-0.6c0.1-0.1,0.5,1.1,1.4,1.1
			C81.7,470.8,84.9,468.3,85.4,467.7 M108.6,428.3c-0.1,1.1-1.5,0.9-1.6,1.8c-0.1,0.7,1.1,0.5,1.4,0.8c0.4,0.3-0.7,0.8-0.8,1.3
			c-0.2,0.8,0.7-0.1,0.8,0.2c0.1,0.3-0.5,1-0.1,1.2c0.5,0.3,2.8,1.7,0.8,1.6c0.1-0.3,0.1-0.5-0.1-0.8c-1.1-1-1-0.5-1.6,0.2
			c0.1-0.1,0.1-0.1,0.1-0.1c0-0.5-1.1-0.7-1.6-0.5c-0.3,0.2,0,0.8-0.2,1s-0.6,0.1-0.9,0.2c-0.8,0.3-1.5,1.2-2.4,1.4
			c-0.3,0.1-0.5-0.2-0.8-0.1c-0.2,0.1,0,0.4-0.1,0.6c-0.1,0.2-0.2,0.4-0.3,0.5c0.1-0.1,0.1-0.1,0.1-0.1c0.3,0,0.1,0.6,0.3,0.8
			c0.1,0.1,0.2-0.3,0.3-0.2c0.1,0.2,0.3,0.7,0.1,0.8c-0.1,0.1-0.2,0.2-0.1,0.3c0.1,0.1,0.2-0.1,0.3-0.1c0.3,0.3,0.9,0.5,0.9,0.8
			c0.3,1.6-1,1-1.4,1.9c-0.1,0.3,0.6,3.3,0.8,3.8c0.3,0.5,4.3,3.4,5,3.8c0.7,0.4,1,0.2,1.8,0.8c0.8,0.7,1.8,5.2,2.4,6.3
			c0.6,1.1,1.9,2.2,2.9,3.1c0.3,0.2,0.8,0.3,1.1,0.5c0.2,0.1,0,0.5,0.1,0.5c1.5,1.6,4.3,1.1,6.2,0.8c0.4-0.1,1.2-0.7,1.8-0.1
			c1.4,1.6-2.8,2.1-0.7,3.6c2,1.4,4.8,1.2,6.9,2.3c0.8,0.4,1,1,1.8,1.3c0.7,0.3,2.5,0.5,3.1,1c0.2,0.2,0,0.5,0.2,0.8
			c0.7,1,2.4,0.8,3.1,2.8c0.2,0.8-0.3,0.5-0.5,1c-0.1,0.3,0.1,1.4-0.2,1.5c-0.2,0.2-0.6,0-0.9-0.2c-1.8-0.7-1-1.7-1.9-2.9
			c-0.5-0.7-2.1,0-3-0.3c-1.1-0.4-1.8-1.7-2.8-0.5c-0.1,0.2-1.5,3-1.5,3.1c0,0.2,0.3,0.3,0.2,0.5c-0.2,1.1-1.4,1-0.4,2.3
			c0.5,0.7,0.8,0.1,1.4,0.2c0.7,0.2,1.1,0.9,1.8,1.1c0.2,0.1,0.5,0,0.7,0.2c0.1,0.2-0.2,0.4-0.2,0.6c0.1,1.6,0.8,0.1,0.7,2.1
			c-0.1,1.1-2.3,0.8-3.3,1.9c-0.8,0.8,0.2,1.7,0,2.8c-0.2,0.8-0.8,0.6-1.3,1.1c-1.4,1.1-0.4,3.9-3.3,3.1c-0.5-0.2-1.1-1.6-0.8-2.2
			c0.2-0.3,0.8-0.3,1.1-0.5c0.2-0.2,0.2-0.5,0.2-0.8c0.1-0.3,0.3-0.5,0.2-0.8c-0.1-0.3-0.6-0.5-0.5-0.8c0.2-1,1.6-0.5,2-1
			c1-1.1-0.2-1.3-0.6-1.9c-0.5-0.7-0.2-1.6-0.5-2.4c-0.2-0.5-0.4-0.8-0.7-1.1c-0.1-0.1-0.3-0.1-0.4-0.2c-1-1.5,0.1-0.6-0.6-2.3
			c-0.8-2.1-1.4-1.1-3.1-1c-0.1,0,0.1-0.2,0-0.3c-0.2-0.2-0.5-0.5-0.8-0.7c-0.3-0.2-1,0-1.2-0.4c-0.2-0.4,0.5-0.8,0.4-1.2
			c-0.1-0.4-0.4-0.8-0.6-1.1c-1.4-1.8-1.6,0.8-3.1,0.2c-0.2-0.1,1.1-1,0.5-1.4c-2-1.4-0.1,0.1-2.2-0.2c-0.2-0.1,0-0.3-0.1-0.5
			c-0.2-0.7-1.4-2.4-2-2.7c-1.5-0.5-0.3,0.5-0.8,0.4c-0.5-0.2-0.9-0.8-1.5-0.7c-0.5,0.1-0.9,0.8-1.4,0.7c-0.5-0.1-0.5-0.8-0.8-1.1
			c-0.4-0.3-1.4-0.2-1.8-0.5l-0.8-1.1c-0.4-0.3-1-0.4-1.4-0.8c-0.7-1,0.1-0.8-0.7-1.4c-0.3-0.3-0.8-0.5-1.1-0.8
			c-0.1-0.1-0.3,0.1-0.5,0.1c-0.6-0.5-0.6-1.4-1.2-2c-1.1-0.9-1.8-0.2-2.9-0.7c-0.2-0.1,0.3-0.2,0.4-0.3c0.3-0.5-0.3-1.1-0.5-1.4
			c-0.1-0.1-0.3,0-0.5-0.1c-0.2-0.2-0.2-0.5-0.4-0.8c-0.3-0.2-0.8-0.1-1.1-0.4c-0.2-0.2,0.3-0.7,0.1-0.8c-0.3-0.3-0.9,0.1-1.4-0.1
			c-0.3-0.1,0.2-0.6,0.2-0.9c0.2-1.1,0-1.5-0.6-2.4c-1.1-1.7-0.3-3.3-1.8-4.5c-0.1-0.2-0.3-0.2-0.5-0.3c-0.1,0-0.1,0.2-0.2,0.1
			c-0.3-0.1-0.5-0.5-0.8-0.5c-0.2,0,0.2,0.5,0,0.5c-0.5-0.1-0.8-0.5-1.1-0.8c-0.2-0.1-1.6-1.6-2-1.6c-0.1,0,0.1,0.3-0.1,0.3
			c-0.1,0.1-0.3,0-0.3-0.1c-0.3-0.3-1.4-0.9-2-0.9c-0.2,0-1.8,0.8-1.8,1.1c-0.1,0.2,0.1,0.5-0.1,0.8c-0.2,0.2-0.6,0.2-0.8,0.3
			c-0.4,0.4-0.7,1.3-1.1,1.7c-0.8,0.8-2,0.7-2.9,0.8c-0.3-1,1.6-2.3,0.8-2.9c-0.3-0.2-0.7,0.1-1,0.1s-0.8,0.2-1.1,0.1
			c-0.6-0.2-2.1-1.2-2-2c0-0.1,0.3-0.1,0.3-0.2c-0.1-0.2-0.6-0.3-0.5-0.7c0.2-0.2,0.5-0.4,0.7-0.7c0.1-0.1-0.1-0.2-0.1-0.3
			c0.1-0.2,0.5,0.1,0.6-0.1c0-0.5-0.1-0.9-0.2-1.2c-0.3-0.5-2.1-1.1-2-2.1c0-0.3,0.5-0.3,0.8-0.3c0.2,0,0.3,0.3,0.5,0.3
			c0.3-0.1,2.1-1.5,1.8-2c-0.2-0.3-0.8-0.4-0.9-0.8c-0.2-0.2,0.1-0.6-0.1-0.8c-0.8-1.4-2.2-0.7,0.3-2.2c0.5,1,2.1-0.1,2.8-0.3
			c0.5-0.1,0.9,0.5,1.4,0.5c0.1,0,1.6-1.6,1.6-1.9c0.1-0.3-0.5-0.4-0.4-0.6c0.1-0.3,0.5-0.5,0.8-0.7c0.3-0.2,0.5-0.5,0.8-0.7
			c0.1-0.1,0.2-0.2,0.3-0.1c0.1,0.3,0.1,0.7,0.1,1c0,0.2-0.2,0.4-0.1,0.6c0.4,0.8,1.3,0.9,1.9,1.1c0.1,0,0.2,0.1,0.2,0.2
			c-0.1,0.2-0.5,0.4-0.4,0.6c0.1,0.2,0.5,0.1,0.6,0.3c0.2,0.3,0.3,1.2,0.7,1c0.9-0.8-0.2-0.5-0.2-1.1c0-1.2,1.4-1.6,1.6-2.6
			c0-0.1-0.6-1.6,0.3-1.4c0.8,0.1-0.2,1.2,1.3,1.6c0.9,0.3,0.2-0.8,1.8-0.5c0.5,0.1,0.2,1,0.6,1.1c0.2,0.1,0.7-0.1,0.6-0.3
			c-0.1-0.2-0.3-0.3-0.4-0.5c0-0.2,0.3-0.4,0.3-0.6c-0.1-0.3-1.1-0.9-0.3-1.4c1-0.8,0.6,0.9,1.8,0.6c0.7-0.2-0.4-1-0.4-1.1
			c0.1-0.2,0.3-0.4,0.3-0.6c0.1-0.2,0.1-0.5,0.1-0.8l0,0c0.9,0.5,0.1-0.1,1,0c0.5,0.1,0.9,1.2,1.8,0.8l0.8-1.5
			c0.5-0.3,2.4-0.1,2.9-0.2c0.8-0.1,1.5-0.8,2.4-0.8c0.2,0-0.4,0.3-0.5,0.5c-0.3,1.1,0.5,0.4,0.9,1.1c0.1,0.2-0.2,0.4-0.1,0.6
			c0.1,0.1,0.2-0.1,0.3,0c1.1,0.8,1.4,0.9,2.8,1.1C105.8,427.9,107.3,428.2,108.6,428.3L108.6,428.3z"/>
		<circle fill="#FF9400" stroke="#FF9400" stroke-miterlimit="10" cx="193.1" cy="472.9" r="2.7"/>
		<circle fill="none" stroke="#FF9400" stroke-miterlimit="10" cx="201.3" cy="472.9" r="2.7"/>
		<text transform="matrix(1 0 0 1 212.0508 474.9512)" fill="#FF9400" font-family="'OpenSans-Bold'" font-size="5.8838">5 FOUNDERS</text>
		<text transform="matrix(1 0 0 1 212.0508 482.0049)" fill="#FF9400" font-family="'OpenSans-Bold'" font-size="5.8838">8 JOBS CREATED</text>
	</g>
	<g>
		<path id="am" fill="#FF9400" d="M368.7,438.2c3.2,0.5-1.2,3.5-0.8,1.2C367.9,438.9,368.3,438.6,368.7,438.2 M351.8,471.9
			c0,0,0,0,0.2,0h0.2l0,0l0,0c0.2,0,0.2,0,0.2,0s0,0,0.2,0l0,0l0,0l0,0h0.2l0,0l0,0l0,0l0,0c0.5,0,1,0.2,1.5,0.2l0,0l0,0
			c0.2,0,0.2,0,0.5,0l0,0c0,0,0.2,0,0.2,0.2l0,0l0,0c0.2,0,0.2,0,0.2,0c0.2,0,0.2,0,0.2,0l0,0h0.2l0,0l0,0c0,0.2,0.2,0.2,0.2,0.2
			h0.2l0,0c0.2,0,0.2,0,0.2,0l0,0l0,0l0,0c0.2,0.2,0.2,0.2,0.2,0.2l0,0l0,0h0.2l0,0l0,0l0,0c0,0,0,0,0.2,0c0,0,0,0,0.2,0.2l0,0l0,0
			c0,0,0,0,0.2,0l0,0l0,0l0,0c0.2,0,0.2,0,0.2,0v0.2l0,0c0.2,0,0.2,0,0.2,0l0,0h0.2l0,0c0,0,0.2,0,0.2,0.2l0,0c0,0,0,0,0.2,0l0,0
			l0,0l0,0c0.2,0,0.2,0,0.2,0c0,0.2,0.2,0.2,0.2,0.2l0,0h0.2l0,0l0,0c0.2,0.2,0.2,0.2,0.2,0.2l0,0h0.2l0,0l0,0c1,0.5,1.8,0.8,2.5,1
			l0,0c0.2,0.2,0.2,0.2,0.2,0.2l0,0c0.2,0,0.5,0,0.5,0.2c0,0,0,0,0.2,0c0.2,0.2,0.5,0.2,1,0.5c1.5-2,2.5-5,4.8-5.5
			c6.2-1.5,4,7.5,6.5,4.5c0.5-0.5,0-2,0.8-2.2c2-0.2,3.8,1.8,5.8,1.2l5-5.8c4.8-2.8,3.8,5.8,4.2,5.8c1.8,0.2,3.8-0.2,5.8,0
			c0.2,0,1,0.2,1,0.5c0.2,1-0.5,2,0,2.8c0,0,6.8,5.2,8.8,6.7c0.5-0.8,1.2-2,3.5-3.5c1.2-1,3.8,0.2,4.8-1c0,0,0.2-1,0.5-2.2
			c-0.2,1-0.2,1.8-0.5,2.2l-0.2-0.5c-2-1.8-1.8-5.2-4-6.5c-0.8-0.5-3,0.5-3-1.2c0-0.5,0.2-0.8,0.5-1c1-0.8,3.8-0.8,3.8-2
			c-0.2-5-8.2,0.2-8.2-3.8c-0.2-2.7,3.5-2,2-5.5c-1.2-2.2-6.8,2.8-8.2,2.8c-4.5,0.2-9.6-4.5-14.2-4.8c-1.5,0-3,1-4.8,0.8
			c-0.5,0,0-1,0.2-1.2c1.5-1.5,4-1.8,5.5-3c0.8-0.5,0.2-6.8-0.2-7.5c-0.5-1.2-15.5-0.2-19.5-5.5c-2.3-3,5.7-6.9,2.2-8.8
			c-1.8-0.8-3.8,0-5.5-0.8c-0.5-0.2,0.2-2.3-0.5-2.3c-1.8,0.2-7.8,3.5-8.9,2.5c-1.2-1.2,5.9-4.2,0-4.2c-1,0-1.5,1.2-2.2,1
			c-1-0.2-1.2-1.5-2-2.3c-0.2,0.5-0.5,1.2-1,1.5c-1,0.5-4,1-3,1.5c0.5,0.2,2.3,0.5,1.8,1c-4.2,3-11.2,4-14.7,7.2
			c-4.8,3.8-8.2,8.6-14.2,11.5l-0.2,0.2c0-0.2-0.2-0.5-0.2-0.8c0.5,0.8,0.2,2,1,2.8c2,1.8,9.8,1.2,11.2,7.7
			c0.8,3.5-1.5,9.2,1.2,12.3c1.5,1.5,3.8,2,4.8,3.8c0.5,0.5-1.5,2.2-0.8,2.2C342.5,476.6,346.2,472.2,351.8,471.9L351.8,471.9z
			 M351.7,431.8c0.5,0.2,1,0.2,1.2,0.5C353.4,433.7,348.6,433.7,351.7,431.8z"/>
		<text transform="matrix(1 0 0 1 335.9004 456.876)" fill="#FFFFFF" font-family="'OpenSans-Extrabold'" font-size="8.2373">ARMENIA</text>
		<rect x="441.6" y="446.8" fill="#FF9400" width="14.7" height="16.1"/>
		<text transform="matrix(1 0 0 1 459.5157 456.876)" fill="#FF9400" font-family="'OpenSans-Bold'" font-size="5.8838">€200,000 INVESTED</text>
		<circle fill="#FF9400" stroke="#FF9400" stroke-miterlimit="10" cx="444.2" cy="473" r="2.7"/>
		<circle fill="#FF9400" stroke="#FF9400" stroke-miterlimit="10" cx="452.5" cy="473" r="2.7"/>
		<circle fill="none" stroke="#FF9400" stroke-miterlimit="10" cx="460.7" cy="473" r="2.7"/>
		<circle fill="none" stroke="#FF9400" stroke-miterlimit="10" cx="469" cy="473" r="2.7"/>
		<circle fill="none" stroke="#FF9400" stroke-miterlimit="10" cx="477.1" cy="473" r="2.7"/>
		<circle fill="none" stroke="#FF9400" stroke-miterlimit="10" cx="485.3" cy="473" r="2.7"/>
		<text transform="matrix(1 0 0 1 512.5547 474.8955)" fill="#FF9400" font-family="'OpenSans-Bold'" font-size="5.8838">4 FOUNDERS</text>
		<text transform="matrix(1 0 0 1 512.5547 481.9502)" fill="#FF9400" font-family="'OpenSans-Bold'" font-size="5.8838">16 JOBS CREATED</text>
		<text transform="matrix(1 0 0 1 441.6017 439.541)" fill="#FF9400" font-family="'OpenSans-Light'" font-size="16.2855">1 TEAM</text>
		<circle fill="none" stroke="#FF9400" stroke-miterlimit="10" cx="493.6" cy="473" r="2.7"/>
		<circle fill="none" stroke="#FF9400" stroke-miterlimit="10" cx="501.8" cy="473" r="2.7"/>
	</g>
	<g>
		<path id="lv" fill="#FF9400" d="M62.2,579.6c0.7,0,1.3,0.2,1.8-0.3c0.7-1,0.5-2.4,1.1-3.4c1.3-1.6,6.5-4.9,8.6-5.3
			c1.1-0.3,6.3,0,7.5-0.3c0.7-0.2,1.1-1.4,1.8-1.4c1.1,0.2,1.8,2.9,2.4,2.1c0.5-0.3,0.3-1.1,0.8-1.6c1.4-1.4,2.1,0.2,3.9,0
			c1-0.2,1.4-1.1,2.4-1.1c0.2-0.2,5,1.1,5.2,1c0.8-0.2,1.1-1.3,2-1.4c1.4-0.3,1.4,2.1,2.8,0.2c1-1.1,1-3.9,2.9-4.2
			c1.6-0.3,2.3,4.9,4.3,4.9c2.1,0,4.2-1.3,6.3-0.7c3.1,0.8,7.9,6.8,11.8,7.5c4,0.7,4.2-5.5,6.7-5.3c0.8,0,1.3,1,2,1
			c0.5,0,0.2-1.1,0.5-1.3c1-0.3,2.3,0.7,3.1,0c0,0,0.8-4.9,1.1-5.3c0.3-1,3.4-3.4,3.4-3.6c1.3-4.8-3.4-9.2-6.2-11.5
			c-1.1-0.8,1.1-2.3-1.1-2.6c-0.8-0.2-1.4,1.1-2.3,1c-0.3,0,0-0.5,0-0.8c0-0.2,0.2-0.5,0.2-0.7c0-1.1,0.3-2.3,0.2-3.4
			c-0.2-0.5-1.3-0.3-1.3-0.8c0-2.1,3.9-3.4-1.4-5.3c-0.7-0.2-1.6-0.2-2.1-0.7c-0.5-0.6,0.3-1.8-0.3-2.1c-0.7-0.5-1.3,0.3-2.1,0.5
			c-0.2,0.8-5-1-5.7-0.8c0,0-3.1,3.4-3.3,3.4c-1.1,0.2-6.3-3.3-6.9-4.2c-0.3-0.3,0.3-1.3-0.2-1.4c-1-0.3-2,0.7-2.9,0.3
			c-0.5-0.2-0.3-1.1-0.8-1.3c-0.5,0-1,1-1.4,0.8c-1-0.3-2.8-2.8-4.2-2.8c-0.3,0,0,0.5,0,0.8c0,0.2,0.2,0.2,0.2,0.3
			c0.5,2.1-1.3-1-2.3-0.3c-1.4,1.1-6.5,5.9-7.8,6.2l-0.3-0.2c0.2,0.3,0.2,0.8,0.2,1.3c0.7,3.4,4.9,8.2,3.9,11.8
			c-0.5,2.3-4.3,6.9-6.8,7.3c-1,0.2-1.6-0.8-2.4-1c-1.6-0.5-2,0.7-2.9-1c-1.1-1.6-1.1-3.9-2.6-5.2c-1.4-1.4-4.9-2.1-6.5-3.6
			c-1-0.8,0-2.9-1-3.4c-1.4-0.6-2.6,1.6-3.9,2.4c-1.6,1.3-3.9,1.6-5.3,3.3c-3.9,4-0.5,8.8-2,12.8c-0.5,1.6-2.6,2.3-3.1,3.9
			c-0.3,1,0.5,2,0.5,3.1s-0.5,2.3-0.2,3.3c0,0.2,0.2,0.3,0.3,0.3l0,0C58.7,572.3,61.2,577.3,62.2,579.6L62.2,579.6z"/>
		<text transform="matrix(1 0 0 1 101.6964 555.7481)" fill="#FFFFFF" font-family="'OpenSans-Extrabold'" font-size="8.2373">LATVIA</text>
		<rect x="174.5" y="545.8" fill="#FF9400" width="3.8" height="16.1"/>
		<text transform="matrix(1 0 0 1 181.9649 555.7481)" fill="#FF9400" font-family="'OpenSans-Bold'" font-size="5.8838">€50,000 INVESTED</text>
		<circle fill="#FF9400" stroke="#FF9400" stroke-miterlimit="10" cx="177.4" cy="571.9" r="2.7"/>
		<circle fill="none" stroke="#FF9400" stroke-miterlimit="10" cx="185.7" cy="571.9" r="2.7"/>
		<circle fill="none" stroke="#FF9400" stroke-miterlimit="10" cx="193.8" cy="571.9" r="2.7"/>
		<text transform="matrix(1 0 0 1 204.3214 573.7686)" fill="#FF9400" font-family="'OpenSans-Bold'" font-size="5.8838">2 FOUNDERS</text>
		<text transform="matrix(1 0 0 1 204.3214 580.8291)" fill="#FF9400" font-family="'OpenSans-Bold'" font-size="5.8838">5 JOBS CREATED</text>
		<text transform="matrix(1 0 0 1 174.8536 538.4131)" fill="#FF9400" font-family="'OpenSans-Light'" font-size="16.2855">1 TEAM</text>
	</g>
	<g>
		<polygon fill="#FF9400" points="416.1,552 415.8,551.9 413.6,550.8 412.8,550.3 411.6,549.4 410.3,548.8 410.1,548.7 408.2,548.6 
			407.3,548.3 403.4,544.5 401,542.8 400.6,542.3 400.3,541.8 400.1,541.2 399.8,540.8 399.3,540.7 399,540.8 398.1,541.8 
			397.7,542.1 396.2,542.2 395,542.1 394.1,541.8 393.5,541.2 393.2,540.9 392.4,540.1 391.2,537.9 390.9,537.8 390.8,538 
			390.7,538.3 390.2,538.4 390.1,538.4 389.3,538.3 388.2,537.9 387.7,537.8 386.8,537.3 386.6,537.2 386,536.7 385.3,535.8 
			384.7,535 384,534.4 383.3,533.8 382.9,533.3 382.2,531.6 381.7,531 379.6,528.8 379.2,528.5 377.7,526 377,525.5 371.5,523.1 
			370.9,522.6 370.5,522.2 370.2,521.6 369.9,520.7 369.9,519.2 370.7,517.9 368.8,517.7 367.8,517.8 367.1,518.5 366.8,518.9 
			366,519.2 365.1,519.3 364.4,519 364.1,518.7 363.9,518.3 363.7,517.9 363.5,517.7 363.2,517.3 363,517.1 362.1,517.1 
			361.5,517.7 360.5,518.8 360,518.9 359.7,519 359.6,519.2 359.3,519.3 359.2,519.7 359.2,519.8 359.2,520.2 359.3,520.3 
			359.6,520.6 360.2,520.7 360.4,520.8 360.5,520.8 360.7,521.2 361,521.7 361,521.9 361,522.2 360.9,522.4 360.9,522.8 
			361.7,522.6 361.8,522.7 361.9,522.7 362.1,522.9 363.3,524.5 364,526.5 364.4,527.8 365.2,529.2 365.7,530.1 365.4,530.3 
			365.4,530.3 364.3,530.4 363.8,530.6 363.5,531 363.3,531.6 363,532 362.8,532.2 362.6,532.3 362.5,532.1 362.5,532 361.7,531 
			361.2,530.3 361.2,530.1 361.2,529.9 361.2,529.1 360.9,528.7 359.9,528 359.3,527.8 358.8,527.8 357.2,527.9 356.6,528 
			356.3,528 355.8,528.3 355.9,528.5 356.2,529 356.3,529.1 356.3,529.2 355.6,529.4 355.2,529.6 354.3,530.2 350.2,533.3 
			349.8,533.8 349.5,534.2 350.3,534.5 350.5,534.5 349.5,536 348.8,537 348.2,538.3 347.8,540.1 347.8,541.4 348.5,545.5 
			348.5,545.6 347,545.4 344.6,545.5 344.2,545.5 342.4,545.9 341.2,547.1 340.3,549.2 340.3,550.2 340.5,550.3 340.7,551.3 
			341.8,553.3 341.9,554.2 341.9,554.2 341.9,554.2 341.6,554.8 341.2,555.2 340.7,555.7 340.7,555.8 340.7,556.8 341.1,557.7 
			341.2,558.1 341.2,558.3 341.7,559.3 342.7,561 343.1,561.6 343.9,562.3 344.6,563.3 345,564.8 345,566.2 344.5,567.3 
			343.7,568.1 343.1,568.5 342.5,568.9 342.6,569.1 342.7,569.4 342.9,570 342.7,570.3 342.4,570.4 341.9,570 341.5,570 341,570.3 
			340.6,570.6 340.7,571.4 340.6,573.3 340.6,574.2 340.8,574.9 341.2,575.8 341.8,576.2 342.1,576.6 342.7,576.8 343,577.4 
			342.9,578.3 343.5,578.8 344.3,579.2 343.7,578.8 344,577.2 343.2,576.6 343.2,576.2 347.5,576.8 349.2,576.4 350.5,574.8 
			350.4,575.6 350.4,576.1 351.3,578.1 351.4,578.8 351.2,579.6 350.5,579 349.3,578.3 345.6,577.2 345,577.3 344.9,577.8 
			345.2,578.5 346.2,579.2 346,579.2 346,579.3 346,579.6 346.3,579.8 346.9,580.1 347.3,580.3 347.6,580.7 347.7,580.8 
			348.6,580.7 348.9,580.8 349.2,580.8 349.4,579.8 350.2,579.8 350.9,580.3 350.8,581.2 350.8,581.6 351.2,581.8 351.4,582.2 
			351.7,582.4 351.7,583.2 352.2,583.9 353.6,585 353.9,585.8 354.2,586 354.4,585.9 354.7,585.6 355.1,585.3 355.7,585 
			355.8,585.2 356.1,585.4 356.3,585.6 356.7,585.2 357.2,584.9 358,584.9 358.5,585.3 358.8,586 359.2,587.8 359.6,588.6 
			361.2,589.8 361.7,590.4 362.2,591.5 362.5,591.8 362.8,591.8 363,591.9 363.1,592.4 363.4,592.9 364.9,592.9 365.5,593.9 
			366,594.2 366.3,594.6 366,595.2 366.3,596.1 368.5,598.2 368.7,600.8 368.7,601.1 368.4,601.2 368.8,601.7 369.2,602 
			369.3,602.1 369.4,602.7 369.4,603 369.4,603.3 369.7,603.8 370,604 371,604.3 371.8,604.8 374.6,605.7 375.2,606.1 376.7,607.8 
			377.5,608.3 377.3,607.8 377.3,606.3 377.1,605.8 376.7,605.4 376.7,605.2 376.7,604.6 376.7,604.4 376.8,604.2 377,603.8 
			376.7,602.6 376.8,602.4 377.2,602.4 377.5,602.1 377.7,601.2 377.2,600.9 377,600.1 376.8,599.1 376.8,598.1 377.1,597.2 
			377.7,595.8 372.7,592.8 371.8,592 371.2,591 370.5,588.6 369.5,588.1 367.1,588 367.7,587.6 367.3,587 367.2,586.5 367.3,585.9 
			367.1,585.5 366.8,584.9 366.2,584.6 366,584.2 366.6,584 367.1,584.7 368.8,586.2 369.2,585.8 369.5,585.8 369.9,586 
			370.2,586.5 371,586.1 372.1,586.2 375.7,587 376.3,586.9 376.7,586.1 376.5,586.2 375.8,586.5 375.6,585.3 376.7,585.6 
			377.2,585.6 377.7,585 378,583.9 378.7,583.2 378.8,583.2 378.8,582.9 378.8,582.2 378.9,581.7 379.2,580.8 379.5,580.6 
			381.5,578.2 382.1,577.3 382.8,576.8 383.4,576.2 384.1,575.2 384.5,574.2 384.7,573.4 385.2,572.9 385.8,572.7 386.3,572.1 
			386.5,571.4 386.8,570 387,569.3 387.7,568.2 388.7,567 389.8,566 390.8,565.5 391.7,566 392.2,567.1 392.6,568.5 392.7,569.6 
			392.6,569.5 392.3,569.8 392.1,570.5 392.1,570.8 391.9,571.6 391.9,572 392.2,572.5 392.8,574.2 394.1,575.2 394.7,575.6 
			395.5,575.6 396.1,575.3 397.6,574.4 398,574.2 399,573.4 400.9,573.4 401.9,573.2 403.3,571.3 404.1,570.8 405.1,571.3 
			405.8,570.5 405.8,569.8 405.7,569.1 405.7,568.2 405.8,567.8 406.2,567 406.8,565.5 406.8,565.4 406.4,564.9 404.1,562.6 
			403.8,561.8 403.8,560.7 404.1,560.2 405.2,559.6 405.8,559.3 407,559.8 408.6,560.7 409.9,561 410.9,559.8 410.9,559.3 
			410.9,558.8 410.9,558.3 411.2,557.8 411.6,557.4 413.2,556.9 416.4,556.3 416.7,554.2 416.7,552.9 		"/>
		<text transform="matrix(1 0 0 1 348.2207 556.1036)" fill="#FFFFFF" font-family="'OpenSans-Extrabold'" font-size="8.2373">MONTENEGRO</text>
		<rect x="441.6" y="545.8" fill="#FF9400" width="3.8" height="16.1"/>
		<text transform="matrix(1 0 0 1 449.0782 555.8477)" fill="#FF9400" font-family="'OpenSans-Bold'" font-size="5.8838">€50,000 INVESTED</text>
		<circle fill="#FF9400" stroke="#FF9400" stroke-miterlimit="10" cx="444.5" cy="572" r="2.7"/>
		<circle fill="#FF9400" stroke="#FF9400" stroke-miterlimit="10" cx="452.7" cy="572" r="2.7"/>
		<text transform="matrix(1 0 0 1 463.963 573.8691)" fill="#FF9400" font-family="'OpenSans-Bold'" font-size="5.8838">4 FOUNDERS</text>
		<text transform="matrix(1 0 0 1 463.963 580.9288)" fill="#FF9400" font-family="'OpenSans-Bold'" font-size="5.8838">4 JOBS CREATED</text>
		<text transform="matrix(1 0 0 1 441.9659 538.5137)" fill="#FF9400" font-family="'OpenSans-Light'" font-size="16.2855">1 TEAM</text>
	</g>
	<g>
		<path fill="#FF9400" d="M169.4,662.8C169.4,662.9,169.4,662.9,169.4,662.8L169.4,662.8z M165.4,659.8
			C165.4,659.8,165.4,659.7,165.4,659.8L165.4,659.8z M165.4,660.5C165.5,660.8,165.3,660.4,165.4,660.5L165.4,660.5z M166.9,664.4
			C166.9,664.2,166.9,664.4,166.9,664.4L166.9,664.4z M167.2,664.4C166.4,664.8,167,664.5,167.2,664.4
			C167,664.5,167.2,664.4,167.2,664.4z M166.8,664.8C166.8,664.8,167,665,166.8,664.8L166.8,664.8z M169,662.3
			c-0.7-0.2-0.8-1.8-2.2-1.6c0.8,0.2-1.1-0.5,0.2,0.2c-0.1,0-0.8,0.2-0.7,0.2c-0.1-0.3-0.1-0.5,0.2-0.4c-0.2-0.1-1.5,0.2-0.9,0
			c0.2,0.1,0.4,1.4,0.3,1.5c0-0.8-0.1-0.5-0.3-0.2c-0.3-0.7-0.5-1.4-0.5-2.1c0,0.2-0.1,0.2-0.2,0.2c0.5-0.8-1.2-1.3-1.3-1.6
			c-0.5,0-0.4-0.2-0.8-0.7c0.6,0.2,0.6,0.5,0.2,0.6c-0.6-0.8-0.7-1.1-0.3-0.6c-0.3-0.3-1.8-1.1-1.1-0.8c-1.1-0.7-1.3-0.9-0.6-0.7
			c-1.8-1-2.5-1.1-4.2-1.1c0.7,0.5-1.8-0.5-2-0.5c0.4,0.8,0.1,2.8,0.2,2.8c-0.9,0.1-1.8-1.1-1.8-1.9c-0.2-0.1-2.4,0-2.8-0.1
			c-2.4-0.2-1,1.8-2.4,2.4c1.1-0.7-1.4-5-2.3-5.3c-1.1-0.4-3,1.1-3.9,0.5c-0.8-0.5-0.5-1.4-1.5-0.8c0.2-0.2,0.4-0.4,0.5-0.7
			c-1.6,0.4,1.1-0.5-1.3-0.4c0-0.1,0-0.2,0-0.3c0,0,0.9-0.5,0.8-0.2c0.5-2.8-3.6,0.5-3.8,0.5c0-1.2,1-0.2,0.5-1.4
			c0.4,0.4,0.2,0.3,0.5,0.3c-0.2,0.2-0.2,0.4-0.3,0.6c2.1-2.1-0.6-0.3-1.3-1c0.6-0.2,1.1,0,2-0.2c-1.4-0.8-3-1-4.4-1.3
			c1.1,1.4-1.8,0.9-1,1.8c0.2,0,0.5,0,0.7,0c-0.8,0.4-0.9,0.9-0.2,1.6c-0.5,0.2-1.1-0.3-1.1-0.3c-0.4,0.2-0.8,0.5-0.1,0.6
			c-0.2,0.1-0.5,0.1-0.2,0.5c-0.3-0.2-2.1-2-2.4-0.3c-0.2-0.8-1.4-0.5-1.4-1.5c-0.5,0.8-0.2,2.1-1.1,2.6c-0.5,0.3-2.5-3.8-2.5-3.8
			c0.4,0.2,1.1,0.9,1.1,0.7c0.5-0.6-0.6-0.9-1-1.2c0.3,0,0.8-0.1,1.1-0.1c-1-0.1,0.2-2.3-1.8-2c-0.1,0.7,0.2-0.3-0.2,0.7
			c-0.3-0.5-0.3-0.5-0.2-0.8c-0.8,0.6,0.4-0.4-0.5,0.4c-0.1-0.5-0.1-0.2-0.3-0.8c-0.2,0.1-0.8-0.2-0.9-0.2c0,0.6,0,0.4-0.2,0.2
			c-0.2,0.4,0.3,2.4-0.8,1.8c-0.1,0.2,0,0.3,0.4,0.3c-0.5-0.2-0.6-0.2-0.2,0.2c-0.2-0.2-3.4-0.8-1.5-0.2c-0.3-0.1-2.4-1.4-1.1-1.5
			c-1.2-0.8-2.8-0.4-4,0c0.7,0.6-0.9,1.9,0.5,2.2c-1.2-0.2-0.2-2.7-0.9-3.5c0.5,1.4-1.8,0.4-0.9-0.2c-0.4,0.4-1.9,0-1.3,1
			c0.3-0.1,0.5-0.2,0.8-0.2c-0.6,0.7-2.9,2.3-4.2,2.5c0.7-0.5,1.1-2.5,2.1-2.1c0.7-1,4.8-4.1,3.8-5.4c-0.1,0.1-0.2,0.3-0.3,0.3
			c0-0.2-0.2-0.8-0.4-0.9c0.3,0.2,0.8,0.6,0.8,0.9c0.4-0.5,0.2-2-0.4-2.1c0.4,0.3,0.2,0.5-0.2,0.6c0.7-2.7-3.6-2.1-4.3-1.5
			c0.4-0.5,0.5-0.9,0.5-1.4c-1.4,0.2-0.5-0.2-2.3-0.2c2.2-0.8,1.2-2.6-0.6-1.8c-1.1,1.4-2.6,3.1-0.7,4c-0.7-0.2-1.8-0.2-2.4-0.5
			c0.2,0.6,1.3,1.5,0.4,2.1c0.6-1.1-0.2-1.1-0.5-1.4c-0.6,0.4-0.7,0.5-0.7,0.8c-1.1,0.2,0.5-0.8-1,0.3c0.4-0.9-0.4,0.4-0.6,0
			c1.3-1.1-0.9-0.5-1.4-0.7c0.4,0.2,0.3,0.3-0.2,0.3c0-0.1,0-0.2,0-0.3c-0.4,0.1-0.3,0.6-0.3,0.5c0.4,0,0.3,0.2,0.8-0.1
			c-1.1,0.7-2.9,1.3-3.9,1.5c1,0.1-1.6,1.1-1.3,0.9c0.6-0.1,0.8,0.1,0.5,0.4c-0.4-0.7-0.5,0.8-0.5,0.8c-0.5-0.3-0.5-0.3-0.7-0.5
			c-0.4,0.5,0.4,0.9,0.8,1.2c-0.1,0.1-0.2,0.2-0.2,0.2c0-0.2-0.1-0.5-0.7-0.4c0.1,0.1,0.2,0.2,0.2,0.3c-0.1-0.1-0.2-0.2-0.2-0.2
			c2.6,2.2,0.2-0.2,1.1,1.4c-0.5,0.6-1,0.4-0.5,2.1c-0.5-1,0.4-1.8,0.2-2.2c0-0.1-2.8,0.5-3.1,0.5c-2,0.2-1.3,0.6-1.4,1.7
			c-0.3,1.8,2.2,2,1.8,4.3c0.5,0.8-0.2,2.1,0,2.2c-0.4-0.2,0.1-1.6-0.2-2c-0.3,0.3-0.5,1.3-0.4,1.8c-0.5-0.9-0.3-2.2,0.5-2.8
			c0.6-0.5-1.4-0.9-1.8-1.4c0.1-0.1-1.4-1.1-2.3-0.3c0.1,0.2,0.3,0.5,0.5,0.5c-0.6,0.5-0.8-0.5-1.4,0.1c-0.6,0.5,0.8,1.8,1.3,1.4
			c-0.2,0.3,0,0.5,0.4,0.8c-0.1,0.1,0.2-1.1,0,0.3c0.2-0.1,0.4-0.2,0.5-0.2c-0.3,0.5-1.8-0.5-2.1-0.6c-1.4-0.8,0.5-3-0.7-3.6
			c-0.1,0-2.5,8.3-0.3,8.2c2.8-0.2,1.8,2.1,3.1,3c-1.8,0.4-0.9-1.2-1.4-1.9c-1.1-3.3-2,2.3-2,2.3c-0.5,1-3.1,3.4-3.8,1
			c0.2-0.1,1.8,0,0.9,0.3c1.3,0.7,1.8-2.7,2.4-3.5c0.1-0.6-1.1-9.4-1.1-9.4c-0.5-0.2-1.8,0.2-1.6-0.3c-1.1,0.5-1.3,3.9-2.1,4.3
			c-0.1,0.2,0.1,3.2,0.1,3.4c0-0.2,2.4,0.9,1,2.8c-0.2-0.7-1.8-1.8-1.8-1.8c-0.3-0.2-0.5-0.2-0.8-0.1c0.5-1.1-3.3-2.1-3.2-0.7
			c0,0.4,0.8,1.7-0.2,2c-1.1,0.3-0.5-0.9-0.5-1c-0.5-0.1-0.7,0.1-0.6,0.5c-0.2-0.5-3.1,1-3.8,0.9c0.4-0.2,1-1,0.2-1.3
			c0.4,0.2,0.6,0.1,0.7-0.2c-0.6,0.1-1.2,0.3-1.6,0.8c0.5-0.1,0.2,0.2,0,0.5c0.1-0.4-0.2-0.2,0-0.5c-0.6,0.2-1.2,0.6-1.8,1.1
			c0,0.1-1.4-0.1-0.5,0.7c-1.1-0.4-0.8,1.4-2,1.8c-0.1-0.2-1.8-1.4-0.3-1.9c2.1-0.6-1.6-1.6-1.9-1.8c1.6,0.9,0.3,3.8,0.7,5.2
			c0,0-1.1-1.4-1.5-1c-1.4,1.9-1.1,1.1-1.1,3.3c-0.4-0.3-0.5-0.4-0.5-0.1c0.1,0-0.9-0.7-1.3-0.1c0.1-0.1,0.2-0.2,0.2-0.2
			c-2.4-2.3-0.3,1.3-0.2,1.1c-0.3,0.8-2.1-0.5-2.4-0.8c0.2-0.2,0-1.5,0-2.1c0.1,0.2,0.2,0.2,0.2,0.2c-0.2-0.6-0.5-0.9-1.2-1.1
			c0.3-0.2,0.8-0.3-0.2-0.4c0.2-0.1,0.3-0.1,0.5,0c-0.4-0.2-0.4-0.9-1.2-1.1c0.8-0.2,0.8,0.2,1.2,0.8c-0.1-0.2,0.1,0.2,0-0.2
			c0.3,0.2,0.4,0.3,0.7,0.3c0-0.1,7.4,2.4,3.8-2.8c0.1,1-1.1-1-0.7-0.2c-1.1-0.8-3.1-3.2-4.1-1.3c0.6-0.9,0.1-0.2,0.4-0.9
			c-1.1,0.5,0.2-0.5-0.9,0c0.1-0.2,0.2-0.3-0.1-0.7c0.5,0.5,0.8,0-0.1-0.5c0.1,0.6-0.2,0.8-0.8,0.3c0.1,0.7-2,1.2-1.8,2.5
			c0.2,1.3,0.5,2.8,0.8,4.1c0.2,1.1,0.4,2.4,0.4,3.8c0,0.8-0.4,0.8,0.5,1.5c1.3,1.2-1.5,3.2-2.1,4c1.1-0.5,0.5-0.1,0.5-0.1
			c0.5,0.2,0.8,0.6,1.2,1c0,0-1.3,0.2-1.4,0.1c0.3,1.7-1.1,3.4,0.2,5c0.5,0.6,1.4,0,1.8,0.7c0.4,1,1.1,1.9,1.4,2.8
			c-2.4,2,1.1,0.5,1.1,2.1c-0.1,1.1,3.1,1.9,4.2,2.1c-0.2,0.3-1.4,2.5-1.4,2.7c1.1-0.4,0.1-0.2,0.2-0.1c0.2-0.1,0.5-0.1,0.7,0
			c-0.7,0.2-0.5,0.8-1.2,0.5c0.3,0.3,0.2,0.4,0.6,0.7c-0.7,0-0.1,0.4-0.3,0c-0.4,0.5-0.5,0.5-0.2,0.8c-0.4,0.2-0.3,0.1-0.8,0
			c0.2-0.1,0.2,0,0.1-0.1c0.2,0.1,0.2,0.2-0.2,0.2c0.7,0.5,7.8,4.1,8.3,3.6c0.4-0.5-0.8-1.4-0.3-2.2c-0.4,0.9-0.7-0.8-0.5-1.1
			c-0.1,0,0.5-0.4,0.3-0.8c0.3,0.5,1.1-0.4,1.4-0.5c-0.3-0.2-3.4-3.4-1.1-4.3c0,0,0.8,0.6,0.8,0.2c0.2-1.3,3.8-3.3,4-0.5
			c-0.1-1.5,4.8,1,5.2-0.8c-1.9-1.3-0.2-1.1,0.3-2.1c0,0-0.6-0.6-0.9-0.7c0.1-0.1,0.1-0.2,0.1-0.3c1.5-0.5,4.4-0.3,5.5-1.8
			c0.8-0.3,2.4,1.5,2.4,1.2c0.2,0.4,0.3,0.4,0.5,0.5c0-0.4,0.2,0,0.8-0.2c-0.2,0.2-0.3,0.5-0.2,0.8c0.8-0.4,1.5-0.8,2.5-1.2
			c-0.8,0.8,1.8,3.5,2.3,4.3c0.5-1.5,3.4,1,4,1.3c1.6,0.8,2.8-1.1,4.8-1.4c1.3-0.2,2.2,1.4,3.8,1c0.3-0.1,0.8-2.1,1-2.4
			c1.2,1,1.8,0.5,2.6,1.8c0.5,0.9,2.4-0.1,3.4,0.5c0.9,0.6,7.9,0.9,8.7-0.2c0.8-1.4,0.4-3.9,2.2-3.9c3.8,0.1,2.1,3.3,4.2,4.7
			c0.5,0.3,2.4,2.1,2.1,2c0.7,0,1.8-1.1,2.4-0.6c1.3,1.1-3.6,4.8-2.8,6.2c0-0.4,0.1-0.4,0.1-0.3c1,0.2-1.2,0,0.8-0.7
			c1.4,0.5,5.3-2.6,5.9-5.8c-0.5-0.3,0.9-4.8,0.5-5.2c-1.8-1.2-0.8-0.9-2.1,0c0.7-1.2-0.1-0.2-0.7-0.2c1.1-0.8-0.3-0.2,0.4-0.9
			c-0.5,0-0.6,0.2-0.5,0.6c-0.6-0.8,0.1-0.8-1.2-1.1c0.2-1.2,3.6-4.3,4.7-5.3c1-1.1,3.9-1.3,5.3-0.8c-0.6-0.7,1.4-0.6,1.1-0.3
			c0.5-0.2,2.5,0.4,0.5,0.5c0.2,0.5,2.3-0.1,3-0.1c-0.2-0.5-0.4-0.5-0.5-0.4c0-0.2-0.1-0.2-0.2-0.1c0.1-0.5,0.2-0.7,0.6-1.4
			c1.2-1.8,3-1.3,3.8-2.2c-0.2,0.8-0.2,2-0.2,2c0.5-0.3,1.8-2.2,2.1-1.4c0.3-0.8,0.1-2.4,1.9-1.4c-0.5-0.2-0.5-0.1-0.2,0.2
			c0.1,0.1-6.2,7.9-6.7,7.8c-1.1,2.3,0.1,5,0.3,7.2c0.8-0.8,1.4-1.8,1.4-2.5c0.3,0,0.8-0.4,1.1,0c-1.1-2.6,0-0.1-0.1-0.5
			c0.2,0.2,1.9-3.8,2.3-3.8c-0.5,0.4-0.5,0.5,0.2,0.5c0.1-0.4-0.2-2.9-0.6-2c-0.6-0.6,0.3-2.1,0.6-1.8c0-0.3,0.3-1.3,0.3-1.4
			c0.5,0.4,0.6-0.2,0.8,0.4c0.2-0.5,0.9-0.9,0.8-0.8c0.5-0.4,0.5-0.2,0.2,0.8c0.7-0.8,3.6-0.9,3.1-0.3c0.8-1,2.1-3.1,3.6-3
			c1.2-0.5,0.6-0.7,1.4-0.8c-0.2-0.1-0.2-0.2-0.2-0.5c0.1,0.3,0.2,0.3,0.3,0.1c-0.3,0.6,0.1,0.9,1.1,0.8c0.9-0.8-0.3-1.5-0.2-2.1
			c0,0.5,0,0.1-0.3,0.1c0.1,0,0.3-0.2,0.3-0.2c-0.3-1.1-0.1-0.1-0.4-1.3c0,0.2,0,0.2,0,0.4c-0.5-0.2-0.6-0.5-0.5-0.9
			c-1.4,0.6-0.4,0.1-0.9-0.1c-0.4,0.1-0.8,0.2-1.2,0.2c0.7-0.2,1.3-0.3,2-0.2c-0.2-0.1-0.7-0.5-0.7-0.5c0.5,0,1.5,0.8,1.5,0.8
			c1.8-0.8,0.9-1.4,1.3-2.8c0.1,0.1,0.1,0.1,0,0.1c0.5-0.5,0.4,0,0.8-0.5c-0.2,1.9,2.8,2.7,3.8,3.6c-0.6-0.5,1.1,0,0.6-0.2
			c-1-0.5-0.2-0.4-0.7-0.6c2.4-0.8,0.2-0.3,0.4-0.8c0.4,0.2,0.5,0,0.4-0.4c-0.8-0.2,0.6,0.5-0.5-0.4c0.4,0.2,2.1,0.8,0.9-0.2
			C168.4,663.4,168.2,662.6,169,662.3C168.9,662.3,168.8,662.3,169,662.3z M162.9,651.4C162.8,651.4,162.9,651.4,162.9,651.4
			L162.9,651.4z M83.5,646.9c0,0.2-0.2,0.2,0,0.3C83.7,647,83.5,647,83.5,646.9z M88,648.8C86.4,650.3,89.7,649.2,88,648.8L88,648.8
			z M82.6,647.9c0.2-0.2,1.5-0.1,1.1-0.8c-0.2,0.2-0.5,0.5-0.2-0.2C82.7,646.8,82.5,647,82.6,647.9
			C82.7,647.8,82.5,647.3,82.6,647.9z M88.8,648.4c0.5,0.4,1,0,0.4-0.7C88.9,647.9,88.9,648.3,88.8,648.4z M94.3,643
			c0.5,0.2,0.5,0.1,0.5-0.3C94.5,642.8,94.4,642.8,94.3,643C94.4,643.1,94.3,643,94.3,643z M96.9,620.9c0.2,0.4,1.2,0.7,1.1,0.1
			C98.1,620.4,97.1,620.4,96.9,620.9z M98.1,624.4c-0.2,0.4,0.2,0.4,0.8,0.2c-0.7,0-0.6,0.2,0.1,0.6c-0.3-0.2-0.5-0.2-0.6,0
			c5.9,1.5,2.8-5.2,2.1-4.8c-0.5-0.1-2.6,3.5-1.8,3.8C98.6,624.3,98.2,624.3,98.1,624.4C98.1,624.6,98.3,624.3,98.1,624.4z
			 M93.8,644.2c0.2-0.1,0.3,0,0.4-0.1C93.9,643.8,94,644,93.8,644.2z M74.6,640.2c0.2-0.2,0.3-0.1,0.3-0.2
			C74.7,640,74.4,640.3,74.6,640.2z M98.4,624.3C98.6,624.3,98.4,624.3,98.4,624.3L98.4,624.3z M74.8,656.4c-0.1,0-0.2-0.2-0.3-0.2
			C74.8,656.6,74.9,656.4,74.8,656.4z M80.2,653.7c0.1,0.2-0.2,0.2,0.2,0.3C80.2,653.8,80.2,653.8,80.2,653.7z M80.2,652.8
			c0.1-0.2-0.1,0.3-0.1,0.3C80.2,653,80.2,652.8,80.2,652.8z M80.1,653.3c0-0.4,0,0.3,0.1,0.5C80.2,653.6,80.1,653.3,80.1,653.3z
			 M75.7,655.2c-0.2-0.5-0.6-1.1-1.1-1.4c-0.5,0.7,0,0.6-0.1,1.1C75,655.6,75.3,655.7,75.7,655.2C75.7,654.7,75.7,655.2,75.7,655.2z
			 M79.2,638.2c-1.1,0.8-2.5,1.4-3.5,1.6c0.5-0.5,0.3-0.5-0.3-0.2c0,0-2.3,2.3-2.6,2.8c-0.1-0.5-0.2-0.2-0.2-0.5
			c-0.4,0.5-0.2,0.6,0.2,0.5c0.5,0.4-0.7,0,0.2,0.2c-1,0.4-0.3,0.5,0.2,0.7c-0.7-0.2-1.4,0.5-0.5,0.5c-0.8,0.1-1,0.6-0.3,1
			c-0.8-0.4-0.8,0.5-1.6,0.8c0.2,0.8,0.8,0.2,1.2,0.2c-0.3,0.3-0.6,0.5-0.9,0.8c0.2,0.2,1.4,0.2,1.4-0.2c0.2,0.2,0.4,0.4,0.6,0.5
			c0.6-0.6,0.2-0.5,0.5-0.9c0-0.4-0.2-0.6-0.7-0.7c1.8,1.1,0.5-0.3,0.7-0.8c0.5,0.8,1.2-0.2,0.5-1c1,1,0.8-0.2,0.7-0.5
			c0.6,0.5,1-0.6,0.6-0.7c0.2-0.1,2.7-1.8,2.7-1.8c0.5-0.4,5.4-2.4,3.4-4C80.2,636,79.9,638.3,79.2,638.2
			C78.7,638.7,79.4,638.2,79.2,638.2z M160.6,652.7c0.2,0.4,2.4,0.2,2.6-0.4C163.5,651.1,160.8,651.2,160.6,652.7
			C160.7,652.8,160.7,651.4,160.6,652.7z M130.9,651.4c0.6-0.1,0.4-0.2-0.2-0.1C131.2,651.8,130.9,651.4,130.9,651.4z M132.7,646.9
			c0.5,0,2.8,1.1,2.8-0.1C135.3,644.1,133,646.9,132.7,646.9C133.2,646.9,133.4,646.9,132.7,646.9z M131,641.7
			c-0.8-0.2,0.5,1.8,1.1,1.8c0.5,0,1.1-1.4,2.4-0.6c-0.9,0.6,1-0.1,0.8-0.2c-0.2-0.1-1.8-1.6-0.9-2c0.8-0.1,0.2,1,0.3,1.4
			c0.7,1.8,1.6-0.6,1.9-0.8c-0.5-0.7-2.2-1.5-2.9-2c0.2,0.2,0,0.9-0.2,1.4c-0.2,0.5-1.4-1.4-1.4-1.6
			C131.7,639.8,130.4,640.6,131,641.7C130.8,641.7,130.9,641.7,131,641.7z M132.9,643.3C132.9,643.3,132.8,643.3,132.9,643.3
			L132.9,643.3z M133.7,645C132.8,643.4,133.3,646.9,133.7,645L133.7,645z M125,648.5c0.2,0.2-0.2-0.2-0.5,0
			C124.7,648.4,124.8,648.4,125,648.5z M113.7,638.9c0,0,0.1-0.1,0-0.2C113.4,638.8,113.7,638.8,113.7,638.9z M112.7,638.1
			c0.2,0.2,0.3,0.3,0.5,0.5C113.2,637.9,113.2,637.8,112.7,638.1C112.8,638.2,112.8,638,112.7,638.1z M123.9,646.7
			c0.2,0,0.2,0.1,0.4,0.1C124.1,646.7,123.7,646.7,123.9,646.7z M131.5,639.6C131.5,639.8,131.5,639.6,131.5,639.6L131.5,639.6z
			 M148.2,655.7c0,0,0,0.3,0,0.2C148.5,655.5,148.3,655.7,148.2,655.7z M148,656.1c0.1,0.3,0.2,0.6,0.2,0.9
			C148.3,655.7,148.3,655.2,148,656.1C148,656.5,148,656,148,656.1z M131.4,639.7C131.3,639.8,131.5,639.7,131.4,639.7L131.4,639.7z
			 M160.8,652.2L160.8,652.2L160.8,652.2z M152.8,655.2C154.8,657.6,153.2,652.8,152.8,655.2L152.8,655.2z M130.7,641.1
			C130.8,641.2,130.7,641.1,130.7,641.1L130.7,641.1z M130.8,640.9C130.5,641.1,130.8,640.8,130.8,640.9L130.8,640.9z M137.2,642.1
			c0.8,0.8,2.9,2.1,3.4,0.2c-0.5,0.2-2.8-0.8-2.6-0.6c-0.4-0.1-0.6-0.3-0.7-0.7C137.3,641.4,137.3,641.8,137.2,642.1
			C138.2,643.1,137.3,641.7,137.2,642.1z M100.1,625.9c0,0-0.2-0.1-0.2,0.2C99.8,626,100,625.9,100.1,625.9z M102.1,639.9
			c0-0.1,0.2-0.2,0.2-0.3C101.6,639.9,102.1,639.8,102.1,639.9z M98.6,626.9c-0.9,0.8,1.3,0.2,1.1-0.6c-0.2-0.5-1.6-0.6-2.1-0.6
			C98.2,626.2,97.4,626.6,98.6,626.9C98.6,626.9,97.3,626.6,98.6,626.9z M104.2,627.3c0,0.1-0.1,0.3-0.1,0.5
			C104.5,627.3,104.2,627.3,104.2,627.3z M104.4,631.2c-0.3,0.7-0.5,1.4-0.7,2.1c0.1,0.4,4.1-1,4.3-1.6c0.2-0.6-1-3.8-2.1-1.2
			c0.5-1.4-0.4-2.5-0.1-1.6c-0.2-0.2-0.2-0.3-0.3-0.5C104.5,629.8,105.1,630.2,104.4,631.2C104.2,631.8,104.6,630.8,104.4,631.2z
			 M102.7,625.6c-1.8-2-4,3.8-2.9,2c-0.1,0.4-0.2,0.8,0.2,0.5c0,0.9,2.1,2.8,2.3,2.5c1.8,0.5,1.8-0.7,1.2-1.8c0.5,0.3,1-5-1.4-1.5
			C102.5,626.8,102.7,626.1,102.7,625.6C102.2,625.1,102.7,626,102.7,625.6z M71,658.1C71.1,658.2,71.1,658.2,71,658.1L71,658.1z
			 M53.7,672C53.9,672.1,53.5,672,53.7,672L53.7,672z M52.8,671.5C53,671.7,52.8,671.5,52.8,671.5L52.8,671.5z M52.7,671.5
			C52.8,671.5,52.8,671.5,52.7,671.5L52.7,671.5z M66.7,690.8C66.4,691,66.6,690.8,66.7,690.8L66.7,690.8z M66.5,690.3
			C66.5,690.5,66.4,690.5,66.5,690.3L66.5,690.3z M52.7,671.3C52.8,671.3,52.8,671.6,52.7,671.3L52.7,671.3z M52.8,671.1
			C52.7,671.1,52.8,671.1,52.8,671.1L52.8,671.1z M61.6,661.6L61.6,661.6L61.6,661.6z M52.9,671.1C52.9,671.1,52.8,671.2,52.9,671.1
			L52.9,671.1z M52.9,671.2C52.8,671.2,53,671.5,52.9,671.2L52.9,671.2z M66.7,689.7C66.7,689.7,66.9,689.6,66.7,689.7L66.7,689.7z
			 M144.4,683.8c-0.2,0-0.8,0.3-0.5,0.7C144.2,684.3,144.4,684.2,144.4,683.8z M144,683.5C144.1,683.7,144.1,683.7,144,683.5
			L144,683.5z M144.1,673C144.1,673,143.9,672.8,144.1,673L144.1,673z M66.7,689.2C66.7,689.3,66.7,689.5,66.7,689.2L66.7,689.2z
			 M131.2,679.5C131.4,679.2,131.3,679.3,131.2,679.5L131.2,679.5z M150.5,673.3c-0.2-0.2-0.5-0.2-0.7,0.2c0.4-0.1,0.4,0.2-0.2,0.7
			C149.9,673.8,150.2,673.6,150.5,673.3C150.3,673.2,150.4,673.6,150.5,673.3z M130.8,678.6C130.5,678.7,130.2,678.9,130.8,678.6
			C130.9,678.6,130.7,678.6,130.8,678.6z M131.2,679.2C131.2,679.2,130.9,679.5,131.2,679.2L131.2,679.2z M131.4,678.8
			c0.1-0.3-0.4-0.3-0.5,0.2C131.2,679.1,131.2,679.1,131.4,678.8C131.5,678.6,131.3,678.9,131.4,678.8z M71.4,658.2
			C71.2,658.3,71.3,658.3,71.4,658.2L71.4,658.2z M80.7,657.3C80.7,657.3,80.3,657.1,80.7,657.3L80.7,657.3z M71.4,657.3
			C71.2,657.2,71.2,657.2,71.4,657.3L71.4,657.3z M60.9,664.8c0.1,0,0.3,0.2,0.5,0.2C61.2,664.8,61.2,664.8,60.9,664.8z M61.1,664.7
			C61.1,664.8,61.1,664.7,61.1,664.7L61.1,664.7z M61.3,664.7c0,0-0.2-0.2-0.2,0C61.3,664.9,61.2,664.8,61.3,664.7z M80.7,655.7
			c0,0-0.2,0.1-0.2,0.2C80.7,656.1,80.6,655.8,80.7,655.7z M124.8,649.1c-0.1-0.1,0.2-0.4-0.5-0.2
			C124.5,649.2,124.7,649.1,124.8,649.1z M113.7,644.4c-0.4-0.5-1.4-0.2-1.4,0.1C112.4,645.5,113.7,645.1,113.7,644.4z M94.7,646.3
			c0.2-0.1-0.2,0-0.3,0.2C94.7,646.7,94.7,646.3,94.7,646.3z M80.4,656C80.6,656,80.7,656.2,80.4,656C80.3,655.9,80.6,656,80.4,656z
			 M82.7,661.4c-0.2-0.3-0.4-0.4-0.7-0.5C82.2,661.1,82.5,661.3,82.7,661.4C82.6,661.3,82.5,661.5,82.7,661.4z M57.4,664.8
			C57.5,664.8,57.5,664.8,57.4,664.8L57.4,664.8z M57.5,663C57.4,663,57.5,663,57.5,663L57.5,663z M57.3,663L57.3,663L57.3,663z
			 M57.5,662.9C57.3,662.8,57.4,662.9,57.5,662.9L57.5,662.9z M57.3,664.2L57.3,664.2L57.3,664.2z M55.6,660.4
			C55.6,660.5,55.6,660.5,55.6,660.4L55.6,660.4z M56.7,661.8L56.7,661.8L56.7,661.8z M56.5,661.9C56.5,661.9,56.7,661.9,56.5,661.9
			L56.5,661.9z M55.7,660.6C55.7,660.6,55.7,660.7,55.7,660.6L55.7,660.6z M144.7,683.5c-0.1,0.1-0.2,0.1-0.2,0.2
			C144.8,683.9,144.6,683.8,144.7,683.5z M68.9,658c0.2-0.1,0.3-0.2,0.5-0.2C69.1,657.9,68.9,658,68.9,658z M68.1,657
			C68,657.2,68.2,657,68.1,657L68.1,657z M67.9,657.2C67.9,657.3,67.9,657.2,67.9,657.2L67.9,657.2z M67.4,657.4
			C67.4,657.4,67.9,657.6,67.4,657.4L67.4,657.4z M59.2,657.3C59.2,657.2,59.2,657.2,59.2,657.3L59.2,657.3z M56.7,656.1
			C57.2,656,56.8,656.1,56.7,656.1L56.7,656.1z M59.9,658.1C59.9,658.1,59.9,658,59.9,658.1L59.9,658.1z M61.4,659.2
			C61.4,659.1,61.4,659.1,61.4,659.2L61.4,659.2z M69.4,650.2c-0.3,0.7-0.2,1.1,0.5,1.3c0-0.5-0.2,0.4,0.2-0.4
			c0.1,0.2,0.2,0.4,0.2,0.5c0.3-0.5-0.1,0.3,0.4-0.4c-0.1,0.7,0.1,0.8,0.4,0.2c-0.5,0.7,0.2,0.6,0.2,0.8c-0.5-0.1-0.4,0.3-0.7,0.5
			c0.2,0.2,1.1,0.6,0.8,0.1c0.7,1.3,0.6-0.2,0.9,0.4c0.1-0.2,0.2,0.5,0-0.2c0.8,0.4-0.4-0.2,0.5,0.2c0.1,0.1-0.2-0.2-0.2-0.4
			c0.5,0.2,0,0,0.8,0.4c-0.7-0.5-0.1-0.1,0.2-0.4c-1.8-1.1-1.1-3.5-1.8-4.2c0.5,0,0-0.2,0.5-0.2c-0.1-0.2-0.2-0.2-0.4-0.3
			c0.6-0.1,0.8-0.3,0.2-0.5c1.3-0.3-1.3-1.6-2.2,0.5c-0.1,0.2,0.5,0.4,0.5,0.4c-0.4,0.5-0.5,0.6-0.5,1.2
			C69.7,649.9,70,650.2,69.4,650.2C69.2,650.8,69.5,650.2,69.4,650.2z M72.1,656.9C71.8,657,72.2,656.9,72.1,656.9L72.1,656.9z
			 M70.5,652C70.5,652.1,70.7,651.8,70.5,652L70.5,652z M68.2,656.8c0.4-0.8-0.8-1.1-1.2-0.6C66.1,657.3,68.2,657.1,68.2,656.8
			C68.9,655.7,68.2,656.7,68.2,656.8z M70.5,652.2c-0.7-0.6,0,0.2-0.4-0.5C69.8,651.8,70.4,653.7,70.5,652.2
			C70.5,652.1,70.5,652.3,70.5,652.2z M68.2,656.9C68.2,657.1,68.2,656.9,68.2,656.9L68.2,656.9z M73.4,653.7
			c0.2,0.2-0.1-0.1-0.2-0.2C73.2,653.7,73.4,653.7,73.4,653.7z M71.6,656.8C71.5,656.9,71.5,656.9,71.6,656.8L71.6,656.8z
			 M71.8,656.9C71.8,657,71.8,657,71.8,656.9L71.8,656.9z M140.6,673.2C140.4,673.4,140.4,673.4,140.6,673.2L140.6,673.2z
			 M134.7,679.5L134.7,679.5L134.7,679.5z M126.4,692.4L126.4,692.4L126.4,692.4z M126.9,692L126.9,692L126.9,692z M67.2,689.1
			C67.2,689.2,67.2,689.2,67.2,689.1L67.2,689.1z M126.7,692.2L126.7,692.2L126.7,692.2z M127.4,692
			C127.3,691.9,127.5,692.1,127.4,692L127.4,692z M136.2,686.1c-0.5-1.1-0.8-2.4-1-3.3c0,0.2,0,0.2-0.1,0.2c0.1,1,0.1-2.2,0-1
			c0.2-0.6,0.1-1.2-0.2-1.8c0.2,0.5,0.1,0.2-0.2-0.8c0,0.2-0.1,0.3-0.3,0.2c0.1,0.8,0.2,1,0.3,0.5c-0.1,0.5-0.2,0.1-0.1,0.4
			c-0.6,0-0.9,7.5-0.5,8.4c0.2-1.1,1-1,1-0.2c0.5-1.6,0-0.7,0-0.7c-0.6-0.6-1-2.5,0.2-2.7c-0.2,0.1-0.2,0-0.3-0.1
			C135.7,685.3,136.1,685.6,136.2,686.1C135.8,685.2,136.1,685.7,136.2,686.1z M133.7,688.6L133.7,688.6L133.7,688.6z M127.3,692.1
			C127.3,692.2,127.3,692.1,127.3,692.1L127.3,692.1z M127,691.9C126.9,692,126.9,692,127,691.9L127,691.9z M127,691.8
			C126.9,691.9,126.9,691.9,127,691.8L127,691.8z M127,691.8C127,691.8,126.9,691.8,127,691.8L127,691.8z"/>
		<text transform="matrix(1 0 0 1 96.2271 667.669)" fill="#FFFFFF" font-family="'OpenSans-Extrabold'" font-size="8.2373">RUSSIA</text>
		<rect x="174.5" y="664.2" fill="#FF9400" width="7.3" height="16.1"/>
		<text transform="matrix(1 0 0 1 185.5811 674.1993)" fill="#FF9400" font-family="'OpenSans-Bold'" font-size="5.8838">€100,000 INVESTED</text>
		<circle fill="#FF9400" stroke="#FF9400" stroke-miterlimit="10" cx="177.4" cy="690.2" r="2.7"/>
		<circle fill="none" stroke="#FF9400" stroke-miterlimit="10" cx="185.7" cy="690.2" r="2.7"/>
		<text transform="matrix(1 0 0 1 196.0533 692.2198)" fill="#FF9400" font-family="'OpenSans-Bold'" font-size="5.8838">1 FOUNDER</text>
		<text transform="matrix(1 0 0 1 196.0533 699.2803)" fill="#FF9400" font-family="'OpenSans-Bold'" font-size="5.8838">3 JOBS CREATED</text>
		<text transform="matrix(1 0 0 1 174.8228 656.8643)" fill="#FF9400" font-family="'OpenSans-Light'" font-size="16.2855">1 TEAM</text>
	</g>
	<g>
		<path fill="#FF9400" d="M376.7,714L376.7,714l0.1-0.2l-0.1-0.1V714z M376.8,713.7L376.8,713.7L376.8,713.7L376.8,713.7
			L376.8,713.7L376.8,713.7l-0.2-0.1v0.1H376.8L376.8,713.7h0.2H376.8L376.8,713.7z M396.8,643.5l-0.2-0.2l-0.5-0.5l-0.5-0.3
			l-0.6-0.2l-1-0.2h-0.2l-0.1,0.1l-0.1,0.1l-0.2,0.1l-0.2,0.1h-0.2l-0.3-0.2l-0.2-0.2l-0.1-0.3v-0.3l-0.1-0.2l-0.1-0.2V641l0.1-0.2
			l0.1-0.2l0.1-0.2l0.3-1.3l0.2-0.3h-0.3h-0.2l-0.1-0.1l0.1-0.7l-0.1-0.2l-0.2-0.2l-0.3-0.2l-0.2,0.3l-0.4,0.2h-0.8l-0.4-0.1
			l-0.5-0.7l-0.4-0.1l-0.1,0.5l-0.3,0.2l-0.8,0.1l-0.3-0.1l-0.3-0.2l-0.3-0.2l-0.3,0.2l-0.4,0.2l-0.4-0.2l-0.4-0.3l-0.4-0.2h-0.2
			l-0.2,0.2l-0.2,0.2l-0.1,0.1v0.2l0.1,0.5v0.2l-0.2,0.4l-0.4,0.2l-0.8,0.3H383h-0.5h0.2l-0.2,0.1l-0.3,0.3L382,640l-0.1-0.2
			l-0.2-0.3l-0.2-0.2l-0.2-0.1h-0.2l-0.2-0.2h-0.1l-0.1,0.1v0.1v0.1l-0.1,0.2l-0.2,0.2l-0.2,0.1h-0.2h-0.2l-0.2-0.1v-0.2l0.2-0.5
			h-0.6l-0.2-0.1l-0.3-0.2l-0.2-0.1l-0.3,0.2l-0.8,0.2h-0.3l-0.2,0.1l-0.1,0.1l-0.1,0.1l-0.1,0.1h-0.4l-0.1-0.5v-0.5l-0.2,0.1
			l-0.1,0.2l-0.1,0.2l-0.1,0.2h-0.2h-0.2l-0.2,0.1l-0.2,0.2l-0.2,0.2l-0.4,0.4l-0.5,0.2l-1-0.1l0.1-0.4v-0.2l-0.1-0.2l-0.4-0.2
			l-0.2-0.3v-0.3l0.2-0.3l0.5-0.7l0.3-0.3l0.3-0.2l0.2-0.2l0.2-0.2v-0.3l-0.1-0.2l-0.2-0.2l-0.2-0.1h0.4l-0.2,0.1l-0.2,0.1l-0.2-0.2
			l-0.1-0.2v-0.7l-0.1-0.2l-0.1-0.2l-0.4,0.6l-0.2,0.1h-0.2h-0.1l-0.1,0.1l-0.3,0.3l-0.2,0.1l-1.8,0.3l-0.2,0.1l-0.4,0.3l-0.2,0.1
			h-0.5l-0.2,0.1l-0.2,0.2l-0.1,0.2l-0.2,0.3l-0.1,0.2l-0.2,0.2l-0.3,0.1l-0.3,0.2l-0.2,0.1l-0.2,0.6l-0.4,0.5l-0.8,0.7l-0.1,0.2
			l-0.1,0.2l-0.1,0.5l-0.1,0.2l-0.1,0.2l-0.1,0.1l-0.1,0.2l0.2,0.4l0.3,0.6l0.3,0.1h0.2h0.3l1.3-0.4l-0.2,0.2l-0.2,0.2l-0.2,0.1
			l-0.6-0.8l-0.3,0.1l-0.2,0.2v0.4l0.2,0.3l0.2,0.3l0.1,0.3l0.1,0.4l0.2,0.5l0.1,0.2h-0.1l-0.1-0.1l0,0l0,0l-0.1-0.1v0.2l0.2,0.3
			l0.1,0.4v1.1v0.2l0.1,0.2l0.2,0.3l0.1,0.2l-0.1,0.2h0.2l0.1,0.2v0.5l0.1,0.2l0.1,0.2v0.2l-0.1,0.2l0.2,0.5l0.2,0.5l0.2,0.5
			l0.5,0.1v0.1l-0.2,0.2v0.5l0.2,1.1v0.6l-1.1,5.3l0.2-0.2l0.2-0.3l0.2-0.4l0.1-0.2v-0.4l0.1-0.5l0.2-0.4l0.2-0.3l0.1,0.2l0.1-0.1
			l0.1-0.2v-0.2l0.2,0.3l-0.5,0.6l0.1,0.5l0.1,0.2l0.3,0.2h0.1h0.1l0.2-0.1l0.3-0.2h0.2l-0.2,0.2l-0.2,0.2l-0.2,0.1h-0.3l-0.2,0.1
			v0.2l0.1,0.2l0.2,0.2l-0.2,0.3l-0.1,0.2l-0.2,0.1l-0.1-0.1l-0.1-0.1l-0.8,0.8l-0.2,0.1v0.1v0.1l0.1,0.1v0.1v0.1h-0.1l-0.2-0.1
			l-0.2,0.2l-0.2,0.4v-0.5l-0.1,0.1v0.1l-0.3,0.7l-0.2,0.6l-0.2,1.3l-0.8,3.1l-0.4,0.7l-0.2,0.5v0.3l0.2,0.2l0.2,0.2l0.5,0.1
			l0.2,0.1l0.2,0.2l0.2,0.2v0.2h-0.6l-0.2-0.1l-0.2-0.2l-0.2,0.2l-1.4,4.3l-1.2,2.8l-0.1,0.3v0.3v0.2v0.2l-0.1,0.2l-0.2,0.5
			l-0.1,0.2l-0.2,0.2l-0.2,0.2l-0.2,0.1l-0.2,0.2l-0.4,0.5l-0.2,0.2v0.2l0.2,0.1l0.2,0.2l0.1,0.2l-0.2,0.2h-0.2l-0.1-0.2l-0.1-0.2
			l-0.2-0.1l-0.2,0.1l-0.5,0.6l-0.8,0.1l-0.2,0.1l0.1,0.2l0.5,0.5l0.2,0.3l0.1,0.6l-0.1,0.5l-0.2,0.5l-0.2,0.5l-0.3,0.5l-0.1,0.2
			l-0.2,1.3l-0.1,0.2l0.2,0.5l-0.1,0.7l-0.5,1.4l-0.1,0.3l-0.2,0.2l-0.1,0.2v0.3l0.2,0.7l-0.1,0.2v0.3l0.2,0.1l0.5-0.1l0.3,0.1
			l0.5,0.2l0.3,0.1l0.3-0.2h0.2h0.8l0.9-0.3l0.2-0.1l0.2-0.2l0.1-0.3l0.1-0.6l0.1-0.2l0.1-0.2l0.2-0.2l0.4-0.4l0.7-1.3l0.6-0.8
			l0.2-0.5l0.2-0.2l1-0.2l0.8-0.6l-0.2,0.2l-0.2,0.2l-0.5,0.3l-0.2,0.1l-0.5,0.1l-0.2,0.1l-0.4,0.3l-0.3,0.5l-0.5,1.1l0.1,0.4
			l0.1,0.4l0.2,0.2h0.3l-0.1,0.2l0.1,0.3l0.2,0.3l0.2,0.2v0.1h-0.5l-0.1,0.1h-0.1l-0.1-0.1l-0.2,0.1l-0.5,0.2l-0.2,0.2l-0.2,0.2
			l-0.1,0.2l0.1,0.2v0.1h-0.2l-0.4,0.1l-0.2,0.1l0.1,0.3h-0.1l-0.2-0.2l-0.6-0.5l-0.3,0.2l-1,0.2v0.1l0.4,0.5l0.4,0.6l0.3,0.7
			l0.1,0.8l-0.1,0.2l-0.2,0.6l-0.1,0.2l-0.1,0.1v0.1v0.1l0.1,0.1h0.1l0.2-0.1h0.1h0.1l0.3-0.2l1.4-0.3l1.4-0.7l0.5-0.1l0.5,0.2
			l0.4,0.2l0.2,0.1h0.3l0.1-0.2v-0.2l-0.2-0.2l-0.3-0.1v-0.1l0.2-0.1l0.2-0.5h0.2l-0.1,0.2v0.2l0.2,0.2l0.2,0.1v0.1l-0.1,0.1
			l-0.1,0.2v0.2v0.2l0.1,0.2l0.1,0.2l0.8,0.4l0.3,0.1h0.4l-0.6,0.2l-1.2-0.3h-0.5v-0.2l-0.2-0.2l-0.5-0.2l-0.5-0.4l-0.3-0.1
			l-0.2,0.2l0.3,0.2l0.5,0.4l0.4,0.5l0.2,0.4l0.4,2l0.1,1.4l-0.1,0.2l-0.1,0.2l-0.2,0.6l-0.1,0.5l-0.5,1.4l-0.1,0.1l-0.1,0.1
			l-0.1,0.1l-0.1,0.2l0.5,0.3l0.2,0.2l0.2,0.2l0.1,0.3v0.4l-0.1,1.8l0.1,0.3l0.3,0.1l0.3-0.2l0.2-0.1v0.1l-0.1,0.4l-0.3-0.1
			l-0.2,0.2l-0.1,0.4l-0.1,0.4l-0.2,0.7v0.2l0.1,0.3v0.2l0.1,1.4l-0.1,0.7l-0.2,0.5l-0.2,0.3l-0.2,0.3l-0.2,0.4l-0.1,0.8l-0.1,0.4
			l-0.2,0.3l-0.2,0.2l0.1,0.5l-0.2,0.4l-0.2,0.3l-0.4,0.8l-0.1,0.1l-0.1,0.2l-0.1,0.4l0.2-0.1l0.2,0.1l0.2,0.2l0.2,0.1l0.2-0.1
			l0.2-0.2l0.2-0.1l0.1-0.1l0.3-0.3l0.2-0.1h0.2l0.4,0.1h0.2l0.2-0.1l0.3-0.2l0.2-0.1h0.8l0.4-0.4l0.2-0.1l0.2-0.1l0.5-0.1l0.5,0.1
			l0.8,0.4l1.4,0.1h0.2l0.4,0.2h1.8l0.5,0.2l0.8,0.5l0.5,0.4l0.3,0.4v-0.2l-0.1-0.1l-0.2-0.2l0.2,0.1l0.2,0.1h0.2l0.1-0.2l0.2,0.1
			h0.8l0.2,0.1l0.2,0.1h0.2l0.4-0.4l1.8-1.2l0.1-0.2l0.7-0.5l0.2-0.1l0.5-0.3l0.2-0.1h0.2h0.3l0.2,0.1l0.2,0.2l0.1-0.1v1.3h-0.1
			v-0.1v-0.1v-0.1l-0.2-0.7l-0.1-0.3l0.1-0.2l-0.2-0.5l-0.1-1.1l-0.2-0.5v-1.6v-0.3l-0.1-0.4l-0.1-0.3l-0.1-0.1l-0.2-0.2l-0.1-0.1
			l-0.1-0.2v-0.1v-0.1l-0.1-0.2h-0.1l0,0l0,0l0.1-0.1l0.2-0.2V706v-0.1v-0.1v-0.1l0.2-0.1l0.3-0.3l0.1-0.2l0.1-0.2l0.1-0.7l0.2-0.5
			l0.2-0.3l1.1-0.9l0.3-0.6l0.2-0.5l0.2-0.7l0.1-0.3v-0.2v-0.2V700l0.1-0.1l0.4-0.1l0.2-0.1h0.2l0.2,0.1h0.2l0.2-0.1l0.2-0.1
			l0.1-0.1l0.2-0.2l0.2-0.3l0.1-0.2h0.2l0.7,0.2h0.3l0.1-0.4l0.1-0.2l0.1-0.5l0.2-0.5l0.2-0.5l0.1-0.2l0.2-0.5l-0.2-0.2h-0.3
			l-0.3,0.1l0,0h0.2l-0.2,0.2l-0.3,0.2l-0.3,0.1h-0.2l-0.3-0.2l-0.5-1.2l-0.1-0.1l-0.2-0.2l-0.1-0.1l-0.1-0.1l-0.1-0.2l-0.1-0.1
			l-1.2-1.6l-0.3-0.2l-0.2-0.1l0.2-0.2l0.2-0.2v-0.2l-0.2-0.2l0.2-0.2l0.2-0.8l0.5-0.7l0.1-0.2v-0.2l-0.1-0.1l-0.1-0.1l-0.1-0.1
			v-0.2v-0.2v-0.3l0.1-0.5l0.1-0.1l0.1-0.2v-0.1l0.7-0.5l0.2-0.1l0.2-0.2l0.2-0.2l0.1-0.2l0.2-0.1l0.5-0.2l0.2-0.1l0.2-0.2l0.2-0.2
			l0.1-0.1v-0.2l0.1-0.2l-0.2-0.3l0.2-0.2l0.3-0.4l0.4-0.8l0.2-0.2l0.1-0.2V684l-0.2-0.1l0.1-0.2l-0.1-0.3l-0.2-0.3l-0.2-0.2
			l-0.3-0.2l-0.3-0.1h-0.3l-0.3,0.2l-0.2,0.1h-0.2l-0.2-0.1l-0.2-0.2v-0.2l0.2-0.3V682l-0.2-0.3l-0.3-0.2l-0.3-0.1l-0.3-0.2
			l-0.2-0.2l-0.1-0.3v-0.3l0.2-0.3l-0.3-2.6l-0.2-0.2l-0.1-0.2l-0.1-0.3v-0.3l0.1-0.2l0.1-0.2l0.1-0.3v-0.3l-0.1-0.2l-0.5-0.2
			l-0.2-0.2l-0.2-0.2l-0.2-0.3l-0.1-0.2l-0.4-0.2l-0.2-0.2l-0.4-0.5l-0.2-0.2l-0.4-1.1l-0.1-0.2l2.6,0.2l0.2-0.1l0.2-0.1l0.2-0.1
			h0.5l0.2-0.1l0.2,0.2h0.4l1.8-0.2l0.2-0.1l0.2-0.3v-0.2v1.9v-0.2l0.1-0.2l0.2-0.2l0.1-0.2v-0.2l-0.1-0.2v-0.2l0.1-0.2l0.1-0.1
			l0.3-0.2l0.2-0.1l0.3-0.5l0.1-0.2v-0.2v-0.2v-0.1l-0.1-0.2v0.4l0,0l0.2-0.1v-0.1l0.1-0.4l0.1-0.2v-0.2l0.1-0.2l0.2-0.3l-0.5-0.8
			l-0.3-0.3l-0.2-0.2l-0.2-0.2l-0.2-0.1l-0.3-0.1l-0.2-0.1l-0.2-0.2l-0.1-0.5l-0.1-0.2l0.1-0.2l0.2-0.4l0.1-0.2l0.2-0.1l0.5-0.3h0.2
			h0.2h0.2l0.2-0.2v-1.2V664l0.1-0.2l0.1-0.1l0.5-0.4l0.1-0.1l0.2-0.4l-0.4-0.4l-0.3-0.5l-0.1-0.5l0.2-0.5l0.3-0.4v-0.2l-0.1-0.3
			l-0.2-0.2l-0.2-0.2l-0.1-0.2v-0.3l0.1-0.2l0.3-0.5l0.2-0.3V658v-0.5l-0.1-0.5l-0.2-0.5v-0.2v-0.5v-0.2v-0.1v0.3l-0.1-0.2v-0.1
			v-0.4l0.2-0.1l0.1-0.2l-0.1-0.2l-1.1-0.1l-0.2-0.1l-0.1-0.2l-0.1-0.3l-0.2-0.6l-0.2-0.3l-0.4-0.4l-0.2-0.2v-0.2l0.2-0.2l0.1-0.3
			l0.2-0.2l0.8,0.1h0.3l0.2-0.2l0.5-0.7l0.1-0.3v-0.4l0.1-0.1l0.2-0.2l0.4-0.4l0.1-0.2l0.1-0.2l0.4-0.6l0.2-0.2l0.2-0.1h0.8l0.1-0.1
			l0.7-0.3l0.4-0.3l0.4-0.4l0.4-0.6h0.1h0.2h0.1v-0.1v-0.2v-0.7l0,0l0.2-0.2l0.2-0.1h0.4v-0.2l0.5-0.8v-0.1v-0.1v-0.2l0.1-0.2
			l0.3-0.3l0.5-0.8h-1.3v0.6H396.8z M357.6,677.3l0.2-0.2h-0.1L357.6,677.3z M365.7,666.3h0.2l0.2-0.2l-0.4-0.2l-0.2-0.1h-0.1h-0.1
			l0.1,0.1v0.1L365.7,666.3z M363.4,685.8l0.2-0.1v-0.2l-0.1-0.2l-0.1-0.1l-0.1,0.1l-0.1,0.2L363.4,685.8z M363.4,685v0.2V685
			l0.2-0.2l-0.1-0.1L363.4,685z M363.2,685.8l0.1-0.2v-0.1l-0.1,0.1l0,0V685.8l-0.3,0.1l-0.2,0.2l-0.1,0.2h0.1l0.2-0.2L363.2,685.8z
			 M365.6,691.3L365.6,691.3L365.6,691.3l-0.1,0.2l0.1,0.1V691.3L365.6,691.3z"/>
		<text transform="matrix(1 0 0 1 315.5098 664.2852)" fill="#FF9400" font-family="'OpenSans-Extrabold'" font-size="8.2373">PORTUGAL</text>
		<rect x="441.4" y="664.3" fill="#FF9400" width="5.5" height="16.1"/>
		<text transform="matrix(1 0 0 1 450.7939 674.3243)" fill="#FF9400" font-family="'OpenSans-Bold'" font-size="5.8838">€75,000 INVESTED</text>
		<circle fill="#FF9400" stroke="#FF9400" stroke-miterlimit="10" cx="444.4" cy="690.5" r="2.7"/>
		<circle fill="#FF9400" stroke="#FF9400" stroke-miterlimit="10" cx="452.7" cy="690.5" r="2.7"/>
		<text transform="matrix(1 0 0 1 463.0723 692.3438)" fill="#FF9400" font-family="'OpenSans-Bold'" font-size="5.8838">3 FOUNDERS</text>
		<text transform="matrix(1 0 0 1 463.0723 699.4053)" fill="#FF9400" font-family="'OpenSans-Bold'" font-size="5.8838">3 JOBS CREATED</text>
		<text transform="matrix(1 0 0 1 441.8419 656.9903)" fill="#FF9400" font-family="'OpenSans-Light'" font-size="16.2855">1 TEAM</text>
	</g>
	<g>
		<path id="Suedafrika" fill="#FF9400" d="M55.3,776.5l9.6,19.1l0.2,4.3c-0.5,1.1-1.2,1.1-2.1,0.9c-0.4,0.5-0.7,1.1,0.1,1.6
			c1.1,2.1,2,4.7,3.5,6.3c1.2,1.4,3.1,2.2,4.5,3.5l3.8,0.3c0.8-0.5,0.1-1.3,2.9-1.5h5.5c1.8-0.7-0.2-2.4,5.4-2
			c0.9,0.2,1.3,1.1,2.7,0.4c2.6-0.5,5.2,0.6,7.8,1c0.8-0.6,0.5-1.6,4.8-0.8l0.5-1.8l5,0.1l29.7-27.7c4.8-1.9,5.8-7.7,7-13.1
			l-3.8-0.2c-0.1-0.5-3.6,2.1-4,2.1c-1.9,0.2-3-0.4-2.8-3.8c0.2-2.5,2.9-4.5,3.6-5c0.9-0.6,1.9,1.8,2.8,1.1c0,0-0.3-10.7-0.8-19.5
			c-2-1.2-3.4-3.3-6.9-2.1c-1.8-1.4-3.8-1.2-5.7-1.8l-20.5,16.2l-0.8,3.4c-2.3,1.2-4.8,1.1-6.9,1.3c-1.8-1.4-3.8-2.1-5.8-2.3l-3.4,3
			c-0.3,1.8-1.3,1.8-2,2.4c-1.1,0.7-1.8,1.5-2,2.5c-3.4,0.8-5.9,0.3-8.2-0.5c0.5-2,1.8-3.3,0.6-6.7l-4.8-5.3L74,775.2
			c-1.4,0.6-2.9,1.6-4.3,3c-2.4-0.2-4.3-0.5-7.8,0.1C61.4,776.2,59.2,771.9,55.3,776.5z"/>
		<text transform="matrix(1 0 0 1 84.5284 782.7032)" fill="#FFFFFF" font-family="'OpenSans-Extrabold'" font-size="8.2373">SOUTH </text>
		<text transform="matrix(1 0 0 1 84.5284 792.5958)" fill="#FFFFFF" font-family="'OpenSans-Extrabold'" font-size="8.2373">AFRICA</text>
		<rect x="174.5" y="766.6" fill="#FF9400" width="3.8" height="16.1"/>
		<text transform="matrix(1 0 0 1 181.9341 776.6368)" fill="#FF9400" font-family="'OpenSans-Bold'" font-size="5.8838">€50,000 INVESTED</text>
		<text transform="matrix(1 0 0 1 174.1841 759.3028)" fill="#FF9400" font-family="'OpenSans-Light'" font-size="16.2855">1 TEAM</text>
		<circle fill="#FF9400" stroke="#FF9400" stroke-miterlimit="10" cx="177.2" cy="792.8" r="2.7"/>
		<text transform="matrix(1 0 0 1 187.5845 794.6572)" fill="#FF9400" font-family="'OpenSans-Bold'" font-size="5.8838">2 FOUNDERS</text>
		<text transform="matrix(1 0 0 1 187.5845 801.7188)" fill="#FF9400" font-family="'OpenSans-Bold'" font-size="5.8838">2 JOBS CREATED</text>
	</g>
	<g>
		<rect x="441.5" y="766.2" fill="#FF9400" width="3.8" height="16.1"/>
		<text transform="matrix(1 0 0 1 448.9961 776.2559)" fill="#FF9400" font-family="'OpenSans-Bold'" font-size="5.8838">€50,000 INVESTED</text>
		<text transform="matrix(1 0 0 1 441.2462 758.9219)" fill="#FF9400" font-family="'OpenSans-Light'" font-size="16.2855">1 TEAM</text>
		<circle fill="#FF9400" stroke="#FF9400" stroke-miterlimit="10" cx="444.2" cy="792.3" r="2.7"/>
		<text transform="matrix(1 0 0 1 454.9298 794.2765)" fill="#FF9400" font-family="'OpenSans-Bold'" font-size="5.8838">2 FOUNDERS</text>
		<text transform="matrix(1 0 0 1 454.9298 801.3369)" fill="#FF9400" font-family="'OpenSans-Bold'" font-size="5.8838">2 JOBS CREATED</text>
		<g id="g2563">
			<path id="tr-" fill="#FF9400" d="M406.4,776.8c0.1-0.1,0.2-0.2,0.4-0.4c0.2-0.2,0.4-0.3,0.5-0.5s0.1-1.5,0.4-1.6
				c0.4-0.1,0.7,0.2,1,0c0.3-0.2,0.4-0.7,0.8-0.8c0.8-0.4,3.3,0.1,4-0.8c0.8-1-0.4-0.8,0.8-1.1c1.5-0.5,0.7,1.1,1.5,1.8
				c0.4,0.2,0.8-1.8,1.2-2.1c0.2-0.2,1-0.1,0.8-0.3c-1.1-1.8-0.2-0.2-1.8-1.1c-0.8-0.5-0.6-1.6-0.7-1.8c-0.1-0.2-1.5-0.4-1.8-0.4
				c-0.3,0-0.6,0.5-0.7,0.2c-0.2-0.7,0.1-1.7,0.1-2.4c0-0.2,0.1-0.5,0.1-0.8c-0.5-1.2-0.8,0.5-1.2-0.2c0-0.1-1.2-2.6-1.2-2.6
				c-0.6-0.2-0.2,0.8-0.9-0.5c-0.1-0.2,0-0.7-0.1-0.9c-0.2-0.5-1.2-0.5-1.5-1.1c-0.3-0.5,1.5-0.4,1.6-1.2c0.1-1.3-1.9-3,1.1-2.2
				l0.1-0.1c-0.6-0.3-1.5-0.7-2-0.8c-1.8-0.6-2.4,0.8-4.5,0.8c-0.2,0,0.2-0.4,0.2-0.5c-0.2-0.4-0.7-0.5-1-0.8
				c-0.5-0.6-0.1-1.8-0.2-2.4c-0.3-1.3-1.8-1.2-2.3-1.5c-0.2-0.2-0.1-0.5-0.2-0.6s-0.4-0.2-0.5-0.2c-0.2,0.1-0.4,0.4-0.7,0.5
				c-0.2,0-0.2-0.3-0.3-0.4c-0.2,0-0.3,0.4-0.4,0.2c-0.1-0.2,0.2-0.3,0.2-0.5c0.1-0.4-0.7-0.2-1.1-0.2c-0.3-0.1-0.5-0.2-0.8-0.2
				c-0.1,0,0,0.2-0.1,0.3c-0.8,0.2-0.2-0.5-0.4-0.7c-0.2-0.1-0.3,0.2-0.5,0.2c-0.2,0.1-0.5,0.1-0.7,0.3c-0.2,0.3,0.2,0.7,0,1
				c-0.2,0.2-0.5,0.2-0.7,0.2c-0.7,0.2-1.4,0.2-2,0.6c-0.2,0.2-0.1,0.5-0.3,0.8c-0.2,0.2-0.5,0.1-0.8,0.1c-0.2,0-0.5,0.1-0.8,0.1
				h-0.1c-0.3,1.2-0.7,2.1-1.8,3.1c-0.2,0.2-0.4,0.1-0.5,0.2c-0.7,0.8-1.4,2.8-2.4,3.1c-0.2,0.1-0.6-0.2-0.8-0.2
				c-0.2,0-0.2,0.4-0.5,0.5c-0.3,0.1-0.4-0.1-0.6-0.1c-0.2,0.1-0.4,0.3-0.6,0.2c-0.1,0-1-0.5-1.3-0.2c-0.2,0.2-0.2,0.5-0.5,0.7
				c-0.2,0.1-0.5-0.1-0.7,0c-0.2,0.2-0.2,0.4-0.4,0.5c-0.3,0.2-0.8,0.3-1.1,0.5c-0.5,0.5-0.5,0.8-1.1,1.2c-0.7,0.5-2.3,0.8-3.1,0.8
				c-1.8,0,0.2-0.2-0.8-0.6c-0.6-0.2-0.8,0.9-1,1c-0.4,0.2-0.8-0.1-1.2-0.1c-0.1-0.1-0.1-0.2-0.2-0.2c-0.4,0.1-0.8,0.4-1.2,0.4
				c-0.2,0-0.1-0.4-0.2-0.5c-0.2-0.2-0.6-0.3-1-0.3c-2,0.1-1,2-3,1.1c-0.6-0.3-0.9-1.8-1.5-1.8c-0.2,0-0.2,0.6-0.5,0.5
				c-0.2-0.1,0.2-0.7-0.1-0.7c-0.5,0.1-1.3,1.9-3.1,1.2c-1.8-0.7-0.8-1.8-0.9-1.8c-0.2-0.3-0.7-0.1-1.1-0.1c-0.2,0-0.3-0.1-0.4,0
				c-0.2,0.2-0.1,0.7-0.2,0.9c-0.5,1-5.8,1.8-7.2,2.3c-0.6,0.2-1.1,1-1.5,1.4c-0.4,0.4-1.1,0.5-1.5,0.8c-1.2,1-2.1,2.6-3.3,3.8
				c-0.3,0.4-0.8,0.9-1.1,1.1c-0.1,0.1-0.3,0-0.3,0.1c-0.2,1,0.5,1-0.4,1.8c-0.1,0.1-0.4,0-0.5,0.1c-1.2,0.5-0.2,0.6-1.8,0.7
				c-0.5,0-2-0.4-2.4-0.2c-0.2,0.1-0.1,0.3-0.2,0.4c-0.5,0.5-1.5,0.7-2.3,0.8c-0.8,0.1-2.8,0.2-2.9,0.2c-0.2,0.5-0.3,1-0.4,1.4
				c-0.2,0.7,1.1,0.7,1.2,0.7s0.2,0,0.3,0.1c0.1,0.2-0.2,0.4-0.1,0.4c0.2,0.1,0.2-0.2,0.4-0.2c0.1,0.1,0.1,0.3,0.2,0.3
				c1,0.1,1.8-0.8,2.8-0.8c0.8,0.1-1.5,1-1.8,1.1c-0.2,0-0.2-0.4-0.2-0.3c-0.1,0.1-3.1,1.9-3.2,2.1c-0.7,1,2.6-0.5,1.6,0.8
				c-0.2,0.2-2.2,0.4-2.9,0.5c-1.4,0.2-2.5,1.1-2.6,1c-0.2-0.2,0.5-0.8,0.2-1c-0.3-0.2-0.8,0-1.2,0.1c-0.1,0.1,0,0.2-0.1,0.2
				c-0.1,0-0.4-0.2-0.4-0.2c0.2,0.2,0.7,0.4,0.6,0.8c-0.2,0.5-0.8,0.8-1.2,1c-1.1,0.4-1.3-0.7-1.5-0.8c-0.7-0.1-1,0.8-1.4,0.9
				c-0.2,0.1-1,0-1.3,0.4c-0.3,0.4-0.4,0.9-0.7,1.2c-0.2,0.2-0.4,0.1-0.5,0.2c-0.1,0.2,0.1,0.4,0.1,0.5c-0.1,0.2-0.1,0.5-0.2,0.8
				c-0.3,0.3-0.8,0.1-0.8,0.6c0.1,0.8,0.5,1.2,0.5,1.8c0.1,0.2-0.6,1.4,0.2,1.4c0.1,0,3.2-1.5,3.6-1.6c0.1-0.1,0.3-0.2,0.2-0.1
				c-0.2,0.5-0.6,1.6-1,2.1c-0.1,0.1-0.5-0.1-0.2,0.2c0.3,0.2,1.4,0.2,1.6,1c0,0.2-0.5,0.6-0.3,0.8c0.2,0.1,1.8-0.5,1.4,0.2
				c-0.2,0.8-1.8,1.4-1.4,1.8c0.3,0.5,1.1,1.1,1.2,1.1c0.2-0.2,0.5-0.2,0.7-0.3c0.2-0.1,0.7-0.2,0.7,0c-0.1,0.1-1.5,1.1-1.8,1.1
				c-0.2,0.1-0.4-0.5-0.6-0.4c-0.2,0.2,0.4,1,0.1,0.8c-0.1,0-1-1.9-1.2-2.1c-0.2-0.1-0.5-0.2-0.6,0.1c-0.2,0.3,0.1,0.7,0.2,1.1
				c0,0.2-0.2,0.3-0.1,0.4c0.2,0.1,0.8-0.2,0.8,0.1c-0.1,0.4-0.5,0.6-0.9,0.8c-0.1,0-0.2-0.3-0.2-0.2c-0.1,0.1,0.2,0.2,0.2,0.3
				s-0.4,0.3-0.2,0.4c0.3,0.2,0.7,0,1.1,0.1c0.1,0,0.9,0.7,1,0.5c0.3-0.2,0.4-0.8,0.7-1c0.4-0.2,0.4,0.9,0.8,1.1
				c0.2,0.1,0.4-0.4,0.5-0.4c0.2,0,1.6,0.4,1.6,0.4c0.1,0.1,0.4,1.3,0.2,1.5c-0.3,0.3-1.5,0.5-1.1,0.7c0.4,0.1,0.8-0.1,1.2,0.2
				c0.4,0.3-0.3,1.4,0.2,1.5s0.7-0.7,1.1-0.7c0.4,0.1,0.5,0.6,0.9,0.8c0.1,0.1,0.3-0.2,0.3-0.1c0.8,2.4-3.6-0.1-1.8,2
				c0.2,0.2,0.7-0.2,1-0.2c0.5,0,0.3,0.5,0.8,0.2c0.1-0.1-0.1-0.2-0.1-0.2c0.4-0.2,0.8,0,1.1-0.2c0.4-0.2,1.4-0.7,1.6-0.8
				c0.4-0.2,1-0.7,1.2-0.3c1,1.2-1.4,0.8-1.4,1.1c0,0.3,0.5,0.6,0.3,0.8c-0.3,0.3-0.8,0-1.2,0.1c-0.8,0.2-1.5,0.8-2.1,1.3
				c-0.2,0.2,0.7-0.1,1-0.2c0.2,0,0.5,0.2,0.7,0.1c0.2-0.2-0.1-0.5,0.2-0.7c0.3-0.2,0.7-0.1,1.1-0.2c1.1-0.3,0.9-0.8,1-0.7
				c0.7,1.4-0.1,1-0.5,1.4c-0.1,0.1,0.3,0.2,0.4,0.2c0.1-0.2,1.5-1.8,1.5-1.8c0.2-0.2,0-0.7,0.2-0.8c1.3-0.6,0.7,0.7,1.1,1
				c0.3,0.2,0.8,0.1,1.1,0.2c0.1,0,0.1,0.2,0.2,0.2c0.5-0.5-0.5-1.1,0.2-1.2c1.4-0.2,1.3,2,1.4,2.1c1.1,0.8,1.8,0.4,3,0.5
				c0.2,0,0.2,0.5,0.5,0.4c0.5-0.1,2.1-1.8,2.2-1.8c0.2-0.3,1-0.4,1.3-0.2c0.1,0.1,0,0.5,0.1,0.4c0.2-0.2,0.4-0.7,0.4-1
				c0-0.2-0.4-0.2-0.4-0.4c-0.1-0.3,0.2-0.6,0.3-0.9c0.2-0.6-0.8-1.4-0.2-2.1c0.2-0.2,2.6-0.7,3.1-0.8c0.2,0,4.5,0.5,4.8,0.5
				c2,0.5,1.6,2,4.2,2.2c1.3,0.1,0.2-0.2,1.2-0.8c0.2-0.2,0.6,0.1,0.8-0.1c0.2-0.1,0-0.4,0.1-0.5c0.4-0.2,1.9-0.5,2.1-0.5
				c0.2-0.2,0.2-0.5,0.5-0.7c0.2-0.1,0.2,0.3,0.3,0.2c0.1,0,0.5-1.5,0.7-1.4c0.2,0,0.4,0.5,0.6,0.5c1-0.3,0.2-0.9,0.2-1.4
				c0.2-1,1.2-2.4,1.8-3.1c1-1.4,4,0.4,4.3,0.1c0.3-0.2,0.4-0.7,0.7-0.8c0.1-0.1,1.5,0.2,0.8-0.9c-0.1-0.2-0.5,0.7-0.4,0.5
				c0.1-0.2,0.6-0.4,0.5-0.6c-0.1-0.2-0.4,0.3-0.7,0.2c-0.2-0.1,0.2-0.2,0.3-0.4c0.2-0.2,0.5-0.3,0.8-0.5c0.3-0.4,0.2-1.2,0.7-1.3
				c0.7-0.2,1.4,0.8,1.5,1.4c0.1,0.2-1.8,2.5-1.5,2.9c0.3,0.7,1.5,0.8,1.6,1.6c0.1,0.2-0.1,0.4-0.2,0.5l0,0c0.4-0.2,1.3,0.5,1.5,0.2
				c0.2-0.2-0.2-0.7-0.1-1.1c0.1-0.2,0.5-0.3,0.7-0.5l-0.3-1.3c0-0.1,1.4-0.6,1.5-0.7c0.1-0.2-0.8-0.7-0.9-0.8
				c-0.4-0.5-0.8-2.3-0.5-2.9c0.1-0.2,2-0.2,2.1,0c0.1,0.1-0.2,0.9,0.4,0.5c0.2-0.1,0.1-0.4,0.2-0.4c0.5-0.3,1.1-0.2,1.8-0.5
				c1.4-0.7,2.2-3.4,4-3.5c0.7-0.1,1.4,0.5,2.1,0.5c1.4,0,3.1-1.2,4.3-2c2-1.2,2.9-3.6,4.8-5c1.1-0.8,2.8-1,4-1.8
				c0.5-0.4,1.6-1,2-1.6c0.2-0.4,0.4-1.8,1.2-0.8C406.2,776.3,406.3,776.5,406.4,776.8L406.4,776.8z"/>
			<path id="tr_152" fill="#FF9400" d="M327.4,771.4L327.4,771.4c-0.4,0.1-0.7,0-1,0.1c-0.4,0.2-0.7,0.5-1.1,0.8
				c-0.1,0.1,0,0.2-0.1,0.2c-1.1-0.2-1.5-1.1-2.7-0.5l-0.8,1c-0.4,0.2-0.8-0.1-1.1,0.2c-0.3,0.2,0,0.8-0.2,1.1
				c-0.3,0.4-1.3,0.2-0.8,1c1.1,0.2,2.6,1.3,1.8,2.2c-0.5,0.6-1.1,0.3-1.3,1.3l0.4,1.4c-0.1,0.4-0.8,1.5-1.1,1.8l-0.1,0.5
				c0.1,0.1,0.3,0.2,0.5,0.2c0.8,0.2,3.8-1.8,3.5-0.8c-0.1,0.7-2.6,1.8-2.8,2.5c0,0.2,0.3,0.2,0.4,0.4s0.1,0.3,0,0.5
				c-0.1,0.3-0.4,1.1-0.2,1c1-0.8,1.1-2.1,2-3.1c0.7-1,2-1.2,2.8-2.3c0.2-0.4,0.4-0.8,0.5-1.1c0.1-0.3-0.2-0.7,0.1-0.9
				c0.8-1.1,1.2-0.1,2.2-0.5c0.2-0.1,0.1-0.4,0.2-0.5c0.3-0.2,0.6-0.5,1-0.5c1.1-0.4,1.8,0.8,1.4-0.4c-0.1-0.2,0.2,0.7,0.5,0.7
				c0.4-0.1,1.8-0.3,1.8-0.7c0.2-0.3-0.1-0.7,0.1-1c0-0.2,0.4-0.5,0.2-0.7c-1.1-0.4-3.4,0.1-4.8-0.8
				C326.9,772.9,327.7,772.3,327.4,771.4L327.4,771.4z"/>
		</g>
		<path id="path2557" fill="#FF9400" d="M406.4,776.8c0.1-0.1,0.2-0.2,0.4-0.4c0.2-0.2,0.4-0.3,0.5-0.5s0.1-1.5,0.4-1.6
			c0.4-0.1,0.7,0.2,1,0c0.3-0.2,0.4-0.7,0.8-0.8c0.8-0.4,3.3,0.1,4-0.8c0.8-1-0.4-0.8,0.8-1.1c1.5-0.5,0.7,1.1,1.5,1.8
			c0.4,0.2,0.8-1.8,1.2-2.1c0.2-0.2,1-0.1,0.8-0.3c-1.1-1.8-0.2-0.2-1.8-1.1c-0.8-0.5-0.6-1.6-0.7-1.8c-0.1-0.2-1.5-0.4-1.8-0.4
			c-0.3,0-0.6,0.5-0.7,0.2c-0.2-0.7,0.1-1.7,0.1-2.4c0-0.2,0.1-0.5,0.1-0.8c-0.5-1.2-0.8,0.5-1.2-0.2c0-0.1-1.2-2.6-1.2-2.6
			c-0.6-0.2-0.2,0.8-0.9-0.5c-0.1-0.2,0-0.7-0.1-0.9c-0.2-0.5-1.2-0.5-1.5-1.1c-0.3-0.5,1.5-0.4,1.6-1.2c0.1-1.3-1.9-3,1.1-2.2
			l0.1-0.1c-0.6-0.3-1.5-0.7-2-0.8c-1.8-0.6-2.4,0.8-4.5,0.8c-0.2,0,0.2-0.4,0.2-0.5c-0.2-0.4-0.7-0.5-1-0.8
			c-0.5-0.6-0.1-1.8-0.2-2.4c-0.3-1.3-1.8-1.2-2.3-1.5c-0.2-0.2-0.1-0.5-0.2-0.6s-0.4-0.2-0.5-0.2c-0.2,0.1-0.4,0.4-0.7,0.5
			c-0.2,0-0.2-0.3-0.3-0.4c-0.2,0-0.3,0.4-0.4,0.2c-0.1-0.2,0.2-0.3,0.2-0.5c0.1-0.4-0.7-0.2-1.1-0.2c-0.3-0.1-0.5-0.2-0.8-0.2
			c-0.1,0,0,0.2-0.1,0.3c-0.8,0.2-0.2-0.5-0.4-0.7c-0.2-0.1-0.3,0.2-0.5,0.2c-0.2,0.1-0.5,0.1-0.7,0.3c-0.2,0.3,0.2,0.7,0,1
			c-0.2,0.2-0.5,0.2-0.7,0.2c-0.7,0.2-1.4,0.2-2,0.6c-0.2,0.2-0.1,0.5-0.3,0.8c-0.2,0.2-0.5,0.1-0.8,0.1c-0.2,0-0.5,0.1-0.8,0.1
			h-0.1c-0.3,1.2-0.7,2.1-1.8,3.1c-0.2,0.2-0.4,0.1-0.5,0.2c-0.7,0.8-1.4,2.8-2.4,3.1c-0.2,0.1-0.6-0.2-0.8-0.2
			c-0.2,0-0.2,0.4-0.5,0.5c-0.3,0.1-0.4-0.1-0.6-0.1c-0.2,0.1-0.4,0.3-0.6,0.2c-0.1,0-1-0.5-1.3-0.2c-0.2,0.2-0.2,0.5-0.5,0.7
			c-0.2,0.1-0.5-0.1-0.7,0c-0.2,0.2-0.2,0.4-0.4,0.5c-0.3,0.2-0.8,0.3-1.1,0.5c-0.5,0.5-0.5,0.8-1.1,1.2c-0.7,0.5-2.3,0.8-3.1,0.8
			c-1.8,0,0.2-0.2-0.8-0.6c-0.6-0.2-0.8,0.9-1,1c-0.4,0.2-0.8-0.1-1.2-0.1c-0.1-0.1-0.1-0.2-0.2-0.2c-0.4,0.1-0.8,0.4-1.2,0.4
			c-0.2,0-0.1-0.4-0.2-0.5c-0.2-0.2-0.6-0.3-1-0.3c-2,0.1-1,2-3,1.1c-0.6-0.3-0.9-1.8-1.5-1.8c-0.2,0-0.2,0.6-0.5,0.5
			c-0.2-0.1,0.2-0.7-0.1-0.7c-0.5,0.1-1.3,1.9-3.1,1.2c-1.8-0.7-0.8-1.8-0.9-1.8c-0.2-0.3-0.7-0.1-1.1-0.1c-0.2,0-0.3-0.1-0.4,0
			c-0.2,0.2-0.1,0.7-0.2,0.9c-0.5,1-5.8,1.8-7.2,2.3c-0.6,0.2-1.1,1-1.5,1.4c-0.4,0.4-1.1,0.5-1.5,0.8c-1.2,1-2.1,2.6-3.3,3.8
			c-0.3,0.4-0.8,0.9-1.1,1.1c-0.1,0.1-0.3,0-0.3,0.1c-0.2,1,0.5,1-0.4,1.8c-0.1,0.1-0.4,0-0.5,0.1c-1.2,0.5-0.2,0.6-1.8,0.7
			c-0.5,0-2-0.4-2.4-0.2c-0.2,0.1-0.1,0.3-0.2,0.4c-0.5,0.5-1.5,0.7-2.3,0.8c-0.8,0.1-2.8,0.2-2.9,0.2c-0.2,0.5-0.3,1-0.4,1.4
			c-0.2,0.7,1.1,0.7,1.2,0.7s0.2,0,0.3,0.1c0.1,0.2-0.2,0.4-0.1,0.4c0.2,0.1,0.2-0.2,0.4-0.2c0.1,0.1,0.1,0.3,0.2,0.3
			c1,0.1,1.8-0.8,2.8-0.8c0.8,0.1-1.5,1-1.8,1.1c-0.2,0-0.2-0.4-0.2-0.3c-0.1,0.1-3.1,1.9-3.2,2.1c-0.7,1,2.6-0.5,1.6,0.8
			c-0.2,0.2-2.2,0.4-2.9,0.5c-1.4,0.2-2.5,1.1-2.6,1c-0.2-0.2,0.5-0.8,0.2-1c-0.3-0.2-0.8,0-1.2,0.1c-0.1,0.1,0,0.2-0.1,0.2
			c-0.1,0-0.4-0.2-0.4-0.2c0.2,0.2,0.7,0.4,0.6,0.8c-0.2,0.5-0.8,0.8-1.2,1c-1.1,0.4-1.3-0.7-1.5-0.8c-0.7-0.1-1,0.8-1.4,0.9
			c-0.2,0.1-1,0-1.3,0.4c-0.3,0.4-0.4,0.9-0.7,1.2c-0.2,0.2-0.4,0.1-0.5,0.2c-0.1,0.2,0.1,0.4,0.1,0.5c-0.1,0.2-0.1,0.5-0.2,0.8
			c-0.3,0.3-0.8,0.1-0.8,0.6c0.1,0.8,0.5,1.2,0.5,1.8c0.1,0.2-0.6,1.4,0.2,1.4c0.1,0,3.2-1.5,3.6-1.6c0.1-0.1,0.3-0.2,0.2-0.1
			c-0.2,0.5-0.6,1.6-1,2.1c-0.1,0.1-0.5-0.1-0.2,0.2c0.3,0.2,1.4,0.2,1.6,1c0,0.2-0.5,0.6-0.3,0.8c0.2,0.1,1.8-0.5,1.4,0.2
			c-0.2,0.8-1.8,1.4-1.4,1.8c0.3,0.5,1.1,1.1,1.2,1.1c0.2-0.2,0.5-0.2,0.7-0.3c0.2-0.1,0.7-0.2,0.7,0c-0.1,0.1-1.5,1.1-1.8,1.1
			c-0.2,0.1-0.4-0.5-0.6-0.4c-0.2,0.2,0.4,1,0.1,0.8c-0.1,0-1-1.9-1.2-2.1c-0.2-0.1-0.5-0.2-0.6,0.1c-0.2,0.3,0.1,0.7,0.2,1.1
			c0,0.2-0.2,0.3-0.1,0.4c0.2,0.1,0.8-0.2,0.8,0.1c-0.1,0.4-0.5,0.6-0.9,0.8c-0.1,0-0.2-0.3-0.2-0.2c-0.1,0.1,0.2,0.2,0.2,0.3
			s-0.4,0.3-0.2,0.4c0.3,0.2,0.7,0,1.1,0.1c0.1,0,0.9,0.7,1,0.5c0.3-0.2,0.4-0.8,0.7-1c0.4-0.2,0.4,0.9,0.8,1.1
			c0.2,0.1,0.4-0.4,0.5-0.4c0.2,0,1.6,0.4,1.6,0.4c0.1,0.1,0.4,1.3,0.2,1.5c-0.3,0.3-1.5,0.5-1.1,0.7c0.4,0.1,0.8-0.1,1.2,0.2
			c0.4,0.3-0.3,1.4,0.2,1.5s0.7-0.7,1.1-0.7c0.4,0.1,0.5,0.6,0.9,0.8c0.1,0.1,0.3-0.2,0.3-0.1c0.8,2.4-3.6-0.1-1.8,2
			c0.2,0.2,0.7-0.2,1-0.2c0.5,0,0.3,0.5,0.8,0.2c0.1-0.1-0.1-0.2-0.1-0.2c0.4-0.2,0.8,0,1.1-0.2c0.4-0.2,1.4-0.7,1.6-0.8
			c0.4-0.2,1-0.7,1.2-0.3c1,1.2-1.4,0.8-1.4,1.1c0,0.3,0.5,0.6,0.3,0.8c-0.3,0.3-0.8,0-1.2,0.1c-0.8,0.2-1.5,0.8-2.1,1.3
			c-0.2,0.2,0.7-0.1,1-0.2c0.2,0,0.5,0.2,0.7,0.1c0.2-0.2-0.1-0.5,0.2-0.7c0.3-0.2,0.7-0.1,1.1-0.2c1.1-0.3,0.9-0.8,1-0.7
			c0.7,1.4-0.1,1-0.5,1.4c-0.1,0.1,0.3,0.2,0.4,0.2c0.1-0.2,1.5-1.8,1.5-1.8c0.2-0.2,0-0.7,0.2-0.8c1.3-0.6,0.7,0.7,1.1,1
			c0.3,0.2,0.8,0.1,1.1,0.2c0.1,0,0.1,0.2,0.2,0.2c0.5-0.5-0.5-1.1,0.2-1.2c1.4-0.2,1.3,2,1.4,2.1c1.1,0.8,1.8,0.4,3,0.5
			c0.2,0,0.2,0.5,0.5,0.4c0.5-0.1,2.1-1.8,2.2-1.8c0.2-0.3,1-0.4,1.3-0.2c0.1,0.1,0,0.5,0.1,0.4c0.2-0.2,0.4-0.7,0.4-1
			c0-0.2-0.4-0.2-0.4-0.4c-0.1-0.3,0.2-0.6,0.3-0.9c0.2-0.6-0.8-1.4-0.2-2.1c0.2-0.2,2.6-0.7,3.1-0.8c0.2,0,4.5,0.5,4.8,0.5
			c2,0.5,1.6,2,4.2,2.2c1.3,0.1,0.2-0.2,1.2-0.8c0.2-0.2,0.6,0.1,0.8-0.1c0.2-0.1,0-0.4,0.1-0.5c0.4-0.2,1.9-0.5,2.1-0.5
			c0.2-0.2,0.2-0.5,0.5-0.7c0.2-0.1,0.2,0.3,0.3,0.2c0.1,0,0.5-1.5,0.7-1.4c0.2,0,0.4,0.5,0.6,0.5c1-0.3,0.2-0.9,0.2-1.4
			c0.2-1,1.2-2.4,1.8-3.1c1-1.4,4,0.4,4.3,0.1c0.3-0.2,0.4-0.7,0.7-0.8c0.1-0.1,1.5,0.2,0.8-0.9c-0.1-0.2-0.5,0.7-0.4,0.5
			c0.1-0.2,0.6-0.4,0.5-0.6c-0.1-0.2-0.4,0.3-0.7,0.2c-0.2-0.1,0.2-0.2,0.3-0.4c0.2-0.2,0.5-0.3,0.8-0.5c0.3-0.4,0.2-1.2,0.7-1.3
			c0.7-0.2,1.4,0.8,1.5,1.4c0.1,0.2-1.8,2.5-1.5,2.9c0.3,0.7,1.5,0.8,1.6,1.6c0.1,0.2-0.1,0.4-0.2,0.5l0,0c0.4-0.2,1.3,0.5,1.5,0.2
			c0.2-0.2-0.2-0.7-0.1-1.1c0.1-0.2,0.5-0.3,0.7-0.5l-0.3-1.3c0-0.1,1.4-0.6,1.5-0.7c0.1-0.2-0.8-0.7-0.9-0.8
			c-0.4-0.5-0.8-2.3-0.5-2.9c0.1-0.2,2-0.2,2.1,0c0.1,0.1-0.2,0.9,0.4,0.5c0.2-0.1,0.1-0.4,0.2-0.4c0.5-0.3,1.1-0.2,1.8-0.5
			c1.4-0.7,2.2-3.4,4-3.5c0.7-0.1,1.4,0.5,2.1,0.5c1.4,0,3.1-1.2,4.3-2c2-1.2,2.9-3.6,4.8-5c1.1-0.8,2.8-1,4-1.8
			c0.5-0.4,1.6-1,2-1.6c0.2-0.4,0.4-1.8,1.2-0.8C406.2,776.3,406.3,776.5,406.4,776.8L406.4,776.8z"/>
		<text transform="matrix(1 0 0 1 356.2013 780.1289)" fill="#FFFFFF" font-family="'OpenSans-Extrabold'" font-size="8.2373">TURKEY</text>
	</g>
</g>
<g id="Layer_2">
</g>
</svg>
