<svg xmlns="http://www.w3.org/2000/svg" xmlns:xlink="http://www.w3.org/1999/xlink" version="1.1" id="Your_Icon" x="0px" y="0px" width="100px" height="100px" viewBox="0 0 100 100" enable-background="new 0 0 100 100" xml:space="preserve">
<path fill="#000000" d="M78.359,56.31c0.052-0.067,0.098-0.137,0.142-0.211c0.045-0.071,0.084-0.145,0.119-0.22  c0.037-0.076,0.069-0.153,0.098-0.232c0.029-0.079,0.055-0.159,0.075-0.24c0.021-0.08,0.038-0.16,0.051-0.244  c0.014-0.089,0.021-0.178,0.026-0.27c0.003-0.045,0.015-0.089,0.015-0.135c0-0.035-0.009-0.068-0.011-0.103  c-0.004-0.093-0.014-0.183-0.027-0.274c-0.012-0.08-0.024-0.159-0.044-0.237c-0.02-0.083-0.047-0.162-0.074-0.243  c-0.029-0.082-0.059-0.163-0.096-0.24c-0.033-0.072-0.073-0.141-0.114-0.209c-0.047-0.082-0.095-0.16-0.15-0.234  c-0.021-0.027-0.034-0.059-0.057-0.086L50.467,18.455c-0.027-0.036-0.062-0.062-0.092-0.096c-0.062-0.068-0.126-0.133-0.193-0.196  c-0.062-0.055-0.124-0.106-0.19-0.155c-0.067-0.051-0.137-0.099-0.211-0.143c-0.072-0.044-0.145-0.083-0.22-0.119  c-0.076-0.036-0.153-0.068-0.233-0.099c-0.079-0.028-0.158-0.054-0.24-0.073c-0.079-0.021-0.161-0.039-0.243-0.051  c-0.09-0.015-0.178-0.023-0.27-0.027c-0.046-0.002-0.089-0.014-0.135-0.014c-0.035,0-0.068,0.009-0.104,0.01  c-0.092,0.004-0.182,0.016-0.271,0.028c-0.082,0.012-0.163,0.024-0.241,0.043c-0.082,0.021-0.16,0.047-0.24,0.075  c-0.083,0.029-0.164,0.059-0.242,0.095c-0.071,0.033-0.14,0.074-0.209,0.114c-0.081,0.047-0.159,0.097-0.234,0.151  c-0.026,0.021-0.059,0.034-0.085,0.056c-0.036,0.029-0.062,0.063-0.096,0.093c-0.068,0.062-0.133,0.124-0.195,0.193  c-0.056,0.061-0.107,0.124-0.156,0.19c-0.051,0.067-0.099,0.137-0.142,0.211c-0.044,0.07-0.084,0.145-0.12,0.219  c-0.036,0.076-0.068,0.154-0.098,0.232c-0.029,0.08-0.055,0.16-0.074,0.241c-0.021,0.08-0.038,0.16-0.051,0.244  c-0.015,0.089-0.023,0.178-0.027,0.269c-0.002,0.046-0.014,0.09-0.014,0.135v12.264l-13.325,21.02  c-0.035,0.055-0.056,0.116-0.086,0.172c-0.045,0.084-0.092,0.168-0.127,0.256c-0.033,0.082-0.054,0.166-0.077,0.249  c-0.023,0.079-0.05,0.156-0.065,0.239c-0.019,0.1-0.024,0.201-0.03,0.303c-0.004,0.059-0.018,0.115-0.018,0.174  c0,0.012,0.002,0.023,0.004,0.035c0.001,0.104,0.017,0.205,0.03,0.309c0.009,0.068,0.012,0.138,0.026,0.205  c0.018,0.086,0.051,0.169,0.079,0.254c0.024,0.075,0.042,0.152,0.073,0.227c0.036,0.083,0.087,0.162,0.132,0.242  c0.036,0.064,0.066,0.132,0.107,0.191c0.052,0.078,0.116,0.145,0.178,0.216c0.048,0.058,0.091,0.119,0.145,0.172  c0.056,0.054,0.12,0.099,0.182,0.148c0.072,0.061,0.142,0.123,0.221,0.175c0.012,0.007,0.019,0.016,0.03,0.023  c0.024,0.015,0.052,0.02,0.077,0.034c0.16,0.095,0.332,0.171,0.514,0.229c0.053,0.018,0.104,0.035,0.159,0.051  c0.205,0.051,0.414,0.086,0.634,0.088c0.001,0,0.004,0.001,0.007,0.001c0,0,0,0,0.001,0h0.001H45.84v5.058H24.31  c-0.06,0-0.115,0.014-0.174,0.018c-0.093,0.006-0.183,0.012-0.275,0.028c-0.088,0.015-0.17,0.039-0.255,0.063  c-0.076,0.021-0.154,0.041-0.229,0.071c-0.097,0.036-0.186,0.083-0.275,0.131c-0.046,0.023-0.094,0.039-0.139,0.065  c-0.016,0.009-0.028,0.023-0.043,0.033c-0.089,0.056-0.168,0.121-0.249,0.187c-0.054,0.043-0.11,0.084-0.16,0.132  c-0.065,0.065-0.124,0.138-0.184,0.209c-0.049,0.058-0.102,0.113-0.146,0.175c-0.051,0.073-0.091,0.152-0.134,0.229  c-0.038,0.068-0.08,0.135-0.11,0.205c-0.036,0.078-0.059,0.162-0.087,0.243c-0.025,0.079-0.055,0.156-0.073,0.237  c-0.016,0.072-0.021,0.148-0.032,0.224c-0.014,0.098-0.027,0.194-0.029,0.293c-0.001,0.02-0.006,0.037-0.006,0.056  c0,0.054,0.013,0.104,0.015,0.155c0.007,0.102,0.014,0.202,0.031,0.302c0.014,0.079,0.036,0.152,0.057,0.228  c0.023,0.088,0.047,0.174,0.08,0.259c0.033,0.083,0.074,0.16,0.114,0.239c0.028,0.055,0.047,0.112,0.079,0.166  c0.021,0.036,0.045,0.068,0.067,0.104c0,0,0.001,0.001,0.002,0.002c5.915,9.678,16.197,15.454,27.531,15.454  c11.38,0,21.699-5.816,27.601-15.56c0.046-0.074,0.074-0.156,0.11-0.232c0.024-0.049,0.05-0.096,0.07-0.146  c0.047-0.117,0.08-0.234,0.11-0.354c0.01-0.043,0.024-0.086,0.033-0.132c0.025-0.135,0.035-0.267,0.039-0.401  c0.001-0.029,0.009-0.056,0.009-0.084c0-0.01-0.002-0.02-0.002-0.03c-0.003-0.134-0.019-0.267-0.041-0.399  c-0.008-0.039-0.009-0.08-0.018-0.119c-0.026-0.121-0.066-0.235-0.109-0.351c-0.017-0.045-0.028-0.092-0.046-0.135  c-0.047-0.105-0.106-0.206-0.166-0.305c-0.026-0.044-0.05-0.091-0.079-0.134c-0.058-0.086-0.128-0.162-0.198-0.24  c-0.044-0.051-0.083-0.102-0.13-0.147c-0.062-0.06-0.131-0.11-0.198-0.164c-0.07-0.056-0.139-0.113-0.214-0.161  c-0.018-0.01-0.03-0.025-0.048-0.035c-0.048-0.029-0.099-0.046-0.148-0.071c-0.088-0.046-0.174-0.092-0.268-0.127  c-0.072-0.028-0.147-0.049-0.222-0.069c-0.089-0.025-0.176-0.051-0.269-0.065c-0.083-0.016-0.165-0.021-0.249-0.025  c-0.066-0.005-0.128-0.021-0.195-0.021H51.04v-5.058h25.244c0,0,0,0,0.002,0l0,0c0,0,0.001,0,0.002,0  c0.267,0,0.521-0.054,0.765-0.128c0.043-0.015,0.085-0.024,0.128-0.041c0.246-0.09,0.471-0.217,0.677-0.373  c0.017-0.014,0.038-0.017,0.055-0.03c0.035-0.029,0.062-0.063,0.095-0.093c0.069-0.062,0.135-0.125,0.196-0.193  C78.259,56.439,78.311,56.376,78.359,56.31z M49.687,76.725c-7.887,0-15.159-3.34-20.245-9.108h18.985  c0.006,0,0.009,0.001,0.013,0.001s0.008-0.001,0.013-0.001h21.48C64.849,73.385,57.574,76.725,49.687,76.725z M51.04,27.473  l19.822,24.686H51.04V27.473z M39.438,52.158l6.401-10.098v10.098H39.438z"/>
</svg>